<?xml version="1.0" encoding="UTF-8" standalone="no"?>
<!DOCTYPE svg PUBLIC "-//W3C//DTD SVG 1.1//EN"
 "http://www.w3.org/Graphics/SVG/1.1/DTD/svg11.dtd">
<!-- Generated by graphviz version 2.38.0 (20140413.2041)
 -->
<!-- Title: G Pages: 1 -->
<svg width="443pt" height="549pt"
 viewBox="0.00 0.00 443.00 549.00" xmlns="http://www.w3.org/2000/svg" xmlns:xlink="http://www.w3.org/1999/xlink">
<g id="graph0" class="graph" transform="scale(1 1) rotate(0) translate(4 545)">
<title>G</title>
<polygon fill="white" stroke="none" points="-4,4 -4,-545 438.998,-545 438.998,4 -4,4"/>
<!-- statement -->
<g id="node1" class="node"><title>statement</title>
<polygon fill="none" stroke="black" points="150,-516 150,-537 382,-537 382,-516 150,-516"/>
<text text-anchor="start" x="215.5" y="-525" font-family="Helvetica,sans-Serif" font-style="italic" font-size="10.00">mozIStorageStatement</text>
<polygon fill="none" stroke="black" points="150,-495 150,-516 382,-516 382,-495 150,-495"/>
<text text-anchor="start" x="222" y="-504" font-family="Helvetica,sans-Serif" font-weight="bold" font-size="10.00">storage::Statement</text>
<polygon fill="#b3e2cd" stroke="#000000" points="150,-474 150,-495 382,-495 382,-474 150,-474"/>
<polygon fill="none" stroke="black" points="150,-474 150,-495 382,-495 382,-474 150,-474"/>
<text text-anchor="start" x="155" y="-482" font-family="Helvetica,sans-Serif" font-size="10.00">nsMainThreadPtrHolder mStatementParamsHolder</text>
<polygon fill="#b3e2cd" stroke="#000000" points="150,-453 150,-474 382,-474 382,-453 150,-453"/>
<polygon fill="none" stroke="black" points="150,-453 150,-474 382,-474 382,-453 150,-453"/>
<text text-anchor="start" x="162" y="-461" font-family="Helvetica,sans-Serif" font-size="10.00">nsMainThreadPtrHolder mStatementRowHolder</text>
</g>
<!-- paramsHolder -->
<g id="node4" class="node"><title>paramsHolder</title>
<polygon fill="none" stroke="black" points="8,-366.5 8,-387.5 132,-387.5 132,-366.5 8,-366.5"/>
<text text-anchor="start" x="13" y="-375.5" font-family="Helvetica,sans-Serif" font-weight="bold" font-size="10.00">StatementParamsHolder</text>
</g>
<!-- statement&#45;&gt;paramsHolder -->
<g id="edge4" class="edge"><title>statement:holderP&#45;&gt;paramsHolder:impl</title>
<path fill="none" stroke="black" d="M149,-484C106.372,-484 84.0795,-428.281 75.0068,-397.448"/>
<polygon fill="black" stroke="black" points="72.3373,-387.712 79.3214,-396.166 73.6594,-392.534 74.9816,-397.356 74.9816,-397.356 74.9816,-397.356 73.6594,-392.534 70.6417,-398.546 72.3373,-387.712 72.3373,-387.712"/>
</g>
<!-- rowHolder -->
<g id="node5" class="node"><title>rowHolder</title>
<polygon fill="none" stroke="black" points="166,-387.5 166,-408.5 276,-408.5 276,-387.5 166,-387.5"/>
<text text-anchor="start" x="194.5" y="-396.5" font-family="Helvetica,sans-Serif" font-style="italic" font-size="10.00">nsISupports</text>
<polygon fill="none" stroke="black" points="166,-366.5 166,-387.5 276,-387.5 276,-366.5 166,-366.5"/>
<text text-anchor="start" x="171" y="-375.5" font-family="Helvetica,sans-Serif" font-weight="bold" font-size="10.00">StatementRowHolder</text>
<polygon fill="#b3e2cd" stroke="#000000" points="166,-345.5 166,-366.5 276,-366.5 276,-345.5 166,-345.5"/>
<polygon fill="none" stroke="black" points="166,-345.5 166,-366.5 276,-366.5 276,-345.5 166,-345.5"/>
<text text-anchor="start" x="190.5" y="-353.5" font-family="Helvetica,sans-Serif" font-size="10.00">RefPtr mRow</text>
</g>
<!-- statement&#45;&gt;rowHolder -->
<g id="edge5" class="edge"><title>statement:holderR&#45;&gt;rowHolder:impl</title>
<path fill="none" stroke="black" d="M266,-452C266,-422.859 299.167,-388.045 286.974,-378.83"/>
<polygon fill="black" stroke="black" points="277,-376.5 287.762,-374.393 281.869,-377.638 286.738,-378.775 286.738,-378.775 286.738,-378.775 281.869,-377.638 285.714,-383.157 277,-376.5 277,-376.5"/>
</g>
<!-- xpcWrappedNative -->
<g id="node2" class="node"><title>xpcWrappedNative</title>
<polygon fill="none" stroke="black" points="21,-173.5 21,-194.5 176,-194.5 176,-173.5 21,-173.5"/>
<text text-anchor="start" x="32" y="-182.5" font-family="Helvetica,sans-Serif" font-style="italic" font-size="10.00">nsIXPConnectJSObjectHolder</text>
<polygon fill="none" stroke="black" points="21,-152.5 21,-173.5 176,-173.5 176,-152.5 21,-152.5"/>
<text text-anchor="start" x="52" y="-161.5" font-family="Helvetica,sans-Serif" font-weight="bold" font-size="10.00">XPCWrappedNative</text>
<polygon fill="#b3e2cd" stroke="#000000" points="21,-131.5 21,-152.5 176,-152.5 176,-131.5 21,-131.5"/>
<polygon fill="none" stroke="black" points="21,-131.5 21,-152.5 176,-152.5 176,-131.5 21,-131.5"/>
<text text-anchor="start" x="26" y="-139.5" font-family="Helvetica,sans-Serif" font-size="10.00">JS::TenuredHeap mFlatJSObject</text>
</g>
<!-- params -->
<g id="node8" class="node"><title>params</title>
<polygon fill="none" stroke="black" points="152,-67 152,-88 297,-88 297,-67 152,-67"/>
<text text-anchor="start" x="185" y="-76" font-family="Helvetica,sans-Serif" font-style="italic" font-size="10.00">nsIXPCScriptable</text>
<polygon fill="none" stroke="black" points="152,-46 152,-67 297,-67 297,-46 152,-46"/>
<text text-anchor="start" x="157" y="-55" font-family="Helvetica,sans-Serif" font-style="italic" font-size="10.00">mozIStorageStatementParams</text>
<polygon fill="none" stroke="black" points="152,-25 152,-46 297,-46 297,-25 152,-25"/>
<text text-anchor="start" x="183.5" y="-34" font-family="Helvetica,sans-Serif" font-weight="bold" font-size="10.00">StatementParams</text>
<polygon fill="#fdcdac" stroke="#000000" points="152,-4 152,-25 297,-25 297,-4 152,-4"/>
<polygon fill="none" stroke="black" points="152,-4 152,-25 297,-25 297,-4 152,-4"/>
<text text-anchor="start" x="181" y="-12" font-family="Helvetica,sans-Serif" font-size="10.00">WEAK mStatement</text>
</g>
<!-- xpcWrappedNative&#45;&gt;params -->
<g id="edge3" class="edge"><title>xpcWrappedNative:mFlatJSObject&#45;&gt;params</title>
<path fill="none" stroke="black" d="M177,-141.5C187.535,-141.5 198.088,-122.435 206.517,-101.432"/>
<polygon fill="black" stroke="black" points="210.113,-92.0359 210.742,-102.984 208.326,-96.7056 206.539,-101.375 206.539,-101.375 206.539,-101.375 208.326,-96.7056 202.336,-99.7669 210.113,-92.0359 210.113,-92.0359"/>
</g>
<!-- jsObjHolder -->
<g id="node3" class="node"><title>jsObjHolder</title>
<polygon fill="none" stroke="black" points="17,-280.5 17,-301.5 160,-301.5 160,-280.5 17,-280.5"/>
<text text-anchor="start" x="22" y="-289.5" font-family="Helvetica,sans-Serif" font-style="italic" font-size="10.00">nsIXPConnectJSObjectHolder</text>
<polygon fill="none" stroke="black" points="17,-259.5 17,-280.5 160,-280.5 160,-259.5 17,-259.5"/>
<text text-anchor="start" x="43" y="-268.5" font-family="Helvetica,sans-Serif" font-weight="bold" font-size="10.00">StatementJSHolder</text>
<polygon fill="#b3e2cd" stroke="#000000" points="17,-238.5 17,-259.5 160,-259.5 160,-238.5 17,-238.5"/>
<polygon fill="none" stroke="black" points="17,-238.5 17,-259.5 160,-259.5 160,-238.5 17,-238.5"/>
<text text-anchor="start" x="45" y="-246.5" font-family="Helvetica,sans-Serif" font-size="10.00">nsCOMPtr mHolder</text>
</g>
<!-- jsObjHolder&#45;&gt;xpcWrappedNative -->
<g id="edge2" class="edge"><title>jsObjHolder:mHolder&#45;&gt;xpcWrappedNative</title>
<path fill="none" stroke="black" d="M89,-237.5C89,-228.408 89.6962,-218.726 90.7014,-209.486"/>
<polygon fill="black" stroke="black" points="91.9469,-199.296 95.2003,-209.769 91.3402,-204.259 90.7335,-209.222 90.7335,-209.222 90.7335,-209.222 91.3402,-204.259 86.2668,-208.676 91.9469,-199.296 91.9469,-199.296"/>
</g>
<!-- paramsHolder&#45;&gt;jsObjHolder -->
<g id="edge8" class="edge"><title>paramsHolder:impl&#45;&gt;jsObjHolder</title>
<path fill="none" stroke="black" d="M71.5974,-366.271C73.5666,-354.893 77.0528,-334.751 80.3063,-315.953"/>
<polygon fill="none" stroke="black" points="83.771,-316.457 82.0277,-306.006 76.8735,-315.263 83.771,-316.457"/>
</g>
<!-- row -->
<g id="node7" class="node"><title>row</title>
<polygon fill="none" stroke="black" points="212,-280.5 212,-301.5 309,-301.5 309,-280.5 212,-280.5"/>
<text text-anchor="start" x="234" y="-289.5" font-family="Helvetica,sans-Serif" font-style="italic" font-size="10.00">nsISupports</text>
<polygon fill="none" stroke="black" points="212,-259.5 212,-280.5 309,-280.5 309,-259.5 212,-259.5"/>
<text text-anchor="start" x="226.5" y="-268.5" font-family="Helvetica,sans-Serif" font-weight="bold" font-size="10.00">StatementRow</text>
<polygon fill="#fdcdac" stroke="#000000" points="212,-238.5 212,-259.5 309,-259.5 309,-238.5 212,-238.5"/>
<polygon fill="none" stroke="black" points="212,-238.5 212,-259.5 309,-259.5 309,-238.5 212,-238.5"/>
<text text-anchor="start" x="217" y="-246.5" font-family="Helvetica,sans-Serif" font-size="10.00">WEAK mStatement</text>
</g>
<!-- rowHolder&#45;&gt;row -->
<g id="edge1" class="edge"><title>rowHolder:mRow&#45;&gt;row</title>
<path fill="none" stroke="black" d="M221,-344.5C221,-334.478 223.895,-324.498 228.108,-315.281"/>
<polygon fill="black" stroke="black" points="232.701,-306.345 232.132,-317.296 230.415,-310.792 228.129,-315.239 228.129,-315.239 228.129,-315.239 230.415,-310.792 224.127,-313.181 232.701,-306.345 232.701,-306.345"/>
</g>
<!-- wrapperCache -->
<g id="node6" class="node"><title>wrapperCache</title>
<polygon fill="none" stroke="black" points="215,-152.5 215,-173.5 306,-173.5 306,-152.5 215,-152.5"/>
<text text-anchor="start" x="220" y="-161.5" font-family="Helvetica,sans-Serif" font-weight="bold" font-size="10.00">nsWrapperCache</text>
</g>
<!-- row&#45;&gt;statement -->
<g id="edge6" class="edge"><title>row:mStatement&#45;&gt;statement:impl</title>
<path fill="none" stroke="black" d="M310,-248.5C347.009,-248.5 317.235,-381.101 336,-413 349.163,-435.376 370.425,-425.762 382,-449 391.355,-467.781 403.278,-494.546 392.71,-503.192"/>
<polygon fill="black" stroke="black" points="383,-506 391.356,-498.899 387.803,-504.611 392.606,-503.222 392.606,-503.222 392.606,-503.222 387.803,-504.611 393.857,-507.545 383,-506 383,-506"/>
</g>
<!-- row&#45;&gt;wrapperCache -->
<g id="edge9" class="edge"><title>row&#45;&gt;wrapperCache</title>
<path fill="none" stroke="black" d="M260,-234.828C260,-220.921 260,-205.12 260,-192.023"/>
<polygon fill="none" stroke="black" points="263.5,-191.759 260,-181.759 256.5,-191.759 263.5,-191.759"/>
</g>
<!-- params&#45;&gt;statement -->
<g id="edge7" class="edge"><title>params:mStatement&#45;&gt;statement:impl</title>
<path fill="none" stroke="black" d="M298,-14C405.377,-14 488.448,-474.8 393.122,-504.5"/>
<polygon fill="black" stroke="black" points="383,-506 392.232,-500.083 387.946,-505.267 392.892,-504.534 392.892,-504.534 392.892,-504.534 387.946,-505.267 393.552,-508.985 383,-506 383,-506"/>
</g>
</g>
</svg>
