<svg version="1.1" baseProfile="full" width="100%" height="100%" xmlns="http://www.w3.org/2000/svg" xmlns:xlink="http://www.w3.org/1999/xlink" xmlns:ev="http://www.w3.org/2001/xml-events" style="font-weight:bold; font-size:12pt; font-family:'Calibri', Helvetica, sans-serif;;stroke-width:3;stroke-linejoin:round;stroke-linecap:round"><path d="M85.5 44.5 L85.5 64.5 L85.5 84.5 L85.5 84.5 " style="stroke:#33322E;fill:none;"></path>
<path d="M90.8 57.8 L85.5 57.8 L80.2 57.8 L85.5 44.5 Z" style="stroke:#33322E;fill:#eee8d5;"></path>
<path d="M85.5 115.5 L85.5 135.5 L85.5 155.5 L85.5 155.5 " style="stroke:#33322E;fill:none;"></path>
<path d="M90.8 128.8 L85.5 128.8 L80.2 128.8 L85.5 115.5 Z" style="stroke:#33322E;fill:#eee8d5;"></path>
<path d="M85.5 186.5 L85.5 206.5 L85.5 226.5 L85.5 226.5 " style="stroke:#33322E;fill:none;"></path>
<path d="M90.8 199.8 L85.5 199.8 L80.2 199.8 L85.5 186.5 Z" style="stroke:#33322E;fill:#eee8d5;"></path>
<rect x="35.5" y="13.5" height="31" width="101" style="stroke:#33322E;fill:#eee8d5;"></rect>
<text x="43.5" y="35" style="">nsIChannel</text>
<rect x="18.5" y="84.5" height="31" width="135" style="stroke:#33322E;fill:#eee8d5;"></rect>
<text x="26.5" y="106" style="">nsIHttpChannel</text>
<rect x="13.5" y="155.5" height="31" width="144" style="stroke:#33322E;fill:#eee8d5;"></rect>
<text x="21.8" y="177" style="">HttpBaseChannel</text>
<rect x="22.5" y="226.5" height="31" width="127" style="stroke:#33322E;fill:#eee8d5;"></rect>
<text x="30.8" y="248" style="">nsHttpChannel</text></svg>