<?xml version="1.0" encoding="UTF-8" standalone="no"?>
<!DOCTYPE svg PUBLIC "-//W3C//DTD SVG 1.1//EN"
 "http://www.w3.org/Graphics/SVG/1.1/DTD/svg11.dtd">
<!-- Generated by graphviz version 2.38.0 (20140413.2041)
 -->
<!-- Title: G Pages: 1 -->
<svg width="442pt" height="321pt"
 viewBox="0.00 0.00 442.00 321.00" xmlns="http://www.w3.org/2000/svg" xmlns:xlink="http://www.w3.org/1999/xlink">
<g id="graph0" class="graph" transform="scale(1 1) rotate(0) translate(4 317)">
<title>G</title>
<polygon fill="white" stroke="none" points="-4,4 -4,-317 438,-317 438,4 -4,4"/>
<g id="clust1" class="cluster"><title>cluster_parent</title>
<polygon fill="none" stroke="black" points="8,-8 8,-230 170,-230 170,-8 8,-8"/>
<text text-anchor="middle" x="89" y="-214.8" font-family="Sans-Serif" font-size="14.00">Parent</text>
</g>
<g id="clust2" class="cluster"><title>cluster_none10s</title>
<polygon fill="none" stroke="black" points="178,-8 178,-305 296,-305 296,-8 178,-8"/>
<text text-anchor="middle" x="237" y="-289.8" font-family="Sans-Serif" font-size="14.00">non&#45;e10s</text>
</g>
<g id="clust3" class="cluster"><title>cluster_child</title>
<polygon fill="none" stroke="black" points="304,-8 304,-155 426,-155 426,-8 304,-8"/>
<text text-anchor="middle" x="365" y="-139.8" font-family="Sans-Serif" font-size="14.00">Child</text>
</g>
<!-- PHttpChannelParent -->
<g id="node1" class="node"><title>PHttpChannelParent</title>
<polygon fill="none" stroke="black" points="153.5,-199 40.5,-199 40.5,-163 153.5,-163 153.5,-199"/>
<text text-anchor="middle" x="97" y="-178.5" font-family="Sans-Serif" font-size="10.00">PHttpChannelParent</text>
</g>
<!-- HttpChannelParent -->
<g id="node2" class="node"><title>HttpChannelParent</title>
<polygon fill="none" stroke="black" points="150.5,-124 43.5,-124 43.5,-88 150.5,-88 150.5,-124"/>
<text text-anchor="middle" x="97" y="-103.5" font-family="Sans-Serif" font-size="10.00">HttpChannelParent</text>
</g>
<!-- PHttpChannelParent&#45;&gt;HttpChannelParent -->
<g id="edge1" class="edge"><title>PHttpChannelParent&#45;&gt;HttpChannelParent</title>
<path fill="none" stroke="black" d="M97,-152.487C97,-142.983 97,-132.612 97,-124.176"/>
<polygon fill="none" stroke="black" points="93.5001,-152.7 97,-162.7 100.5,-152.7 93.5001,-152.7"/>
</g>
<!-- HttpChannelParentListener -->
<g id="node3" class="node"><title>HttpChannelParentListener</title>
<polygon fill="none" stroke="black" points="162,-52 16,-52 16,-16 162,-16 162,-52"/>
<text text-anchor="middle" x="89" y="-31.5" font-family="Sans-Serif" font-size="10.00">HttpChannelParentListener</text>
</g>
<!-- HttpChannelParent&#45;&gt;HttpChannelParentListener -->
<g id="edge2" class="edge"><title>HttpChannelParent&#45;&gt;HttpChannelParentListener</title>
<path fill="none" stroke="black" stroke-dasharray="5,2" d="M95.0225,-87.6966C94.1409,-79.9827 93.0814,-70.7125 92.0986,-62.1124"/>
<polygon fill="black" stroke="black" points="90.9548,-52.1043 96.5612,-61.5287 91.5226,-57.072 92.0903,-62.0397 92.0903,-62.0397 92.0903,-62.0397 91.5226,-57.072 87.6194,-62.5507 90.9548,-52.1043 90.9548,-52.1043"/>
</g>
<!-- nsHttpChannel -->
<g id="node7" class="node"><title>nsHttpChannel</title>
<polygon fill="none" stroke="black" points="277,-52 189,-52 189,-16 277,-16 277,-52"/>
<text text-anchor="middle" x="233" y="-31.5" font-family="Sans-Serif" font-size="10.00">nsHttpChannel</text>
</g>
<!-- HttpChannelParent&#45;&gt;nsHttpChannel -->
<g id="edge8" class="edge"><title>HttpChannelParent&#45;&gt;nsHttpChannel</title>
<path fill="none" stroke="black" stroke-dasharray="5,2" d="M130.269,-87.8761C148.463,-78.5117 171.191,-66.8136 190.64,-56.803"/>
<polygon fill="black" stroke="black" points="199.603,-52.1898 192.771,-60.7674 195.157,-54.478 190.711,-56.7662 190.711,-56.7662 190.711,-56.7662 195.157,-54.478 188.652,-52.7651 199.603,-52.1898 199.603,-52.1898"/>
</g>
<!-- nsIChannel -->
<g id="node4" class="node"><title>nsIChannel</title>
<polygon fill="none" stroke="black" points="271.5,-274 202.5,-274 202.5,-238 271.5,-238 271.5,-274"/>
<text text-anchor="middle" x="237" y="-253.5" font-family="Sans-Serif" font-size="10.00">nsIChannel</text>
</g>
<!-- nsIHttpChannel -->
<g id="node5" class="node"><title>nsIHttpChannel</title>
<polygon fill="none" stroke="black" points="282,-199 192,-199 192,-163 282,-163 282,-199"/>
<text text-anchor="middle" x="237" y="-178.5" font-family="Sans-Serif" font-size="10.00">nsIHttpChannel</text>
</g>
<!-- nsIChannel&#45;&gt;nsIHttpChannel -->
<g id="edge3" class="edge"><title>nsIChannel&#45;&gt;nsIHttpChannel</title>
<path fill="none" stroke="black" d="M237,-227.487C237,-217.983 237,-207.612 237,-199.176"/>
<polygon fill="none" stroke="black" points="233.5,-227.7 237,-237.7 240.5,-227.7 233.5,-227.7"/>
</g>
<!-- HttpBaseChannel -->
<g id="node6" class="node"><title>HttpBaseChannel</title>
<polygon fill="none" stroke="black" points="287.5,-124 186.5,-124 186.5,-88 287.5,-88 287.5,-124"/>
<text text-anchor="middle" x="237" y="-103.5" font-family="Sans-Serif" font-size="10.00">HttpBaseChannel</text>
</g>
<!-- nsIHttpChannel&#45;&gt;HttpBaseChannel -->
<g id="edge4" class="edge"><title>nsIHttpChannel&#45;&gt;HttpBaseChannel</title>
<path fill="none" stroke="black" d="M237,-152.487C237,-142.983 237,-132.612 237,-124.176"/>
<polygon fill="none" stroke="black" points="233.5,-152.7 237,-162.7 240.5,-152.7 233.5,-152.7"/>
</g>
<!-- HttpBaseChannel&#45;&gt;nsHttpChannel -->
<g id="edge5" class="edge"><title>HttpBaseChannel&#45;&gt;nsHttpChannel</title>
<path fill="none" stroke="black" d="M235.438,-77.6651C234.946,-69.0537 234.417,-59.7913 233.977,-52.1043"/>
<polygon fill="none" stroke="black" points="231.946,-77.9126 236.011,-87.6966 238.935,-77.5132 231.946,-77.9126"/>
</g>
<!-- HttpChannelChild -->
<g id="node9" class="node"><title>HttpChannelChild</title>
<polygon fill="none" stroke="black" points="413,-52 313,-52 313,-16 413,-16 413,-52"/>
<text text-anchor="middle" x="363" y="-31.5" font-family="Sans-Serif" font-size="10.00">HttpChannelChild</text>
</g>
<!-- HttpBaseChannel&#45;&gt;HttpChannelChild -->
<g id="edge7" class="edge"><title>HttpBaseChannel&#45;&gt;HttpChannelChild</title>
<path fill="none" stroke="black" d="M276.854,-82.859C294.695,-72.9474 315.412,-61.4378 332.058,-52.1898"/>
<polygon fill="none" stroke="black" points="274.865,-79.96 267.823,-87.8761 278.264,-86.0791 274.865,-79.96"/>
</g>
<!-- PHttpChannelChild -->
<g id="node8" class="node"><title>PHttpChannelChild</title>
<polygon fill="none" stroke="black" points="418,-124 312,-124 312,-88 418,-88 418,-124"/>
<text text-anchor="middle" x="365" y="-103.5" font-family="Sans-Serif" font-size="10.00">PHttpChannelChild</text>
</g>
<!-- PHttpChannelChild&#45;&gt;HttpChannelChild -->
<g id="edge6" class="edge"><title>PHttpChannelChild&#45;&gt;HttpChannelChild</title>
<path fill="none" stroke="black" d="M364.219,-77.6651C363.973,-69.0537 363.708,-59.7913 363.489,-52.1043"/>
<polygon fill="none" stroke="black" points="360.721,-77.8007 364.506,-87.6966 367.718,-77.6007 360.721,-77.8007"/>
</g>
</g>
</svg>
