<?xml version="1.0" encoding="UTF-8" standalone="no"?>
<!DOCTYPE svg PUBLIC "-//W3C//DTD SVG 1.1//EN"
 "http://www.w3.org/Graphics/SVG/1.1/DTD/svg11.dtd">
<!-- Generated by graphviz version 2.38.0 (20140413.2041)
 -->
<!-- Title: G Pages: 1 -->
<svg width="410pt" height="321pt"
 viewBox="0.00 0.00 410.00 321.00" xmlns="http://www.w3.org/2000/svg" xmlns:xlink="http://www.w3.org/1999/xlink">
<g id="graph0" class="graph" transform="scale(1 1) rotate(0) translate(4 317)">
<title>G</title>
<polygon fill="white" stroke="none" points="-4,4 -4,-317 406,-317 406,4 -4,4"/>
<g id="clust1" class="cluster"><title>cluster_parent</title>
<polygon fill="none" stroke="black" points="8,-80 8,-230 138,-230 138,-80 8,-80"/>
<text text-anchor="middle" x="73" y="-214.8" font-family="Sans-Serif" font-size="14.00">Parent</text>
</g>
<g id="clust2" class="cluster"><title>cluster_none10s</title>
<polygon fill="none" stroke="black" points="146,-8 146,-305 264,-305 264,-8 146,-8"/>
<text text-anchor="middle" x="205" y="-289.8" font-family="Sans-Serif" font-size="14.00">non&#45;e10s</text>
</g>
<g id="clust3" class="cluster"><title>cluster_child</title>
<polygon fill="none" stroke="black" points="272,-8 272,-155 394,-155 394,-8 272,-8"/>
<text text-anchor="middle" x="333" y="-139.8" font-family="Sans-Serif" font-size="14.00">Child</text>
</g>
<!-- PHttpChannelParent -->
<g id="node1" class="node"><title>PHttpChannelParent</title>
<polygon fill="none" stroke="black" points="129.5,-199 16.5,-199 16.5,-163 129.5,-163 129.5,-199"/>
<text text-anchor="middle" x="73" y="-178.5" font-family="Sans-Serif" font-size="10.00">PHttpChannelParent</text>
</g>
<!-- HttpChannelParent -->
<g id="node2" class="node"><title>HttpChannelParent</title>
<polygon fill="none" stroke="black" points="128.5,-124 21.5,-124 21.5,-88 128.5,-88 128.5,-124"/>
<text text-anchor="middle" x="75" y="-103.5" font-family="Sans-Serif" font-size="10.00">HttpChannelParent</text>
</g>
<!-- PHttpChannelParent&#45;&gt;HttpChannelParent -->
<g id="edge1" class="edge"><title>PHttpChannelParent&#45;&gt;HttpChannelParent</title>
<path fill="none" stroke="black" d="M73.7538,-152.487C74.0142,-142.983 74.2983,-132.612 74.5294,-124.176"/>
<polygon fill="none" stroke="black" points="70.2492,-152.608 73.474,-162.7 77.2466,-152.8 70.2492,-152.608"/>
</g>
<!-- nsHttpChannel -->
<g id="node6" class="node"><title>nsHttpChannel</title>
<polygon fill="none" stroke="black" points="245,-52 157,-52 157,-16 245,-16 245,-52"/>
<text text-anchor="middle" x="201" y="-31.5" font-family="Sans-Serif" font-size="10.00">nsHttpChannel</text>
</g>
<!-- HttpChannelParent&#45;&gt;nsHttpChannel -->
<g id="edge7" class="edge"><title>HttpChannelParent&#45;&gt;nsHttpChannel</title>
<path fill="none" stroke="black" stroke-dasharray="5,2" d="M105.823,-87.8761C122.45,-78.6388 143.165,-67.1308 161.019,-57.2116"/>
<polygon fill="black" stroke="black" points="170.058,-52.1898 163.502,-60.9799 165.688,-54.618 161.317,-57.0462 161.317,-57.0462 161.317,-57.0462 165.688,-54.618 159.131,-53.1125 170.058,-52.1898 170.058,-52.1898"/>
</g>
<!-- nsIChannel -->
<g id="node3" class="node"><title>nsIChannel</title>
<polygon fill="none" stroke="black" points="239.5,-274 170.5,-274 170.5,-238 239.5,-238 239.5,-274"/>
<text text-anchor="middle" x="205" y="-253.5" font-family="Sans-Serif" font-size="10.00">nsIChannel</text>
</g>
<!-- nsIHttpChannel -->
<g id="node4" class="node"><title>nsIHttpChannel</title>
<polygon fill="none" stroke="black" points="250,-199 160,-199 160,-163 250,-163 250,-199"/>
<text text-anchor="middle" x="205" y="-178.5" font-family="Sans-Serif" font-size="10.00">nsIHttpChannel</text>
</g>
<!-- nsIChannel&#45;&gt;nsIHttpChannel -->
<g id="edge2" class="edge"><title>nsIChannel&#45;&gt;nsIHttpChannel</title>
<path fill="none" stroke="black" d="M205,-227.487C205,-217.983 205,-207.612 205,-199.176"/>
<polygon fill="none" stroke="black" points="201.5,-227.7 205,-237.7 208.5,-227.7 201.5,-227.7"/>
</g>
<!-- HttpBaseChannel -->
<g id="node5" class="node"><title>HttpBaseChannel</title>
<polygon fill="none" stroke="black" points="255.5,-124 154.5,-124 154.5,-88 255.5,-88 255.5,-124"/>
<text text-anchor="middle" x="205" y="-103.5" font-family="Sans-Serif" font-size="10.00">HttpBaseChannel</text>
</g>
<!-- nsIHttpChannel&#45;&gt;HttpBaseChannel -->
<g id="edge3" class="edge"><title>nsIHttpChannel&#45;&gt;HttpBaseChannel</title>
<path fill="none" stroke="black" d="M205,-152.487C205,-142.983 205,-132.612 205,-124.176"/>
<polygon fill="none" stroke="black" points="201.5,-152.7 205,-162.7 208.5,-152.7 201.5,-152.7"/>
</g>
<!-- HttpBaseChannel&#45;&gt;nsHttpChannel -->
<g id="edge4" class="edge"><title>HttpBaseChannel&#45;&gt;nsHttpChannel</title>
<path fill="none" stroke="black" d="M203.438,-77.6651C202.946,-69.0537 202.417,-59.7913 201.977,-52.1043"/>
<polygon fill="none" stroke="black" points="199.946,-77.9126 204.011,-87.6966 206.935,-77.5132 199.946,-77.9126"/>
</g>
<!-- HttpChannelChild -->
<g id="node8" class="node"><title>HttpChannelChild</title>
<polygon fill="none" stroke="black" points="381,-52 281,-52 281,-16 381,-16 381,-52"/>
<text text-anchor="middle" x="331" y="-31.5" font-family="Sans-Serif" font-size="10.00">HttpChannelChild</text>
</g>
<!-- HttpBaseChannel&#45;&gt;HttpChannelChild -->
<g id="edge6" class="edge"><title>HttpBaseChannel&#45;&gt;HttpChannelChild</title>
<path fill="none" stroke="black" d="M244.854,-82.859C262.695,-72.9474 283.412,-61.4378 300.058,-52.1898"/>
<polygon fill="none" stroke="black" points="242.865,-79.96 235.823,-87.8761 246.264,-86.0791 242.865,-79.96"/>
</g>
<!-- PHttpChannelChild -->
<g id="node7" class="node"><title>PHttpChannelChild</title>
<polygon fill="none" stroke="black" points="386,-124 280,-124 280,-88 386,-88 386,-124"/>
<text text-anchor="middle" x="333" y="-103.5" font-family="Sans-Serif" font-size="10.00">PHttpChannelChild</text>
</g>
<!-- PHttpChannelChild&#45;&gt;HttpChannelChild -->
<g id="edge5" class="edge"><title>PHttpChannelChild&#45;&gt;HttpChannelChild</title>
<path fill="none" stroke="black" d="M332.219,-77.6651C331.973,-69.0537 331.708,-59.7913 331.489,-52.1043"/>
<polygon fill="none" stroke="black" points="328.721,-77.8007 332.506,-87.6966 335.718,-77.6007 328.721,-77.8007"/>
</g>
</g>
</svg>
