<?xml version="1.0" encoding="UTF-8" standalone="no"?>
<!DOCTYPE svg PUBLIC "-//W3C//DTD SVG 1.1//EN"
 "http://www.w3.org/Graphics/SVG/1.1/DTD/svg11.dtd">
<!-- Generated by graphviz version 2.38.0 (20140413.2041)
 -->
<!-- Title: G Pages: 1 -->
<svg width="2039pt" height="3357pt"
 viewBox="0.00 0.00 2039.00 3357.00" xmlns="http://www.w3.org/2000/svg" xmlns:xlink="http://www.w3.org/1999/xlink">
<g id="graph0" class="graph" transform="scale(1 1) rotate(0) translate(4 3353)">
<title>G</title>
<polygon fill="white" stroke="none" points="-4,4 -4,-3353 2035,-3353 2035,4 -4,4"/>
<!-- OnStartRequest -->
<g id="node1" class="node"><title>OnStartRequest</title>
<polygon fill="none" stroke="black" points="968.5,-3349 881.5,-3349 881.5,-3313 968.5,-3313 968.5,-3349"/>
<text text-anchor="middle" x="925" y="-3328.5" font-family="Helvetica,sans-Serif" font-size="10.00">OnStartRequest</text>
</g>
<!-- ProcessResponse -->
<g id="node2" class="node"><title>ProcessResponse</title>
<polygon fill="none" stroke="black" points="1154.5,-3266 1057.5,-3266 1057.5,-3230 1154.5,-3230 1154.5,-3266"/>
<text text-anchor="middle" x="1106" y="-3245.5" font-family="Helvetica,sans-Serif" font-size="10.00">ProcessResponse</text>
</g>
<!-- OnStartRequest&#45;&gt;ProcessResponse -->
<g id="edge1" class="edge"><title>OnStartRequest&#45;&gt;ProcessResponse</title>
<path fill="none" stroke="black" d="M963.385,-3312.82C991.196,-3300.38 1028.97,-3283.47 1058.65,-3270.19"/>
<polygon fill="black" stroke="black" points="1067.98,-3266.01 1060.69,-3274.21 1063.42,-3268.06 1058.85,-3270.1 1058.85,-3270.1 1058.85,-3270.1 1063.42,-3268.06 1057.01,-3265.99 1067.98,-3266.01 1067.98,-3266.01"/>
<text text-anchor="middle" x="1060" y="-3287" font-family="Helvetica,sans-Serif" font-size="10.00">!mCachePump</text>
</g>
<!-- srcu_osr -->
<g id="node3" class="node"><title>srcu_osr</title>
<polygon fill="none" stroke="black" points="828,-2701 828,-2722 1021,-2722 1021,-2701 828,-2701"/>
<text text-anchor="start" x="862.5" y="-2709" font-family="Helvetica,sans-Serif" font-size="10.00">StartRedirectChannelToURI</text>
<polygon fill="none" stroke="black" points="828,-2680 828,-2701 1021,-2701 1021,-2680 828,-2680"/>
<text text-anchor="start" x="867.5" y="-2688" font-family="Helvetica,sans-Serif" font-size="10.00">OnRedirectVerifyCallback</text>
<polygon fill="none" stroke="black" points="828,-2659 828,-2680 1021,-2680 1021,-2659 828,-2659"/>
<text text-anchor="start" x="833" y="-2667" font-family="Helvetica,sans-Serif" font-size="10.00">cb ContinueAsyncRedirectChannelToURI</text>
<polygon fill="none" stroke="black" points="828,-2638 828,-2659 1021,-2659 1021,-2638 828,-2638"/>
<text text-anchor="start" x="860" y="-2646" font-family="Helvetica,sans-Serif" font-size="10.00">cb ContinueOnStartRequest1</text>
</g>
<!-- OnStartRequest&#45;&gt;srcu_osr -->
<g id="edge2" class="edge"><title>OnStartRequest&#45;&gt;srcu_osr:i</title>
<path fill="none" stroke="black" d="M925,-3312.93C925,-3296.54 925,-3271.08 925,-3249 925,-3249 925,-3249 925,-2860.5 925,-2802.97 925,-2786.06 925,-2733.29"/>
<polygon fill="black" stroke="black" points="925,-2723 929.5,-2733 925,-2728 925,-2733 925,-2733 925,-2733 925,-2728 920.5,-2733 925,-2723 925,-2723"/>
<text text-anchor="middle" x="970.5" y="-3131" font-family="Helvetica,sans-Serif" font-size="10.00">mAPIRedirectToURI</text>
</g>
<!-- cosr_chain -->
<g id="node5" class="node"><title>cosr_chain</title>
<polygon fill="none" stroke="black" points="687,-2571.5 687,-2592.5 812,-2592.5 812,-2571.5 687,-2571.5"/>
<text text-anchor="start" x="692" y="-2579.5" font-family="Helvetica,sans-Serif" font-size="10.00">ContinueOnStartRequest1</text>
<polygon fill="none" stroke="black" points="687,-2550.5 687,-2571.5 812,-2571.5 812,-2550.5 687,-2550.5"/>
<text text-anchor="start" x="692" y="-2558.5" font-family="Helvetica,sans-Serif" font-size="10.00">ContinueOnStartRequest2</text>
<polygon fill="none" stroke="black" points="687,-2529.5 687,-2550.5 812,-2550.5 812,-2529.5 687,-2529.5"/>
<text text-anchor="start" x="692" y="-2537.5" font-family="Helvetica,sans-Serif" font-size="10.00">ContinueOnStartRequest3</text>
</g>
<!-- OnStartRequest&#45;&gt;cosr_chain -->
<g id="edge5" class="edge"><title>OnStartRequest&#45;&gt;cosr_chain:cosr1</title>
<path fill="none" stroke="black" d="M881.431,-3326.56C833.75,-3320.13 764,-3301.72 764,-3249 764,-3249 764,-3249 764,-2679 764,-2644.1 752.502,-2633.86 750.346,-2603.59"/>
<polygon fill="black" stroke="black" points="750,-2593.5 754.84,-2603.34 750.171,-2598.5 750.343,-2603.49 750.343,-2603.49 750.343,-2603.49 750.171,-2598.5 745.846,-2603.65 750,-2593.5 750,-2593.5"/>
</g>
<!-- ContinueProcessResponse1 -->
<g id="node6" class="node"><title>ContinueProcessResponse1</title>
<polygon fill="none" stroke="black" points="1487.5,-3193 1346.5,-3193 1346.5,-3157 1487.5,-3157 1487.5,-3193"/>
<text text-anchor="middle" x="1417" y="-3172.5" font-family="Helvetica,sans-Serif" font-size="10.00">ContinueProcessResponse1</text>
</g>
<!-- ProcessResponse&#45;&gt;ContinueProcessResponse1 -->
<g id="edge6" class="edge"><title>ProcessResponse&#45;&gt;ContinueProcessResponse1</title>
<path fill="none" stroke="black" d="M1154.59,-3235.91C1203.2,-3224.81 1278.83,-3207.54 1336.43,-3194.39"/>
<polygon fill="black" stroke="black" points="1346.23,-3192.16 1337.49,-3198.77 1341.36,-3193.27 1336.49,-3194.38 1336.49,-3194.38 1336.49,-3194.38 1341.36,-3193.27 1335.48,-3189.99 1346.23,-3192.16 1346.23,-3192.16"/>
</g>
<!-- ContinueAsyncRedirectChannelToURI -->
<g id="node4" class="node"><title>ContinueAsyncRedirectChannelToURI</title>
<polygon fill="none" stroke="black" points="1362.5,-1033 1177.5,-1033 1177.5,-997 1362.5,-997 1362.5,-1033"/>
<text text-anchor="middle" x="1270" y="-1012.5" font-family="Helvetica,sans-Serif" font-size="10.00">ContinueAsyncRedirectChannelToURI</text>
</g>
<!-- srcu_osr&#45;&gt;ContinueAsyncRedirectChannelToURI -->
<g id="edge3" class="edge"><title>srcu_osr:car&#45;&gt;ContinueAsyncRedirectChannelToURI</title>
<path fill="none" stroke="black" d="M1022,-2669C1037.56,-2669 1024.55,-2649.15 1021,-2634 999.678,-2543 987.23,-2519.12 933,-2443 915.491,-2418.42 898.59,-2422.41 884,-2396 869.081,-2368.99 870,-2358.86 870,-2328 870,-2328 870,-2328 870,-1150 870,-1034.61 997.588,-1077.02 1110,-1051 1132.68,-1045.75 1157.22,-1040.28 1180.12,-1035.26"/>
<polygon fill="black" stroke="black" points="1190.16,-1033.07 1181.35,-1039.6 1185.27,-1034.13 1180.39,-1035.2 1180.39,-1035.2 1180.39,-1035.2 1185.27,-1034.13 1179.43,-1030.8 1190.16,-1033.07 1190.16,-1033.07"/>
</g>
<!-- srcu_osr&#45;&gt;cosr_chain -->
<g id="edge4" class="edge"><title>srcu_osr:o&#45;&gt;cosr_chain:cosr1</title>
<path fill="none" stroke="black" d="M827,-2648C802.115,-2648 829.854,-2602.23 822.236,-2587.21"/>
<polygon fill="black" stroke="black" points="813,-2582.5 823.953,-2583.03 817.454,-2584.77 821.908,-2587.04 821.908,-2587.04 821.908,-2587.04 817.454,-2584.77 819.864,-2591.05 813,-2582.5 813,-2582.5"/>
</g>
<!-- OpenRedirectChannel -->
<g id="node55" class="node"><title>OpenRedirectChannel</title>
<polygon fill="none" stroke="black" points="908.5,-950 795.5,-950 795.5,-914 908.5,-914 908.5,-950"/>
<text text-anchor="middle" x="852" y="-929.5" font-family="Helvetica,sans-Serif" font-size="10.00">OpenRedirectChannel</text>
</g>
<!-- ContinueAsyncRedirectChannelToURI&#45;&gt;OpenRedirectChannel -->
<g id="edge73" class="edge"><title>ContinueAsyncRedirectChannelToURI&#45;&gt;OpenRedirectChannel</title>
<path fill="none" stroke="black" d="M1182.12,-996.97C1103.61,-981.756 990.271,-959.794 918.911,-945.966"/>
<polygon fill="black" stroke="black" points="908.696,-943.987 919.37,-941.471 913.605,-944.938 918.513,-945.889 918.513,-945.889 918.513,-945.889 913.605,-944.938 917.657,-950.307 908.696,-943.987 908.696,-943.987"/>
<text text-anchor="middle" x="1129.5" y="-971" font-family="Helvetica,sans-Serif" font-size="10.00">NS_SUCCEEDED</text>
</g>
<!-- Cancel -->
<g id="node56" class="node"><title>Cancel</title>
<polygon fill="none" stroke="black" points="1619,-950 1565,-950 1565,-914 1619,-914 1619,-950"/>
<text text-anchor="middle" x="1592" y="-929.5" font-family="Helvetica,sans-Serif" font-size="10.00">Cancel</text>
</g>
<!-- ContinueAsyncRedirectChannelToURI&#45;&gt;Cancel -->
<g id="edge74" class="edge"><title>ContinueAsyncRedirectChannelToURI&#45;&gt;Cancel</title>
<path fill="none" stroke="black" stroke-dasharray="1,5" d="M1337.89,-996.921C1403.97,-980.299 1501.93,-955.656 1554.85,-942.346"/>
<polygon fill="black" stroke="black" points="1564.81,-939.841 1556.21,-946.644 1559.96,-941.061 1555.11,-942.28 1555.11,-942.28 1555.11,-942.28 1559.96,-941.061 1554.01,-937.916 1564.81,-939.841 1564.81,-939.841"/>
<text text-anchor="middle" x="1478.5" y="-971" font-family="Helvetica,sans-Serif" font-size="10.00">NS_FAILED</text>
</g>
<!-- moot because of redirect -->
<g id="node7" class="node"><title>moot because of redirect</title>
<polygon fill="none" stroke="black" points="924.5,-2479 799.5,-2479 799.5,-2443 924.5,-2443 924.5,-2479"/>
<text text-anchor="middle" x="862" y="-2458.5" font-family="Helvetica,sans-Serif" font-size="10.00">moot because of redirect</text>
</g>
<!-- cosr_chain&#45;&gt;moot because of redirect -->
<g id="edge7" class="edge"><title>cosr_chain:cosr1:e&#45;&gt;moot because of redirect</title>
<path fill="none" stroke="black" d="M813,-2582.5C823.046,-2582.5 842.799,-2524.29 853.912,-2488.78"/>
<polygon fill="black" stroke="black" points="856.933,-2479.01 858.279,-2489.89 855.456,-2483.79 853.98,-2488.56 853.98,-2488.56 853.98,-2488.56 855.456,-2483.79 849.68,-2487.23 856.933,-2479.01 856.933,-2479.01"/>
<text text-anchor="middle" x="894.5" y="-2500" font-family="Helvetica,sans-Serif" font-size="10.00">NS_SUCCEEDED</text>
</g>
<!-- ProxyFailover -->
<g id="node8" class="node"><title>ProxyFailover</title>
<polygon fill="none" stroke="black" points="696.5,-2479 619.5,-2479 619.5,-2443 696.5,-2443 696.5,-2479"/>
<text text-anchor="middle" x="658" y="-2458.5" font-family="Helvetica,sans-Serif" font-size="10.00">ProxyFailover</text>
</g>
<!-- cosr_chain&#45;&gt;ProxyFailover -->
<g id="edge8" class="edge"><title>cosr_chain:cosr1:e&#45;&gt;ProxyFailover</title>
<path fill="none" stroke="black" d="M813,-2582.5C838.115,-2582.5 828.154,-2545.23 812,-2526 784.922,-2493.76 757.465,-2525.12 719,-2508 706.474,-2502.43 694.118,-2493.85 683.837,-2485.61"/>
<polygon fill="black" stroke="black" points="676.073,-2479.14 686.635,-2482.09 679.913,-2482.34 683.753,-2485.54 683.753,-2485.54 683.753,-2485.54 679.913,-2482.34 680.871,-2489 676.073,-2479.14 676.073,-2479.14"/>
</g>
<!-- ProcessFallback -->
<g id="node9" class="node"><title>ProcessFallback</title>
<polygon fill="none" stroke="black" points="648,-2284 648,-2305 818,-2305 818,-2284 648,-2284"/>
<text text-anchor="start" x="694.5" y="-2293" font-family="Helvetica,sans-Serif" font-weight="bold" font-size="10.00">ProcessFallback</text>
<polygon fill="none" stroke="black" points="648,-2263 648,-2284 818,-2284 818,-2263 648,-2263"/>
<text text-anchor="start" x="694.5" y="-2271" font-family="Helvetica,sans-Serif" font-size="10.00">if no fallback, bail</text>
<polygon fill="none" stroke="black" points="648,-2242 648,-2263 818,-2263 818,-2242 648,-2242"/>
<text text-anchor="start" x="678" y="-2250" font-family="Helvetica,sans-Serif" font-size="10.00">WaitForRedirectCallback</text>
<polygon fill="none" stroke="black" points="648,-2221 648,-2242 818,-2242 818,-2221 648,-2221"/>
<text text-anchor="start" x="676" y="-2229" font-family="Helvetica,sans-Serif" font-size="10.00">OnRedirectVerifyCallback</text>
<polygon fill="none" stroke="black" points="648,-2200 648,-2221 818,-2221 818,-2200 648,-2200"/>
<text text-anchor="start" x="670" y="-2208" font-family="Helvetica,sans-Serif" font-size="10.00">cb ContinueProcessFallback</text>
<polygon fill="none" stroke="black" points="648,-2179 648,-2200 818,-2200 818,-2179 648,-2179"/>
<text text-anchor="start" x="653" y="-2187" font-family="Helvetica,sans-Serif" font-size="10.00">(other pushed callbacks, see callers)</text>
</g>
<!-- cosr_chain&#45;&gt;ProcessFallback -->
<g id="edge9" class="edge"><title>cosr_chain:cosr2:e&#45;&gt;ProcessFallback</title>
<path fill="none" stroke="black" d="M813,-2560.5C828.34,-2560.5 821.182,-2538.29 812,-2526 796.604,-2505.4 773.021,-2528.12 757,-2508 715.198,-2455.5 713.111,-2377.24 719.126,-2319.37"/>
<polygon fill="black" stroke="black" points="720.29,-2309.18 723.626,-2319.62 719.723,-2314.15 719.155,-2319.11 719.155,-2319.11 719.155,-2319.11 719.723,-2314.15 714.684,-2318.6 720.29,-2309.18 720.29,-2309.18"/>
</g>
<!-- CallOnStartRequest -->
<g id="node10" class="node"><title>CallOnStartRequest</title>
<polygon fill="none" stroke="black" points="1114,-2138 1010,-2138 1010,-2102 1114,-2102 1114,-2138"/>
<text text-anchor="middle" x="1062" y="-2117.5" font-family="Helvetica,sans-Serif" font-size="10.00">CallOnStartRequest</text>
</g>
<!-- cosr_chain&#45;&gt;CallOnStartRequest -->
<g id="edge10" class="edge"><title>cosr_chain:cosr3:e&#45;&gt;CallOnStartRequest</title>
<path fill="none" stroke="black" d="M813,-2539.5C819.016,-2539.5 813.523,-2531.82 812,-2526 806.163,-2503.69 795.008,-2501.51 790,-2479 786.526,-2463.38 784.503,-2458.03 790,-2443 815.798,-2372.48 975.033,-2208.09 1037.19,-2145.66"/>
<polygon fill="black" stroke="black" points="1044.61,-2138.22 1040.73,-2148.48 1041.08,-2141.76 1037.55,-2145.3 1037.55,-2145.3 1037.55,-2145.3 1041.08,-2141.76 1034.36,-2142.12 1044.61,-2138.22 1044.61,-2138.22"/>
<text text-anchor="middle" x="884.5" y="-2368.5" font-family="Helvetica,sans-Serif" font-size="10.00">!mFallingBack</text>
</g>
<!-- cpr2 -->
<g id="node11" class="node"><title>cpr2</title>
<polygon fill="none" stroke="black" points="1352,-2934.5 1352,-2955.5 1561,-2955.5 1561,-2934.5 1352,-2934.5"/>
<text text-anchor="start" x="1390" y="-2943.5" font-family="Helvetica,sans-Serif" font-weight="bold" font-size="10.00">ContinueProcessResponse2</text>
<polygon fill="none" stroke="black" points="1352,-2913.5 1352,-2934.5 1561,-2934.5 1561,-2913.5 1352,-2913.5"/>
<text text-anchor="start" x="1437.5" y="-2921.5" font-family="Helvetica,sans-Serif" font-size="10.00">200, 203</text>
<polygon fill="none" stroke="black" points="1352,-2892.5 1352,-2913.5 1561,-2913.5 1561,-2892.5 1352,-2892.5"/>
<text text-anchor="start" x="1381" y="-2900.5" font-family="Helvetica,sans-Serif" font-size="10.00">206 and mCachedContentIsPartial</text>
<polygon fill="none" stroke="black" points="1352,-2871.5 1352,-2892.5 1561,-2892.5 1561,-2871.5 1352,-2871.5"/>
<text text-anchor="start" x="1379.5" y="-2879.5" font-family="Helvetica,sans-Serif" font-size="10.00">206 and !mCachedContentIsPartial</text>
<polygon fill="none" stroke="black" points="1352,-2850.5 1352,-2871.5 1561,-2871.5 1561,-2850.5 1352,-2850.5"/>
<text text-anchor="start" x="1401.5" y="-2858.5" font-family="Helvetica,sans-Serif" font-size="10.00">300,301,302,303,307,308</text>
<polygon fill="none" stroke="black" points="1352,-2829.5 1352,-2850.5 1561,-2850.5 1561,-2829.5 1352,-2829.5"/>
<text text-anchor="start" x="1357" y="-2837.5" font-family="Helvetica,sans-Serif" font-size="10.00">304 and !ShouldBypassProcessNotModified()</text>
<polygon fill="none" stroke="black" points="1352,-2808.5 1352,-2829.5 1561,-2829.5 1561,-2808.5 1352,-2808.5"/>
<text text-anchor="start" x="1358.5" y="-2816.5" font-family="Helvetica,sans-Serif" font-size="10.00">304 and ShouldBypassProcessNotModified()</text>
<polygon fill="none" stroke="black" points="1352,-2787.5 1352,-2808.5 1561,-2808.5 1561,-2787.5 1352,-2787.5"/>
<text text-anchor="start" x="1439" y="-2795.5" font-family="Helvetica,sans-Serif" font-size="10.00">401,407</text>
<polygon fill="none" stroke="black" points="1352,-2766.5 1352,-2787.5 1561,-2787.5 1561,-2766.5 1352,-2766.5"/>
<text text-anchor="start" x="1441.5" y="-2774.5" font-family="Helvetica,sans-Serif" font-size="10.00">default</text>
</g>
<!-- ContinueProcessResponse1&#45;&gt;cpr2 -->
<g id="edge11" class="edge"><title>ContinueProcessResponse1&#45;&gt;cpr2:i</title>
<path fill="none" stroke="black" d="M1416.76,-3157C1416.75,-3124.97 1418.88,-3053.82 1436,-2997 1440.71,-2981.38 1451.44,-2977.8 1455.45,-2966.44"/>
<polygon fill="black" stroke="black" points="1457,-2956.5 1459.9,-2967.07 1456.23,-2961.44 1455.46,-2966.38 1455.46,-2966.38 1455.46,-2966.38 1456.23,-2961.44 1451.01,-2965.69 1457,-2956.5 1457,-2956.5"/>
</g>
<!-- srcu_cpr1 -->
<g id="node12" class="node"><title>srcu_cpr1</title>
<polygon fill="none" stroke="black" points="1454,-3084.5 1454,-3105.5 1647,-3105.5 1647,-3084.5 1454,-3084.5"/>
<text text-anchor="start" x="1488.5" y="-3092.5" font-family="Helvetica,sans-Serif" font-size="10.00">StartRedirectChannelToURI</text>
<polygon fill="none" stroke="black" points="1454,-3063.5 1454,-3084.5 1647,-3084.5 1647,-3063.5 1454,-3063.5"/>
<text text-anchor="start" x="1495.5" y="-3071.5" font-family="Helvetica,sans-Serif" font-size="10.00">WaitForRedirectCallback</text>
<polygon fill="none" stroke="black" points="1454,-3042.5 1454,-3063.5 1647,-3063.5 1647,-3042.5 1454,-3042.5"/>
<text text-anchor="start" x="1493.5" y="-3050.5" font-family="Helvetica,sans-Serif" font-size="10.00">OnRedirectVerifyCallback</text>
<polygon fill="none" stroke="black" points="1454,-3021.5 1454,-3042.5 1647,-3042.5 1647,-3021.5 1454,-3021.5"/>
<text text-anchor="start" x="1459" y="-3029.5" font-family="Helvetica,sans-Serif" font-size="10.00">cb ContinueAsyncRedirectChannelToURI</text>
<polygon fill="none" stroke="black" points="1454,-3000.5 1454,-3021.5 1647,-3021.5 1647,-3000.5 1454,-3000.5"/>
<text text-anchor="start" x="1481" y="-3008.5" font-family="Helvetica,sans-Serif" font-size="10.00">cb ContinueProcessResponse2</text>
</g>
<!-- ContinueProcessResponse1&#45;&gt;srcu_cpr1 -->
<g id="edge12" class="edge"><title>ContinueProcessResponse1&#45;&gt;srcu_cpr1:i</title>
<path fill="none" stroke="black" d="M1487.53,-3164.32C1516.28,-3156.47 1544.16,-3142.26 1549.92,-3116.52"/>
<polygon fill="black" stroke="black" points="1551,-3106.5 1554.4,-3116.92 1550.46,-3111.47 1549.93,-3116.44 1549.93,-3116.44 1549.93,-3116.44 1550.46,-3111.47 1545.45,-3115.96 1551,-3106.5 1551,-3106.5"/>
<text text-anchor="middle" x="1589.5" y="-3131" font-family="Helvetica,sans-Serif" font-size="10.00">mAPIRedirectToURI</text>
</g>
<!-- AsyncDoReplaceWithProxy -->
<g id="node30" class="node"><title>AsyncDoReplaceWithProxy</title>
<polygon fill="none" stroke="black" points="411.5,-2389 272.5,-2389 272.5,-2353 411.5,-2353 411.5,-2389"/>
<text text-anchor="middle" x="342" y="-2368.5" font-family="Helvetica,sans-Serif" font-size="10.00">AsyncDoReplaceWithProxy</text>
</g>
<!-- ProxyFailover&#45;&gt;AsyncDoReplaceWithProxy -->
<g id="edge40" class="edge"><title>ProxyFailover&#45;&gt;AsyncDoReplaceWithProxy</title>
<path fill="none" stroke="black" d="M619.252,-2449.21C568.097,-2434.96 477.069,-2409.61 413.314,-2391.86"/>
<polygon fill="black" stroke="black" points="403.326,-2389.08 414.167,-2387.43 408.143,-2390.42 412.96,-2391.76 412.96,-2391.76 412.96,-2391.76 408.143,-2390.42 411.752,-2396.1 403.326,-2389.08 403.326,-2389.08"/>
</g>
<!-- ContinueProcessFallback -->
<g id="node63" class="node"><title>ContinueProcessFallback</title>
<polygon fill="none" stroke="black" points="542,-2138 414,-2138 414,-2102 542,-2102 542,-2138"/>
<text text-anchor="middle" x="478" y="-2117.5" font-family="Helvetica,sans-Serif" font-size="10.00">ContinueProcessFallback</text>
</g>
<!-- ProcessFallback&#45;&gt;ContinueProcessFallback -->
<g id="edge87" class="edge"><title>ProcessFallback:o&#45;&gt;ContinueProcessFallback</title>
<path fill="none" stroke="black" d="M647,-2210C590.99,-2210 535.32,-2171.26 503.924,-2144.89"/>
<polygon fill="black" stroke="black" points="496.106,-2138.16 506.62,-2141.28 499.894,-2141.42 503.683,-2144.69 503.683,-2144.69 503.683,-2144.69 499.894,-2141.42 500.746,-2148.1 496.106,-2138.16 496.106,-2138.16"/>
</g>
<!-- ProcessNormal -->
<g id="node13" class="node"><title>ProcessNormal</title>
<polygon fill="none" stroke="black" points="1461,-2479 1377,-2479 1377,-2443 1461,-2443 1461,-2479"/>
<text text-anchor="middle" x="1419" y="-2458.5" font-family="Helvetica,sans-Serif" font-size="10.00">ProcessNormal</text>
</g>
<!-- cpr2&#45;&gt;ProcessNormal -->
<g id="edge15" class="edge"><title>cpr2:s200&#45;&gt;ProcessNormal</title>
<path fill="none" stroke="black" d="M1562,-2924.5C1633.78,-2924.5 1591.5,-2827.98 1561,-2763 1550.14,-2739.87 1530.88,-2747.45 1517,-2726 1459.54,-2637.16 1504.23,-2589.01 1452,-2497 1450.02,-2493.5 1447.61,-2490.09 1445.02,-2486.84"/>
<polygon fill="black" stroke="black" points="1438.3,-2479.18 1448.27,-2483.73 1441.59,-2482.94 1444.89,-2486.7 1444.89,-2486.7 1444.89,-2486.7 1441.59,-2482.94 1441.51,-2489.66 1438.3,-2479.18 1438.3,-2479.18"/>
</g>
<!-- cpr2&#45;&gt;ProcessNormal -->
<g id="edge17" class="edge"><title>cpr2:s206ncp&#45;&gt;ProcessNormal</title>
<path fill="none" stroke="black" d="M1351,-2882.5C1297.89,-2882.5 1319.93,-2805.34 1352,-2763 1369.33,-2740.13 1396.57,-2767.79 1414,-2745 1472.48,-2668.55 1444.39,-2543.41 1427.98,-2488.85"/>
<polygon fill="black" stroke="black" points="1424.98,-2479.21 1432.25,-2487.42 1426.46,-2483.98 1427.95,-2488.76 1427.95,-2488.76 1427.95,-2488.76 1426.46,-2483.98 1423.65,-2490.09 1424.98,-2479.21 1424.98,-2479.21"/>
</g>
<!-- cpr2&#45;&gt;ProcessNormal -->
<g id="edge26" class="edge"><title>cpr2:s304b&#45;&gt;ProcessNormal</title>
<path fill="none" stroke="black" d="M1351,-2818.5C1247.55,-2818.5 1370.98,-2753.4 1376,-2745 1425.52,-2662.21 1424.66,-2542.25 1421.36,-2489.09"/>
<polygon fill="black" stroke="black" points="1420.65,-2479.09 1425.84,-2488.75 1421,-2484.08 1421.36,-2489.07 1421.36,-2489.07 1421.36,-2489.07 1421,-2484.08 1416.87,-2489.39 1420.65,-2479.09 1420.65,-2479.09"/>
</g>
<!-- cpr2&#45;&gt;ProcessNormal -->
<g id="edge29" class="edge"><title>cpr2:default&#45;&gt;ProcessNormal</title>
<path fill="none" stroke="black" d="M1351,-2776.5C1321.72,-2776.5 1386,-2565.59 1410.24,-2489.21"/>
<polygon fill="black" stroke="black" points="1413.38,-2479.36 1414.63,-2490.25 1411.86,-2484.12 1410.34,-2488.88 1410.34,-2488.88 1410.34,-2488.88 1411.86,-2484.12 1406.05,-2487.52 1413.38,-2479.36 1413.38,-2479.36"/>
</g>
<!-- ProcessPartialContent -->
<g id="node14" class="node"><title>ProcessPartialContent</title>
<polygon fill="none" stroke="black" points="1889.5,-1033 1774.5,-1033 1774.5,-997 1889.5,-997 1889.5,-1033"/>
<text text-anchor="middle" x="1832" y="-1012.5" font-family="Helvetica,sans-Serif" font-size="10.00">ProcessPartialContent</text>
</g>
<!-- cpr2&#45;&gt;ProcessPartialContent -->
<g id="edge16" class="edge"><title>cpr2:s206cp&#45;&gt;ProcessPartialContent</title>
<path fill="none" stroke="black" d="M1562,-2903.5C1715.45,-2903.5 1826,-2834.45 1826,-2681 1826,-2681 1826,-2681 1826,-1562 1826,-1478.35 1899.21,-1278.51 1918,-1197 1929.22,-1148.33 1935.86,-1136.68 1941,-1087 1942.65,-1071.08 1950.43,-1063.93 1941,-1051 1931.06,-1037.37 1915.73,-1028.93 1899.67,-1023.74"/>
<polygon fill="black" stroke="black" points="1889.62,-1020.91 1900.47,-1019.29 1894.44,-1022.26 1899.25,-1023.62 1899.25,-1023.62 1899.25,-1023.62 1894.44,-1022.26 1898.03,-1027.95 1889.62,-1020.91 1889.62,-1020.91"/>
</g>
<!-- cpr2_s300 -->
<g id="node15" class="node"><title>cpr2_s300</title>
<polygon fill="none" stroke="black" points="1534,-2690 1534,-2711 1690,-2711 1690,-2690 1534,-2690"/>
<text text-anchor="start" x="1555" y="-2698" font-family="Helvetica,sans-Serif" font-size="10.00">AsyncProcessRedirection</text>
<polygon fill="none" stroke="black" points="1534,-2669 1534,-2690 1690,-2690 1690,-2669 1534,-2669"/>
<text text-anchor="start" x="1558.5" y="-2677" font-family="Helvetica,sans-Serif" font-size="10.00">if DoNotRender3xxBody</text>
<polygon fill="none" stroke="black" points="1534,-2648 1534,-2669 1690,-2669 1690,-2648 1534,-2648"/>
<text text-anchor="start" x="1539" y="-2656" font-family="Helvetica,sans-Serif" font-size="10.00">else ContinueProcessResponse3</text>
</g>
<!-- cpr2&#45;&gt;cpr2_s300 -->
<g id="edge18" class="edge"><title>cpr2:s300&#45;&gt;cpr2_s300</title>
<path fill="none" stroke="black" d="M1562,-2860.5C1617.8,-2860.5 1621.1,-2779 1617.32,-2725.83"/>
<polygon fill="black" stroke="black" points="1616.48,-2715.61 1621.79,-2725.21 1616.89,-2720.59 1617.3,-2725.58 1617.3,-2725.58 1617.3,-2725.58 1616.89,-2720.59 1612.82,-2725.94 1616.48,-2715.61 1616.48,-2715.61"/>
</g>
<!-- cpr2_s304 -->
<g id="node19" class="node"><title>cpr2_s304</title>
<polygon fill="none" stroke="black" points="1701,-1276 1701,-1297 1800,-1297 1800,-1276 1701,-1276"/>
<text text-anchor="start" x="1706" y="-1284" font-family="Helvetica,sans-Serif" font-size="10.00">ProcessNotModified</text>
</g>
<!-- cpr2&#45;&gt;cpr2_s304 -->
<g id="edge22" class="edge"><title>cpr2:s304nb&#45;&gt;cpr2_s304</title>
<path fill="none" stroke="black" d="M1562,-2839.5C1671.29,-2839.5 1750,-2790.29 1750,-2681 1750,-2681 1750,-2681 1750,-1359 1750,-1344.65 1750,-1328.67 1750,-1315.51"/>
<polygon fill="black" stroke="black" points="1750,-1305.22 1754.5,-1315.22 1750,-1310.22 1750,-1315.22 1750,-1315.22 1750,-1315.22 1750,-1310.22 1745.5,-1315.22 1750,-1305.22 1750,-1305.22"/>
</g>
<!-- ProcessAuthentication -->
<g id="node22" class="node"><title>ProcessAuthentication</title>
<polygon fill="none" stroke="black" points="1324.5,-2698 1209.5,-2698 1209.5,-2662 1324.5,-2662 1324.5,-2698"/>
<text text-anchor="middle" x="1267" y="-2677.5" font-family="Helvetica,sans-Serif" font-size="10.00">ProcessAuthentication</text>
</g>
<!-- cpr2&#45;&gt;ProcessAuthentication -->
<g id="edge27" class="edge"><title>cpr2:s401&#45;&gt;ProcessAuthentication</title>
<path fill="none" stroke="black" d="M1351,-2797.5C1307.16,-2797.5 1283.92,-2742.55 1273.66,-2708.13"/>
<polygon fill="black" stroke="black" points="1270.88,-2698.19 1277.91,-2706.61 1272.23,-2703.01 1273.57,-2707.82 1273.57,-2707.82 1273.57,-2707.82 1272.23,-2703.01 1269.24,-2709.03 1270.88,-2698.19 1270.88,-2698.19"/>
</g>
<!-- srcu_cpr1&#45;&gt;ContinueAsyncRedirectChannelToURI -->
<g id="edge13" class="edge"><title>srcu_cpr1:car&#45;&gt;ContinueAsyncRedirectChannelToURI</title>
<path fill="none" stroke="black" d="M1648,-3031.5C1769.89,-3031.5 1864,-2984.39 1864,-2862.5 1864,-2862.5 1864,-2862.5 1864,-1483.5 1864,-1385.81 1861.42,-1355.49 1816,-1269 1800.79,-1240.04 1790.7,-1236.44 1766,-1215 1755.38,-1205.79 1748.87,-1207.9 1740,-1197 1711.97,-1162.55 1735.18,-1133.36 1701,-1105 1688.28,-1094.45 1495.78,-1057.49 1372.39,-1034.65"/>
<polygon fill="black" stroke="black" points="1362.53,-1032.82 1373.18,-1030.22 1367.44,-1033.73 1372.36,-1034.64 1372.36,-1034.64 1372.36,-1034.64 1367.44,-1033.73 1371.54,-1039.07 1362.53,-1032.82 1362.53,-1032.82"/>
</g>
<!-- srcu_cpr1&#45;&gt;cpr2 -->
<g id="edge14" class="edge"><title>srcu_cpr1:o&#45;&gt;cpr2:i</title>
<path fill="none" stroke="black" d="M1453,-3010.5C1432.22,-3010.5 1450.3,-2988.19 1455.63,-2966.61"/>
<polygon fill="black" stroke="black" points="1457,-2956.5 1460.12,-2967.01 1456.33,-2961.45 1455.66,-2966.41 1455.66,-2966.41 1455.66,-2966.41 1456.33,-2961.45 1451.2,-2965.81 1457,-2956.5 1457,-2956.5"/>
</g>
<!-- wfrc_pn -->
<g id="node24" class="node"><title>wfrc_pn</title>
<polygon fill="none" stroke="black" points="1134,-2371 1134,-2392 1375,-2392 1375,-2371 1134,-2371"/>
<text text-anchor="start" x="1139" y="-2379" font-family="Helvetica,sans-Serif" font-size="10.00">ProcessFallback (waitingForRedirectCallback==true)</text>
<polygon fill="none" stroke="black" points="1134,-2350 1134,-2371 1375,-2371 1375,-2350 1134,-2350"/>
<text text-anchor="start" x="1194" y="-2358" font-family="Helvetica,sans-Serif" font-size="10.00">cb ContinueProcessNormal</text>
</g>
<!-- ProcessNormal&#45;&gt;wfrc_pn -->
<g id="edge31" class="edge"><title>ProcessNormal&#45;&gt;wfrc_pn:pf</title>
<path fill="none" stroke="black" d="M1376.77,-2460.14C1331.5,-2457.98 1264.89,-2447.22 1255.99,-2403.23"/>
<polygon fill="black" stroke="black" points="1255,-2393 1260.45,-2402.52 1255.48,-2397.98 1255.97,-2402.95 1255.97,-2402.95 1255.97,-2402.95 1255.48,-2397.98 1251.49,-2403.39 1255,-2393 1255,-2393"/>
<text text-anchor="middle" x="1292.5" y="-2417" font-family="Helvetica,sans-Serif" font-size="10.00">!succeeded</text>
</g>
<!-- ContinueProcessNormal -->
<g id="node25" class="node"><title>ContinueProcessNormal</title>
<polygon fill="none" stroke="black" points="1414.5,-2260 1291.5,-2260 1291.5,-2224 1414.5,-2224 1414.5,-2260"/>
<text text-anchor="middle" x="1353" y="-2239.5" font-family="Helvetica,sans-Serif" font-size="10.00">ContinueProcessNormal</text>
</g>
<!-- ProcessNormal&#45;&gt;ContinueProcessNormal -->
<g id="edge34" class="edge"><title>ProcessNormal&#45;&gt;ContinueProcessNormal</title>
<path fill="none" stroke="black" d="M1415.42,-2442.84C1410.59,-2420.39 1401.38,-2379.91 1391,-2346 1382.94,-2319.69 1371.89,-2290.29 1363.78,-2269.66"/>
<polygon fill="black" stroke="black" points="1360.06,-2260.29 1367.93,-2267.93 1361.9,-2264.94 1363.75,-2269.59 1363.75,-2269.59 1363.75,-2269.59 1361.9,-2264.94 1359.57,-2271.25 1360.06,-2260.29 1360.06,-2260.29"/>
<text text-anchor="middle" x="1429" y="-2368.5" font-family="Helvetica,sans-Serif" font-size="10.00">succeeded</text>
</g>
<!-- ReadFromCache -->
<g id="node49" class="node"><title>ReadFromCache</title>
<polygon fill="none" stroke="black" points="1453.5,-613 1362.5,-613 1362.5,-577 1453.5,-577 1453.5,-613"/>
<text text-anchor="middle" x="1408" y="-592.5" font-family="Helvetica,sans-Serif" font-size="10.00">ReadFromCache</text>
</g>
<!-- ProcessPartialContent&#45;&gt;ReadFromCache -->
<g id="edge85" class="edge"><title>ProcessPartialContent&#45;&gt;ReadFromCache</title>
<path fill="none" stroke="black" d="M1823.2,-996.78C1791.51,-936.559 1676.97,-733.502 1523,-631 1505.24,-619.177 1483.33,-611.215 1463.41,-605.917"/>
<polygon fill="black" stroke="black" points="1453.51,-603.453 1464.3,-601.502 1458.36,-604.661 1463.22,-605.869 1463.22,-605.869 1463.22,-605.869 1458.36,-604.661 1462.13,-610.236 1453.51,-603.453 1453.51,-603.453"/>
</g>
<!-- ProcessPartialContent&#45;&gt;Cancel -->
<g id="edge83" class="edge"><title>ProcessPartialContent&#45;&gt;Cancel</title>
<path fill="none" stroke="black" d="M1774.41,-1009.75C1720.79,-1004.85 1645.55,-995.308 1621,-979 1613.7,-974.152 1607.88,-966.773 1603.43,-959.335"/>
<polygon fill="black" stroke="black" points="1598.51,-950.069 1607.18,-956.793 1600.86,-954.486 1603.2,-958.902 1603.2,-958.902 1603.2,-958.902 1600.86,-954.486 1599.23,-961.012 1598.51,-950.069 1598.51,-950.069"/>
<text text-anchor="middle" x="1711.5" y="-971" font-family="Helvetica,sans-Serif" font-size="10.00">NS_ERROR_CORRUPTED_CONTENT</text>
</g>
<!-- pump mCachePump -->
<g id="node62" class="node"><title>pump mCachePump</title>
<polygon fill="none" stroke="black" points="1888,-523 1782,-523 1782,-487 1888,-487 1888,-523"/>
<text text-anchor="middle" x="1835" y="-502.5" font-family="Helvetica,sans-Serif" font-size="10.00">pump mCachePump</text>
</g>
<!-- ProcessPartialContent&#45;&gt;pump mCachePump -->
<g id="edge84" class="edge"><title>ProcessPartialContent&#45;&gt;pump mCachePump</title>
<path fill="none" stroke="black" d="M1837.08,-996.79C1841.43,-980.508 1847,-955.31 1847,-933 1847,-933 1847,-933 1847,-594 1847,-573.442 1843.75,-550.428 1840.63,-533.093"/>
<polygon fill="black" stroke="black" points="1838.73,-523.105 1845.02,-532.092 1839.66,-528.018 1840.59,-532.93 1840.59,-532.93 1840.59,-532.93 1839.66,-528.018 1836.17,-533.769 1838.73,-523.105 1838.73,-523.105"/>
<text text-anchor="middle" x="1906" y="-748.5" font-family="Helvetica,sans-Serif" font-size="10.00">mConcurrentCacheAccess</text>
</g>
<!-- AsyncProcessRedirection -->
<g id="node16" class="node"><title>AsyncProcessRedirection</title>
<polygon fill="none" stroke="black" points="1023,-408 893,-408 893,-372 1023,-372 1023,-408"/>
<text text-anchor="middle" x="958" y="-387.5" font-family="Helvetica,sans-Serif" font-size="10.00">AsyncProcessRedirection</text>
</g>
<!-- cpr2_s300&#45;&gt;AsyncProcessRedirection -->
<g id="edge19" class="edge"><title>cpr2_s300:apr:e&#45;&gt;AsyncProcessRedirection</title>
<path fill="none" stroke="black" d="M1691,-2701C1753.26,-2701 1712,-2624.76 1712,-2562.5 1712,-2562.5 1712,-2562.5 1712,-1639.5 1712,-1291.32 1217.71,-1703.92 943,-1490 804.589,-1382.22 804.098,-1272.57 856,-1105 877.152,-1036.71 920.458,-1041.03 956,-979 1017.49,-871.686 1044,-838.68 1044,-715 1044,-715 1044,-715 1044,-504 1044,-467.453 1015.16,-435.341 990.885,-414.783"/>
<polygon fill="black" stroke="black" points="982.875,-408.264 993.471,-411.086 986.753,-411.42 990.631,-414.576 990.631,-414.576 990.631,-414.576 986.753,-411.42 987.79,-418.067 982.875,-408.264 982.875,-408.264"/>
</g>
<!-- DoNotifyListener -->
<g id="node17" class="node"><title>DoNotifyListener</title>
<polygon fill="none" stroke="black" points="1383,-307.5 1293,-307.5 1293,-271.5 1383,-271.5 1383,-307.5"/>
<text text-anchor="middle" x="1338" y="-287" font-family="Helvetica,sans-Serif" font-size="10.00">DoNotifyListener</text>
</g>
<!-- cpr2_s300&#45;&gt;DoNotifyListener -->
<g id="edge20" class="edge"><title>cpr2_s300:dnr&#45;&gt;DoNotifyListener</title>
<path fill="none" stroke="black" d="M1691,-2679C1706.34,-2679 1691.7,-2659.75 1690,-2644.5 1685.89,-2607.6 1674,-2599.63 1674,-2562.5 1674,-2562.5 1674,-2562.5 1674,-1639.5 1674,-1533.63 2031,-1429.87 2031,-1324 2031,-1324 2031,-1324 2031,-389 2031,-324.751 1558.07,-299.434 1393.58,-292.571"/>
<polygon fill="black" stroke="black" points="1383.2,-292.146 1393.38,-288.059 1388.2,-292.351 1393.19,-292.556 1393.19,-292.556 1393.19,-292.556 1388.2,-292.351 1393.01,-297.052 1383.2,-292.146 1383.2,-292.146"/>
</g>
<!-- ContinueProcessResponse3 -->
<g id="node18" class="node"><title>ContinueProcessResponse3</title>
<polygon fill="none" stroke="black" points="1645.5,-2579.5 1504.5,-2579.5 1504.5,-2543.5 1645.5,-2543.5 1645.5,-2579.5"/>
<text text-anchor="middle" x="1575" y="-2559" font-family="Helvetica,sans-Serif" font-size="10.00">ContinueProcessResponse3</text>
</g>
<!-- cpr2_s300&#45;&gt;ContinueProcessResponse3 -->
<g id="edge21" class="edge"><title>cpr2_s300:cpr3&#45;&gt;ContinueProcessResponse3</title>
<path fill="none" stroke="black" d="M1612,-2647C1612,-2626.12 1602.4,-2604.58 1592.98,-2588.48"/>
<polygon fill="black" stroke="black" points="1587.53,-2579.67 1596.62,-2585.81 1590.16,-2583.92 1592.79,-2588.17 1592.79,-2588.17 1592.79,-2588.17 1590.16,-2583.92 1588.96,-2590.54 1587.53,-2579.67 1587.53,-2579.67"/>
</g>
<!-- wfrc_apr -->
<g id="node72" class="node"><title>wfrc_apr</title>
<polygon fill="none" stroke="black" points="461,-299.5 461,-320.5 702,-320.5 702,-299.5 461,-299.5"/>
<text text-anchor="start" x="466" y="-307.5" font-family="Helvetica,sans-Serif" font-size="10.00">ProcessFallback (waitingForRedirectCallback==true)</text>
<polygon fill="none" stroke="black" points="461,-278.5 461,-299.5 702,-299.5 702,-278.5 461,-278.5"/>
<text text-anchor="start" x="526.5" y="-286.5" font-family="Helvetica,sans-Serif" font-size="10.00">WaitForRedirectCallback</text>
<polygon fill="none" stroke="black" points="461,-257.5 461,-278.5 702,-278.5 702,-257.5 461,-257.5"/>
<text text-anchor="start" x="524.5" y="-265.5" font-family="Helvetica,sans-Serif" font-size="10.00">OnRedirectVerifyCallback</text>
</g>
<!-- AsyncProcessRedirection&#45;&gt;wfrc_apr -->
<g id="edge109" class="edge"><title>AsyncProcessRedirection&#45;&gt;wfrc_apr:pf</title>
<path fill="none" stroke="black" d="M902.331,-371.925C883.776,-366.23 862.996,-359.846 844,-354 784.748,-335.764 770.124,-313.133 713.302,-310.712"/>
<polygon fill="black" stroke="black" points="703,-310.5 713.091,-306.207 707.999,-310.603 712.998,-310.706 712.998,-310.706 712.998,-310.706 707.999,-310.603 712.905,-315.205 703,-310.5 703,-310.5"/>
<text text-anchor="middle" x="886.5" y="-346" font-family="Helvetica,sans-Serif" font-size="10.00">mApplicationCache</text>
</g>
<!-- ContinueProcessRedirectionAfterFallback -->
<g id="node73" class="node"><title>ContinueProcessRedirectionAfterFallback</title>
<polygon fill="none" stroke="black" points="681.5,-217 482.5,-217 482.5,-181 681.5,-181 681.5,-217"/>
<text text-anchor="middle" x="582" y="-196.5" font-family="Helvetica,sans-Serif" font-size="10.00">ContinueProcessRedirectionAfterFallback</text>
</g>
<!-- AsyncProcessRedirection&#45;&gt;ContinueProcessRedirectionAfterFallback -->
<g id="edge112" class="edge"><title>AsyncProcessRedirection&#45;&gt;ContinueProcessRedirectionAfterFallback</title>
<path fill="none" stroke="black" d="M950.41,-371.864C945.463,-362.319 938.213,-350.819 929,-343 853.286,-278.743 744.736,-240.312 669.282,-219.731"/>
<polygon fill="black" stroke="black" points="659.325,-217.066 670.149,-215.305 664.155,-218.359 668.985,-219.652 668.985,-219.652 668.985,-219.652 664.155,-218.359 667.822,-223.999 659.325,-217.066 659.325,-217.066"/>
</g>
<!-- ContinueProcessResponse3&#45;&gt;ProcessNormal -->
<g id="edge30" class="edge"><title>ContinueProcessResponse3&#45;&gt;ProcessNormal</title>
<path fill="none" stroke="black" d="M1554.45,-2543.46C1537.69,-2529.99 1513.09,-2511.15 1490,-2497 1482.42,-2492.36 1474.14,-2487.83 1466,-2483.65"/>
<polygon fill="black" stroke="black" points="1456.91,-2479.09 1467.87,-2479.55 1461.38,-2481.33 1465.85,-2483.57 1465.85,-2483.57 1465.85,-2483.57 1461.38,-2481.33 1463.83,-2487.59 1456.91,-2479.09 1456.91,-2479.09"/>
</g>
<!-- srcu_cpr2 -->
<g id="node20" class="node"><title>srcu_cpr2</title>
<polygon fill="none" stroke="black" points="1492,-1172 1492,-1193 1685,-1193 1685,-1172 1492,-1172"/>
<text text-anchor="start" x="1526.5" y="-1180" font-family="Helvetica,sans-Serif" font-size="10.00">StartRedirectChannelToURI</text>
<polygon fill="none" stroke="black" points="1492,-1151 1492,-1172 1685,-1172 1685,-1151 1492,-1151"/>
<text text-anchor="start" x="1533.5" y="-1159" font-family="Helvetica,sans-Serif" font-size="10.00">WaitForRedirectCallback</text>
<polygon fill="none" stroke="black" points="1492,-1130 1492,-1151 1685,-1151 1685,-1130 1492,-1130"/>
<text text-anchor="start" x="1531.5" y="-1138" font-family="Helvetica,sans-Serif" font-size="10.00">OnRedirectVerifyCallback</text>
<polygon fill="none" stroke="black" points="1492,-1109 1492,-1130 1685,-1130 1685,-1109 1492,-1109"/>
<text text-anchor="start" x="1497" y="-1117" font-family="Helvetica,sans-Serif" font-size="10.00">cb ContinueAsyncRedirectChannelToURI</text>
</g>
<!-- cpr2_s304&#45;&gt;srcu_cpr2 -->
<g id="edge24" class="edge"><title>cpr2_s304:pnm&#45;&gt;srcu_cpr2:i</title>
<path fill="none" stroke="black" stroke-dasharray="1,5" d="M1736.78,-1275.74C1728.3,-1269.6 1717.89,-1260.87 1711,-1251 1695.02,-1228.1 1712.17,-1193.78 1696.01,-1185.07"/>
<polygon fill="black" stroke="black" points="1686,-1183 1696.7,-1180.62 1690.9,-1184.01 1695.79,-1185.02 1695.79,-1185.02 1695.79,-1185.02 1690.9,-1184.01 1694.88,-1189.43 1686,-1183 1686,-1183"/>
<text text-anchor="middle" x="1738.5" y="-1230.5" font-family="Helvetica,sans-Serif" font-size="10.00">NS_FAILED</text>
</g>
<!-- ProcessNotModified -->
<g id="node21" class="node"><title>ProcessNotModified</title>
<polygon fill="none" stroke="black" points="1939.5,-1087 1834.5,-1087 1834.5,-1051 1939.5,-1051 1939.5,-1087"/>
<text text-anchor="middle" x="1887" y="-1066.5" font-family="Helvetica,sans-Serif" font-size="10.00">ProcessNotModified</text>
</g>
<!-- cpr2_s304&#45;&gt;ProcessNotModified -->
<g id="edge23" class="edge"><title>cpr2_s304:pnm&#45;&gt;ProcessNotModified</title>
<path fill="none" stroke="black" d="M1783.7,-1275.95C1819.07,-1264.2 1873.65,-1239.95 1898,-1197 1915.52,-1166.1 1906.75,-1124.03 1897.76,-1096.94"/>
<polygon fill="black" stroke="black" points="1894.37,-1087.34 1901.95,-1095.27 1896.03,-1092.05 1897.7,-1096.77 1897.7,-1096.77 1897.7,-1096.77 1896.03,-1092.05 1893.46,-1098.27 1894.37,-1087.34 1894.37,-1087.34"/>
</g>
<!-- srcu_cpr2&#45;&gt;ContinueAsyncRedirectChannelToURI -->
<g id="edge25" class="edge"><title>srcu_cpr2:car&#45;&gt;ContinueAsyncRedirectChannelToURI</title>
<path fill="none" stroke="black" d="M1491,-1119C1469.79,-1119 1442.53,-1061.32 1424,-1051 1414.09,-1045.48 1394.49,-1039.87 1372.51,-1034.81"/>
<polygon fill="black" stroke="black" points="1362.62,-1032.6 1373.36,-1030.39 1367.5,-1033.69 1372.38,-1034.78 1372.38,-1034.78 1372.38,-1034.78 1367.5,-1033.69 1371.4,-1039.17 1362.62,-1032.6 1362.62,-1032.6"/>
</g>
<!-- ProcessNotModified&#45;&gt;ReadFromCache -->
<g id="edge86" class="edge"><title>ProcessNotModified&#45;&gt;ReadFromCache</title>
<path fill="none" stroke="black" d="M1834.28,-1052.67C1832.16,-1052.1 1830.06,-1051.54 1828,-1051 1681.77,-1012.7 1509,-1084.17 1509,-933 1509,-933 1509,-933 1509,-677 1509,-649.894 1486.59,-630.351 1462.88,-617.261"/>
<polygon fill="black" stroke="black" points="1453.77,-612.558 1464.72,-613.149 1458.21,-614.852 1462.66,-617.147 1462.66,-617.147 1462.66,-617.147 1458.21,-614.852 1460.59,-621.145 1453.77,-612.558 1453.77,-612.558"/>
</g>
<!-- mTransactionPump::Suspend() -->
<g id="node23" class="node"><title>mTransactionPump::Suspend()</title>
<polygon fill="none" stroke="black" points="1334,-2579.5 1182,-2579.5 1182,-2543.5 1334,-2543.5 1334,-2579.5"/>
<text text-anchor="middle" x="1258" y="-2559" font-family="Helvetica,sans-Serif" font-size="10.00">mTransactionPump::Suspend()</text>
</g>
<!-- ProcessAuthentication&#45;&gt;mTransactionPump::Suspend() -->
<g id="edge28" class="edge"><title>ProcessAuthentication&#45;&gt;mTransactionPump::Suspend()</title>
<path fill="none" stroke="black" d="M1265.67,-2661.81C1264.21,-2642.88 1261.84,-2612.18 1260.12,-2589.92"/>
<polygon fill="black" stroke="black" points="1259.33,-2579.76 1264.59,-2589.38 1259.72,-2584.75 1260.1,-2589.73 1260.1,-2589.73 1260.1,-2589.73 1259.72,-2584.75 1255.62,-2590.08 1259.33,-2579.76 1259.33,-2579.76"/>
</g>
<!-- wfrc_pn&#45;&gt;ProcessFallback -->
<g id="edge32" class="edge"><title>wfrc_pn:pf:e&#45;&gt;ProcessFallback:entry</title>
<path fill="none" stroke="black" d="M1376,-2382C1392.01,-2382 1385.95,-2357.67 1375,-2346 1334.38,-2302.7 919.084,-2295.57 829.091,-2295.03"/>
<polygon fill="black" stroke="black" points="819,-2295 829.015,-2290.53 824,-2295.02 829,-2295.03 829,-2295.03 829,-2295.03 824,-2295.02 828.984,-2299.53 819,-2295 819,-2295"/>
</g>
<!-- wfrc_pn&#45;&gt;ContinueProcessNormal -->
<g id="edge33" class="edge"><title>wfrc_pn:o&#45;&gt;ContinueProcessNormal</title>
<path fill="none" stroke="black" d="M1255,-2349C1255,-2313.16 1285.59,-2284.28 1312.59,-2265.77"/>
<polygon fill="black" stroke="black" points="1321.18,-2260.13 1315.29,-2269.38 1317,-2262.87 1312.82,-2265.61 1312.82,-2265.61 1312.82,-2265.61 1317,-2262.87 1310.35,-2261.85 1321.18,-2260.13 1321.18,-2260.13"/>
</g>
<!-- ContinueProcessNormal&#45;&gt;CallOnStartRequest -->
<g id="edge35" class="edge"><title>ContinueProcessNormal&#45;&gt;CallOnStartRequest</title>
<path fill="none" stroke="black" d="M1311.62,-2223.93C1259.25,-2202.34 1169.12,-2165.17 1112.68,-2141.9"/>
<polygon fill="black" stroke="black" points="1103.24,-2138.01 1114.2,-2137.66 1107.86,-2139.91 1112.49,-2141.82 1112.49,-2141.82 1112.49,-2141.82 1107.86,-2139.91 1110.77,-2145.98 1103.24,-2138.01 1103.24,-2138.01"/>
</g>
<!-- ContinueProcessNormal&#45;&gt;DoNotifyListener -->
<g id="edge36" class="edge"><title>ContinueProcessNormal&#45;&gt;DoNotifyListener</title>
<path fill="none" stroke="black" stroke-dasharray="1,5" d="M1414.76,-2240.87C1498.03,-2237.08 1636,-2216.39 1636,-2121 1636,-2121 1636,-2121 1636,-1639.5 1636,-1611.4 1645.08,-1604.82 1660,-1581 1747.39,-1441.5 1822.31,-1446.16 1907,-1305 1964.22,-1209.63 1993,-1181.22 1993,-1070 1993,-1070 1993,-1070 1993,-389 1993,-328.579 1551.52,-300.977 1393.46,-293.031"/>
<polygon fill="black" stroke="black" points="1383.02,-292.514 1393.23,-288.514 1388.01,-292.761 1393.01,-293.009 1393.01,-293.009 1393.01,-293.009 1388.01,-292.761 1392.79,-297.503 1383.02,-292.514 1383.02,-292.514"/>
<text text-anchor="middle" x="1910.5" y="-1357.5" font-family="Helvetica,sans-Serif" font-size="10.00">NS_FAILED</text>
</g>
<!-- Connect -->
<g id="node26" class="node"><title>Connect</title>
<polygon fill="none" stroke="black" points="521,-1461 467,-1461 467,-1425 521,-1425 521,-1461"/>
<text text-anchor="middle" x="494" y="-1440.5" font-family="Helvetica,sans-Serif" font-size="10.00">Connect</text>
</g>
<!-- HandleAsyncRedirectChannelToHttps -->
<g id="node27" class="node"><title>HandleAsyncRedirectChannelToHttps</title>
<polygon fill="none" stroke="black" points="1095.5,-1378 912.5,-1378 912.5,-1342 1095.5,-1342 1095.5,-1378"/>
<text text-anchor="middle" x="1004" y="-1357.5" font-family="Helvetica,sans-Serif" font-size="10.00">HandleAsyncRedirectChannelToHttps</text>
</g>
<!-- Connect&#45;&gt;HandleAsyncRedirectChannelToHttps -->
<g id="edge37" class="edge"><title>Connect&#45;&gt;HandleAsyncRedirectChannelToHttps</title>
<path fill="none" stroke="black" d="M521.06,-1437.7C591.415,-1426.53 782.91,-1396.11 902.552,-1377.11"/>
<polygon fill="black" stroke="black" points="912.467,-1375.54 903.297,-1381.55 907.529,-1376.32 902.591,-1377.11 902.591,-1377.11 902.591,-1377.11 907.529,-1376.32 901.885,-1372.66 912.467,-1375.54 912.467,-1375.54"/>
<text text-anchor="middle" x="839" y="-1399" font-family="Helvetica,sans-Serif" font-size="10.00">NS_ShouldSecureUpgrade</text>
</g>
<!-- OpenCacheEntry -->
<g id="node28" class="node"><title>OpenCacheEntry</title>
<polygon fill="none" stroke="black" points="617,-1378 525,-1378 525,-1342 617,-1342 617,-1378"/>
<text text-anchor="middle" x="571" y="-1357.5" font-family="Helvetica,sans-Serif" font-size="10.00">OpenCacheEntry</text>
</g>
<!-- Connect&#45;&gt;OpenCacheEntry -->
<g id="edge38" class="edge"><title>Connect&#45;&gt;OpenCacheEntry</title>
<path fill="none" stroke="black" d="M510.33,-1424.82C521.151,-1413.44 535.517,-1398.33 547.553,-1385.66"/>
<polygon fill="black" stroke="black" points="554.694,-1378.15 551.065,-1388.5 551.249,-1381.78 547.804,-1385.4 547.804,-1385.4 547.804,-1385.4 551.249,-1381.78 544.542,-1382.3 554.694,-1378.15 554.694,-1378.15"/>
</g>
<!-- TriggerNetwork -->
<g id="node29" class="node"><title>TriggerNetwork</title>
<polygon fill="none" stroke="black" points="684.5,-1033 601.5,-1033 601.5,-997 684.5,-997 684.5,-1033"/>
<text text-anchor="middle" x="643" y="-1012.5" font-family="Helvetica,sans-Serif" font-size="10.00">TriggerNetwork</text>
</g>
<!-- Connect&#45;&gt;TriggerNetwork -->
<g id="edge39" class="edge"><title>Connect&#45;&gt;TriggerNetwork</title>
<path fill="none" stroke="black" d="M489.937,-1424.73C486.456,-1408.4 482,-1383.18 482,-1361 482,-1361 482,-1361 482,-1150 482,-1091.99 544.507,-1054.25 591.625,-1034.04"/>
<polygon fill="black" stroke="black" points="601.119,-1030.11 593.6,-1038.09 596.499,-1032.02 591.879,-1033.93 591.879,-1033.93 591.879,-1033.93 596.499,-1032.02 590.159,-1029.77 601.119,-1030.11 601.119,-1030.11"/>
</g>
<!-- HandleAsyncFallback -->
<g id="node67" class="node"><title>HandleAsyncFallback</title>
<polygon fill="none" stroke="black" points="570,-613 458,-613 458,-577 570,-577 570,-613"/>
<text text-anchor="middle" x="514" y="-592.5" font-family="Helvetica,sans-Serif" font-size="10.00">HandleAsyncFallback</text>
</g>
<!-- Connect&#45;&gt;HandleAsyncFallback -->
<g id="edge98" class="edge"><title>Connect&#45;&gt;HandleAsyncFallback</title>
<path fill="none" stroke="black" stroke-dasharray="1,5" d="M486.677,-1424.74C461.508,-1364.57 378.073,-1158.06 341,-979 330.232,-926.989 336.815,-912.675 330,-860 325.838,-827.827 318,-820.441 318,-788 318,-788 318,-788 318,-677 318,-619.516 390.9,-602.02 447.781,-597.118"/>
<polygon fill="black" stroke="black" points="457.834,-596.365 448.198,-601.6 452.848,-596.739 447.862,-597.112 447.862,-597.112 447.862,-597.112 452.848,-596.739 447.526,-592.625 457.834,-596.365 457.834,-596.365"/>
<text text-anchor="middle" x="447" y="-971" font-family="Helvetica,sans-Serif" font-size="10.00">NS_FAILED and LOAD_ONLY_FROM_CACHE</text>
</g>
<!-- HandleAsyncRedirectChannelToHttps&#45;&gt;ContinueAsyncRedirectChannelToURI -->
<g id="edge44" class="edge"><title>HandleAsyncRedirectChannelToHttps&#45;&gt;ContinueAsyncRedirectChannelToURI</title>
<path fill="none" stroke="black" stroke-dasharray="1,5" d="M1040.28,-1341.99C1056.21,-1332.95 1073.98,-1320.48 1086,-1305 1143.68,-1230.74 1100.2,-1181.41 1155,-1105 1174.79,-1077.41 1205.52,-1054.25 1230.24,-1038.47"/>
<polygon fill="black" stroke="black" points="1239.04,-1033 1232.93,-1042.1 1234.8,-1035.64 1230.55,-1038.28 1230.55,-1038.28 1230.55,-1038.28 1234.8,-1035.64 1228.18,-1034.46 1239.04,-1033 1239.04,-1033"/>
<text text-anchor="middle" x="1148.5" y="-1230.5" font-family="Helvetica,sans-Serif" font-size="10.00">NS_FAILED</text>
</g>
<!-- StartRedirectChannelToHttps -->
<g id="node34" class="node"><title>StartRedirectChannelToHttps</title>
<polygon fill="none" stroke="black" points="1077,-1305 931,-1305 931,-1269 1077,-1269 1077,-1305"/>
<text text-anchor="middle" x="1004" y="-1284.5" font-family="Helvetica,sans-Serif" font-size="10.00">StartRedirectChannelToHttps</text>
</g>
<!-- HandleAsyncRedirectChannelToHttps&#45;&gt;StartRedirectChannelToHttps -->
<g id="edge43" class="edge"><title>HandleAsyncRedirectChannelToHttps&#45;&gt;StartRedirectChannelToHttps</title>
<path fill="none" stroke="black" d="M1004,-1341.81C1004,-1333.79 1004,-1324.05 1004,-1315.07"/>
<polygon fill="black" stroke="black" points="1004,-1305.03 1008.5,-1315.03 1004,-1310.03 1004,-1315.03 1004,-1315.03 1004,-1315.03 1004,-1310.03 999.5,-1315.03 1004,-1305.03 1004,-1305.03"/>
</g>
<!-- OnCacheEntryAvailable -->
<g id="node64" class="node"><title>OnCacheEntryAvailable</title>
<polygon fill="none" stroke="black" points="631.5,-1305 510.5,-1305 510.5,-1269 631.5,-1269 631.5,-1305"/>
<text text-anchor="middle" x="571" y="-1284.5" font-family="Helvetica,sans-Serif" font-size="10.00">OnCacheEntryAvailable</text>
</g>
<!-- OpenCacheEntry&#45;&gt;OnCacheEntryAvailable -->
<g id="edge89" class="edge"><title>OpenCacheEntry&#45;&gt;OnCacheEntryAvailable</title>
<path fill="none" stroke="black" stroke-dasharray="5,2" d="M571,-1341.81C571,-1333.79 571,-1324.05 571,-1315.07"/>
<polygon fill="black" stroke="black" points="571,-1305.03 575.5,-1315.03 571,-1310.03 571,-1315.03 571,-1315.03 571,-1315.03 571,-1310.03 566.5,-1315.03 571,-1305.03 571,-1305.03"/>
</g>
<!-- MaybeRaceCacheWithNetwork -->
<g id="node65" class="node"><title>MaybeRaceCacheWithNetwork</title>
<polygon fill="none" stroke="black" points="740.5,-1251 585.5,-1251 585.5,-1215 740.5,-1215 740.5,-1251"/>
<text text-anchor="middle" x="663" y="-1230.5" font-family="Helvetica,sans-Serif" font-size="10.00">MaybeRaceCacheWithNetwork</text>
</g>
<!-- OpenCacheEntry&#45;&gt;MaybeRaceCacheWithNetwork -->
<g id="edge90" class="edge"><title>OpenCacheEntry&#45;&gt;MaybeRaceCacheWithNetwork</title>
<path fill="none" stroke="black" d="M600.223,-1341.9C613.991,-1332.55 629.63,-1319.84 640,-1305 649.109,-1291.97 654.77,-1275.11 658.196,-1261.1"/>
<polygon fill="black" stroke="black" points="660.4,-1251.04 662.654,-1261.77 659.329,-1255.93 658.259,-1260.81 658.259,-1260.81 658.259,-1260.81 659.329,-1255.93 653.863,-1259.85 660.4,-1251.04 660.4,-1251.04"/>
</g>
<!-- TryHSTSPriming -->
<g id="node42" class="node"><title>TryHSTSPriming</title>
<polygon fill="none" stroke="black" points="695.5,-950 604.5,-950 604.5,-914 695.5,-914 695.5,-950"/>
<text text-anchor="middle" x="650" y="-929.5" font-family="Helvetica,sans-Serif" font-size="10.00">TryHSTSPriming</text>
</g>
<!-- TriggerNetwork&#45;&gt;TryHSTSPriming -->
<g id="edge56" class="edge"><title>TriggerNetwork&#45;&gt;TryHSTSPriming</title>
<path fill="none" stroke="black" d="M644.485,-996.822C645.403,-986.19 646.603,-972.306 647.649,-960.204"/>
<polygon fill="black" stroke="black" points="648.518,-950.153 652.14,-960.504 648.087,-955.135 647.657,-960.116 647.657,-960.116 647.657,-960.116 648.087,-955.135 643.173,-959.729 648.518,-950.153 648.518,-950.153"/>
</g>
<!-- srcu_adrwp -->
<g id="node57" class="node"><title>srcu_adrwp</title>
<polygon fill="none" stroke="black" points="68,-2252 68,-2273 226,-2273 226,-2252 68,-2252"/>
<text text-anchor="start" x="92" y="-2260" font-family="Helvetica,sans-Serif" font-size="10.00">WaitForRedirectCallback</text>
<polygon fill="none" stroke="black" points="68,-2231 68,-2252 226,-2252 226,-2231 68,-2231"/>
<text text-anchor="start" x="90" y="-2239" font-family="Helvetica,sans-Serif" font-size="10.00">OnRedirectVerifyCallback</text>
<polygon fill="none" stroke="black" points="68,-2210 68,-2231 226,-2231 226,-2210 68,-2210"/>
<text text-anchor="start" x="73" y="-2218" font-family="Helvetica,sans-Serif" font-size="10.00">cb ContinueDoReplaceWithProxy</text>
</g>
<!-- AsyncDoReplaceWithProxy&#45;&gt;srcu_adrwp -->
<g id="edge76" class="edge"><title>AsyncDoReplaceWithProxy&#45;&gt;srcu_adrwp:w</title>
<path fill="none" stroke="black" d="M333.597,-2352.81C318.537,-2324.57 284.086,-2270.78 237.193,-2263.76"/>
<polygon fill="black" stroke="black" points="227,-2263 237.308,-2259.26 231.986,-2263.37 236.972,-2263.75 236.972,-2263.75 236.972,-2263.75 231.986,-2263.37 236.637,-2268.23 227,-2263 227,-2263"/>
</g>
<!-- OnProxyAvailable -->
<g id="node31" class="node"><title>OnProxyAvailable</title>
<polygon fill="none" stroke="black" points="377.5,-1846 282.5,-1846 282.5,-1810 377.5,-1810 377.5,-1846"/>
<text text-anchor="middle" x="330" y="-1825.5" font-family="Helvetica,sans-Serif" font-size="10.00">OnProxyAvailable</text>
</g>
<!-- BeginConnect -->
<g id="node32" class="node"><title>BeginConnect</title>
<polygon fill="none" stroke="black" points="445,-1773 367,-1773 367,-1737 445,-1737 445,-1773"/>
<text text-anchor="middle" x="406" y="-1752.5" font-family="Helvetica,sans-Serif" font-size="10.00">BeginConnect</text>
</g>
<!-- OnProxyAvailable&#45;&gt;BeginConnect -->
<g id="edge41" class="edge"><title>OnProxyAvailable&#45;&gt;BeginConnect</title>
<path fill="none" stroke="black" d="M348.397,-1809.81C358.013,-1800.83 369.934,-1789.69 380.432,-1779.89"/>
<polygon fill="black" stroke="black" points="387.772,-1773.03 383.537,-1783.14 384.118,-1776.44 380.465,-1779.86 380.465,-1779.86 380.465,-1779.86 384.118,-1776.44 377.393,-1776.57 387.772,-1773.03 387.772,-1773.03"/>
</g>
<!-- CloseCacheEntry_and_AsyncAbort -->
<g id="node33" class="node"><title>CloseCacheEntry_and_AsyncAbort</title>
<polygon fill="none" stroke="black" points="253,-1151 253,-1172 341,-1172 341,-1151 253,-1151"/>
<text text-anchor="start" x="258" y="-1159" font-family="Helvetica,sans-Serif" font-size="10.00">CloseCacheEntry</text>
<polygon fill="none" stroke="black" points="253,-1130 253,-1151 341,-1151 341,-1130 253,-1130"/>
<text text-anchor="start" x="271" y="-1138" font-family="Helvetica,sans-Serif" font-size="10.00">AsyncAbort</text>
</g>
<!-- OnProxyAvailable&#45;&gt;CloseCacheEntry_and_AsyncAbort -->
<g id="edge42" class="edge"><title>OnProxyAvailable&#45;&gt;CloseCacheEntry_and_AsyncAbort</title>
<path fill="none" stroke="black" stroke-dasharray="1,5" d="M329.168,-1809.98C324.821,-1721.06 304.695,-1309.4 298.694,-1186.64"/>
<polygon fill="black" stroke="black" points="298.19,-1176.33 303.173,-1186.1 298.434,-1181.33 298.678,-1186.32 298.678,-1186.32 298.678,-1186.32 298.434,-1181.33 294.183,-1186.54 298.19,-1176.33 298.19,-1176.33"/>
<text text-anchor="middle" x="344.5" y="-1523.5" font-family="Helvetica,sans-Serif" font-size="10.00">NS_FAILED</text>
</g>
<!-- BeginConnectContinue -->
<g id="node38" class="node"><title>BeginConnectContinue</title>
<polygon fill="none" stroke="black" points="609.5,-1700 492.5,-1700 492.5,-1664 609.5,-1664 609.5,-1700"/>
<text text-anchor="middle" x="551" y="-1679.5" font-family="Helvetica,sans-Serif" font-size="10.00">BeginConnectContinue</text>
</g>
<!-- BeginConnect&#45;&gt;BeginConnectContinue -->
<g id="edge50" class="edge"><title>BeginConnect&#45;&gt;BeginConnectContinue</title>
<path fill="none" stroke="black" d="M440.731,-1736.99C460.582,-1727.27 485.675,-1714.99 506.907,-1704.59"/>
<polygon fill="black" stroke="black" points="516.05,-1700.11 509.048,-1708.55 511.559,-1702.31 507.069,-1704.51 507.069,-1704.51 507.069,-1704.51 511.559,-1702.31 505.09,-1700.47 516.05,-1700.11 516.05,-1700.11"/>
</g>
<!-- AsyncAbort -->
<g id="node60" class="node"><title>AsyncAbort</title>
<polygon fill="none" stroke="black" points="321,-1033 253,-1033 253,-997 321,-997 321,-1033"/>
<text text-anchor="middle" x="287" y="-1012.5" font-family="Helvetica,sans-Serif" font-size="10.00">AsyncAbort</text>
</g>
<!-- CloseCacheEntry_and_AsyncAbort&#45;&gt;AsyncAbort -->
<g id="edge93" class="edge"><title>CloseCacheEntry_and_AsyncAbort:aa&#45;&gt;AsyncAbort</title>
<path fill="none" stroke="black" d="M297,-1129C297,-1099.59 293.597,-1066.03 290.761,-1043.18"/>
<polygon fill="black" stroke="black" points="289.472,-1033.19 295.214,-1042.53 290.112,-1038.15 290.751,-1043.11 290.751,-1043.11 290.751,-1043.11 290.112,-1038.15 286.288,-1043.68 289.472,-1033.19 289.472,-1033.19"/>
</g>
<!-- srcu_https -->
<g id="node35" class="node"><title>srcu_https</title>
<polygon fill="none" stroke="black" points="907,-1172 907,-1193 1100,-1193 1100,-1172 907,-1172"/>
<text text-anchor="start" x="941.5" y="-1180" font-family="Helvetica,sans-Serif" font-size="10.00">StartRedirectChannelToURI</text>
<polygon fill="none" stroke="black" points="907,-1151 907,-1172 1100,-1172 1100,-1151 907,-1151"/>
<text text-anchor="start" x="948.5" y="-1159" font-family="Helvetica,sans-Serif" font-size="10.00">WaitForRedirectCallback</text>
<polygon fill="none" stroke="black" points="907,-1130 907,-1151 1100,-1151 1100,-1130 907,-1130"/>
<text text-anchor="start" x="946.5" y="-1138" font-family="Helvetica,sans-Serif" font-size="10.00">OnRedirectVerifyCallback</text>
<polygon fill="none" stroke="black" points="907,-1109 907,-1130 1100,-1130 1100,-1109 907,-1109"/>
<text text-anchor="start" x="912" y="-1117" font-family="Helvetica,sans-Serif" font-size="10.00">cb ContinueAsyncRedirectChannelToURI</text>
</g>
<!-- StartRedirectChannelToHttps&#45;&gt;srcu_https -->
<g id="edge45" class="edge"><title>StartRedirectChannelToHttps&#45;&gt;srcu_https:i</title>
<path fill="none" stroke="black" d="M1004,-1268.7C1004,-1252.6 1004,-1227.62 1004,-1204.24"/>
<polygon fill="black" stroke="black" points="1004,-1194 1008.5,-1204 1004,-1199 1004,-1204 1004,-1204 1004,-1204 1004,-1199 999.5,-1204 1004,-1194 1004,-1194"/>
</g>
<!-- srcu_https&#45;&gt;ContinueAsyncRedirectChannelToURI -->
<g id="edge46" class="edge"><title>srcu_https:o&#45;&gt;ContinueAsyncRedirectChannelToURI</title>
<path fill="none" stroke="black" d="M1101,-1119C1132.63,-1119 1098.89,-1072.6 1122,-1051 1129.74,-1043.76 1147.19,-1037.62 1167.48,-1032.6"/>
<polygon fill="black" stroke="black" points="1177.31,-1030.3 1168.6,-1036.96 1172.44,-1031.44 1167.58,-1032.58 1167.58,-1032.58 1167.58,-1032.58 1172.44,-1031.44 1166.55,-1028.2 1177.31,-1030.3 1177.31,-1030.3"/>
</g>
<!-- AsyncOpen -->
<g id="node36" class="node"><title>AsyncOpen</title>
<polygon fill="none" stroke="black" points="364,-2065 296,-2065 296,-2029 364,-2029 364,-2065"/>
<text text-anchor="middle" x="330" y="-2044.5" font-family="Helvetica,sans-Serif" font-size="10.00">AsyncOpen</text>
</g>
<!-- AsyncOpen&#45;&gt;BeginConnect -->
<g id="edge48" class="edge"><title>AsyncOpen&#45;&gt;BeginConnect</title>
<path fill="none" stroke="black" d="M364.442,-2030.01C384.551,-2018.06 406,-1999.56 406,-1975 406,-1975 406,-1975 406,-1827 406,-1812.65 406,-1796.67 406,-1783.51"/>
<polygon fill="black" stroke="black" points="406,-1773.22 410.5,-1783.22 406,-1778.22 406,-1783.22 406,-1783.22 406,-1783.22 406,-1778.22 401.5,-1783.22 406,-1773.22 406,-1773.22"/>
</g>
<!-- AsyncOpen&#45;&gt;CloseCacheEntry_and_AsyncAbort -->
<g id="edge49" class="edge"><title>AsyncOpen&#45;&gt;CloseCacheEntry_and_AsyncAbort</title>
<path fill="none" stroke="black" stroke-dasharray="1,5" d="M295.558,-2030.01C275.449,-2018.06 254,-1999.56 254,-1975 254,-1975 254,-1975 254,-1286 254,-1250.53 267.828,-1212.2 279.801,-1185.66"/>
<polygon fill="black" stroke="black" points="284.099,-1176.44 283.951,-1187.4 281.986,-1180.97 279.873,-1185.5 279.873,-1185.5 279.873,-1185.5 281.986,-1180.97 275.794,-1183.6 284.099,-1176.44 284.099,-1176.44"/>
<text text-anchor="middle" x="281.5" y="-1638" font-family="Helvetica,sans-Serif" font-size="10.00">NS_FAILED</text>
</g>
<!-- ResolveProxy -->
<g id="node37" class="node"><title>ResolveProxy</title>
<polygon fill="none" stroke="black" points="369,-1992 291,-1992 291,-1956 369,-1956 369,-1992"/>
<text text-anchor="middle" x="330" y="-1971.5" font-family="Helvetica,sans-Serif" font-size="10.00">ResolveProxy</text>
</g>
<!-- AsyncOpen&#45;&gt;ResolveProxy -->
<g id="edge47" class="edge"><title>AsyncOpen&#45;&gt;ResolveProxy</title>
<path fill="none" stroke="black" d="M330,-2028.81C330,-2020.79 330,-2011.05 330,-2002.07"/>
<polygon fill="black" stroke="black" points="330,-1992.03 334.5,-2002.03 330,-1997.03 330,-2002.03 330,-2002.03 330,-2002.03 330,-1997.03 325.5,-2002.03 330,-1992.03 330,-1992.03"/>
</g>
<!-- AsyncResolve -->
<g id="node59" class="node"><title>AsyncResolve</title>
<polygon fill="none" stroke="black" points="370,-1919 290,-1919 290,-1883 370,-1883 370,-1919"/>
<text text-anchor="middle" x="330" y="-1898.5" font-family="Helvetica,sans-Serif" font-size="10.00">AsyncResolve</text>
</g>
<!-- ResolveProxy&#45;&gt;AsyncResolve -->
<g id="edge79" class="edge"><title>ResolveProxy&#45;&gt;AsyncResolve</title>
<path fill="none" stroke="black" stroke-dasharray="5,2" d="M330,-1955.81C330,-1947.79 330,-1938.05 330,-1929.07"/>
<polygon fill="black" stroke="black" points="330,-1919.03 334.5,-1929.03 330,-1924.03 330,-1929.03 330,-1929.03 330,-1929.03 330,-1924.03 325.5,-1929.03 330,-1919.03 330,-1919.03"/>
</g>
<!-- HandleAsyncAPIRedirect -->
<g id="node39" class="node"><title>HandleAsyncAPIRedirect</title>
<polygon fill="none" stroke="black" points="1334,-1305 1206,-1305 1206,-1269 1334,-1269 1334,-1305"/>
<text text-anchor="middle" x="1270" y="-1284.5" font-family="Helvetica,sans-Serif" font-size="10.00">HandleAsyncAPIRedirect</text>
</g>
<!-- BeginConnectContinue&#45;&gt;HandleAsyncAPIRedirect -->
<g id="edge51" class="edge"><title>BeginConnectContinue&#45;&gt;HandleAsyncAPIRedirect</title>
<path fill="none" stroke="black" d="M593.09,-1663.97C622.562,-1651.7 662.653,-1634.32 697,-1617 905.434,-1511.86 1144.59,-1365.97 1233.9,-1310.56"/>
<polygon fill="black" stroke="black" points="1242.56,-1305.18 1236.44,-1314.28 1238.32,-1307.82 1234.07,-1310.46 1234.07,-1310.46 1234.07,-1310.46 1238.32,-1307.82 1231.69,-1306.63 1242.56,-1305.18 1242.56,-1305.18"/>
<text text-anchor="middle" x="997.5" y="-1482" font-family="Helvetica,sans-Serif" font-size="10.00">mAPIRedirectToURI</text>
</g>
<!-- ContinueBeginConnectWithResult -->
<g id="node40" class="node"><title>ContinueBeginConnectWithResult</title>
<polygon fill="none" stroke="black" points="577,-1544 411,-1544 411,-1508 577,-1508 577,-1544"/>
<text text-anchor="middle" x="494" y="-1523.5" font-family="Helvetica,sans-Serif" font-size="10.00">ContinueBeginConnectWithResult</text>
</g>
<!-- BeginConnectContinue&#45;&gt;ContinueBeginConnectWithResult -->
<g id="edge52" class="edge"><title>BeginConnectContinue&#45;&gt;ContinueBeginConnectWithResult</title>
<path fill="none" stroke="black" d="M514.248,-1663.95C495.86,-1653.28 475.359,-1637.62 465,-1617 454.614,-1596.33 464.454,-1571.14 475.397,-1552.67"/>
<polygon fill="black" stroke="black" points="480.774,-1544.2 479.217,-1555.05 478.095,-1548.42 475.417,-1552.64 475.417,-1552.64 475.417,-1552.64 478.095,-1548.42 471.617,-1550.23 480.774,-1544.2 480.774,-1544.2"/>
<text text-anchor="middle" x="519" y="-1596.5" font-family="Helvetica,sans-Serif" font-size="10.00">!LOAD_CLASSIFY_URI</text>
</g>
<!-- BeginConnectActual -->
<g id="node41" class="node"><title>BeginConnectActual</title>
<polygon fill="none" stroke="black" points="688,-1617 582,-1617 582,-1581 688,-1581 688,-1617"/>
<text text-anchor="middle" x="635" y="-1596.5" font-family="Helvetica,sans-Serif" font-size="10.00">BeginConnectActual</text>
</g>
<!-- BeginConnectContinue&#45;&gt;BeginConnectActual -->
<g id="edge53" class="edge"><title>BeginConnectContinue&#45;&gt;BeginConnectActual</title>
<path fill="none" stroke="black" d="M568.814,-1663.82C580.731,-1652.33 596.587,-1637.04 609.793,-1624.31"/>
<polygon fill="black" stroke="black" points="617.211,-1617.15 613.137,-1627.33 613.612,-1620.62 610.013,-1624.09 610.013,-1624.09 610.013,-1624.09 613.612,-1620.62 606.889,-1620.86 617.211,-1617.15 617.211,-1617.15"/>
</g>
<!-- HandleAsyncAPIRedirect&#45;&gt;ContinueAsyncRedirectChannelToURI -->
<g id="edge70" class="edge"><title>HandleAsyncAPIRedirect&#45;&gt;ContinueAsyncRedirectChannelToURI</title>
<path fill="none" stroke="black" stroke-dasharray="1,5" d="M1305.54,-1268.91C1332.03,-1254.01 1366.24,-1229.66 1382,-1197 1399.77,-1160.18 1399.77,-1141.82 1382,-1105 1367.96,-1075.92 1339.29,-1053.42 1314.47,-1038.31"/>
<polygon fill="black" stroke="black" points="1305.54,-1033.09 1316.44,-1034.25 1309.85,-1035.61 1314.17,-1038.14 1314.17,-1038.14 1314.17,-1038.14 1309.85,-1035.61 1311.89,-1042.02 1305.54,-1033.09 1305.54,-1033.09"/>
<text text-anchor="middle" x="1423.5" y="-1148.5" font-family="Helvetica,sans-Serif" font-size="10.00">NS_FAILED</text>
</g>
<!-- srcu_haapi -->
<g id="node52" class="node"><title>srcu_haapi</title>
<polygon fill="none" stroke="black" points="1173,-1172 1173,-1193 1366,-1193 1366,-1172 1173,-1172"/>
<text text-anchor="start" x="1207.5" y="-1180" font-family="Helvetica,sans-Serif" font-size="10.00">StartRedirectChannelToURI</text>
<polygon fill="none" stroke="black" points="1173,-1151 1173,-1172 1366,-1172 1366,-1151 1173,-1151"/>
<text text-anchor="start" x="1214.5" y="-1159" font-family="Helvetica,sans-Serif" font-size="10.00">WaitForRedirectCallback</text>
<polygon fill="none" stroke="black" points="1173,-1130 1173,-1151 1366,-1151 1366,-1130 1173,-1130"/>
<text text-anchor="start" x="1212.5" y="-1138" font-family="Helvetica,sans-Serif" font-size="10.00">OnRedirectVerifyCallback</text>
<polygon fill="none" stroke="black" points="1173,-1109 1173,-1130 1366,-1130 1366,-1109 1173,-1109"/>
<text text-anchor="start" x="1178" y="-1117" font-family="Helvetica,sans-Serif" font-size="10.00">cb ContinueAsyncRedirectChannelToURI</text>
</g>
<!-- HandleAsyncAPIRedirect&#45;&gt;srcu_haapi -->
<g id="edge68" class="edge"><title>HandleAsyncAPIRedirect&#45;&gt;srcu_haapi:i</title>
<path fill="none" stroke="black" d="M1270,-1268.7C1270,-1252.6 1270,-1227.62 1270,-1204.24"/>
<polygon fill="black" stroke="black" points="1270,-1194 1274.5,-1204 1270,-1199 1270,-1204 1270,-1204 1270,-1204 1270,-1199 1265.5,-1204 1270,-1194 1270,-1194"/>
</g>
<!-- ContinueBeginConnectWithResult&#45;&gt;Connect -->
<g id="edge55" class="edge"><title>ContinueBeginConnectWithResult&#45;&gt;Connect</title>
<path fill="none" stroke="black" d="M494,-1507.82C494,-1497.19 494,-1483.31 494,-1471.2"/>
<polygon fill="black" stroke="black" points="494,-1461.15 498.5,-1471.15 494,-1466.15 494,-1471.15 494,-1471.15 494,-1471.15 494,-1466.15 489.5,-1471.15 494,-1461.15 494,-1461.15"/>
</g>
<!-- BeginConnectActual&#45;&gt;ContinueBeginConnectWithResult -->
<g id="edge54" class="edge"><title>BeginConnectActual&#45;&gt;ContinueBeginConnectWithResult</title>
<path fill="none" stroke="black" d="M601.227,-1580.99C582.01,-1571.32 557.741,-1559.1 537.155,-1548.73"/>
<polygon fill="black" stroke="black" points="527.986,-1544.11 538.942,-1544.59 532.452,-1546.36 536.918,-1548.61 536.918,-1548.61 536.918,-1548.61 532.452,-1546.36 534.894,-1552.63 527.986,-1544.11 527.986,-1544.11"/>
</g>
<!-- HSTSPrimingListener -->
<g id="node43" class="node"><title>HSTSPrimingListener</title>
<polygon fill="none" stroke="black" points="705.5,-842 594.5,-842 594.5,-806 705.5,-806 705.5,-842"/>
<text text-anchor="middle" x="650" y="-821.5" font-family="Helvetica,sans-Serif" font-size="10.00">HSTSPrimingListener</text>
</g>
<!-- TryHSTSPriming&#45;&gt;HSTSPrimingListener -->
<g id="edge57" class="edge"><title>TryHSTSPriming&#45;&gt;HSTSPrimingListener</title>
<path fill="none" stroke="black" stroke-dasharray="5,2" d="M650,-913.969C650,-897.378 650,-871.883 650,-852.431"/>
<polygon fill="black" stroke="black" points="650,-842.341 654.5,-852.341 650,-847.341 650,-852.341 650,-852.341 650,-852.341 650,-847.341 645.5,-852.341 650,-842.341 650,-842.341"/>
</g>
<!-- ContinueConnect -->
<g id="node44" class="node"><title>ContinueConnect</title>
<polygon fill="none" stroke="black" points="777,-696 685,-696 685,-660 777,-660 777,-696"/>
<text text-anchor="middle" x="731" y="-675.5" font-family="Helvetica,sans-Serif" font-size="10.00">ContinueConnect</text>
</g>
<!-- TryHSTSPriming&#45;&gt;ContinueConnect -->
<g id="edge58" class="edge"><title>TryHSTSPriming&#45;&gt;ContinueConnect</title>
<path fill="none" stroke="black" d="M667.499,-913.804C683.121,-897.126 704.895,-870.259 714,-842 724.063,-810.77 707.724,-801.469 703,-769 700.696,-753.167 699.21,-748.545 703,-733 705.352,-723.356 709.751,-713.513 714.378,-704.919"/>
<polygon fill="black" stroke="black" points="719.402,-696.151 718.335,-707.065 716.916,-700.489 714.43,-704.828 714.43,-704.828 714.43,-704.828 716.916,-700.489 710.526,-702.59 719.402,-696.151 719.402,-696.151"/>
</g>
<!-- OnHSTSPrimingSucceeded -->
<g id="node47" class="node"><title>OnHSTSPrimingSucceeded</title>
<polygon fill="none" stroke="black" points="522,-769 384,-769 384,-733 522,-733 522,-769"/>
<text text-anchor="middle" x="453" y="-748.5" font-family="Helvetica,sans-Serif" font-size="10.00">OnHSTSPrimingSucceeded</text>
</g>
<!-- HSTSPrimingListener&#45;&gt;OnHSTSPrimingSucceeded -->
<g id="edge61" class="edge"><title>HSTSPrimingListener&#45;&gt;OnHSTSPrimingSucceeded</title>
<path fill="none" stroke="black" stroke-dasharray="5,2" d="M602.814,-805.994C574.997,-795.968 539.604,-783.213 510.205,-772.617"/>
<polygon fill="black" stroke="black" points="500.484,-769.114 511.418,-768.271 505.188,-770.809 509.892,-772.504 509.892,-772.504 509.892,-772.504 505.188,-770.809 508.366,-776.738 500.484,-769.114 500.484,-769.114"/>
</g>
<!-- OnHSTSPrimingFailed -->
<g id="node48" class="node"><title>OnHSTSPrimingFailed</title>
<polygon fill="none" stroke="black" points="656,-769 540,-769 540,-733 656,-733 656,-769"/>
<text text-anchor="middle" x="598" y="-748.5" font-family="Helvetica,sans-Serif" font-size="10.00">OnHSTSPrimingFailed</text>
</g>
<!-- HSTSPrimingListener&#45;&gt;OnHSTSPrimingFailed -->
<g id="edge62" class="edge"><title>HSTSPrimingListener&#45;&gt;OnHSTSPrimingFailed</title>
<path fill="none" stroke="black" stroke-dasharray="5,2" d="M637.412,-805.813C631.153,-797.266 623.465,-786.769 616.546,-777.323"/>
<polygon fill="black" stroke="black" points="610.472,-769.029 620.011,-774.438 613.426,-773.063 616.381,-777.097 616.381,-777.097 616.381,-777.097 613.426,-773.063 612.75,-779.755 610.472,-769.029 610.472,-769.029"/>
</g>
<!-- ContinueConnect&#45;&gt;ReadFromCache -->
<g id="edge65" class="edge"><title>ContinueConnect&#45;&gt;ReadFromCache</title>
<path fill="none" stroke="black" d="M777.257,-670.477C843.727,-661.192 970.138,-643.867 1078,-631 1174.25,-619.518 1286.53,-608.011 1352.19,-601.471"/>
<polygon fill="black" stroke="black" points="1362.32,-600.464 1352.81,-605.931 1357.34,-600.959 1352.37,-601.453 1352.37,-601.453 1352.37,-601.453 1357.34,-600.959 1351.92,-596.975 1362.32,-600.464 1362.32,-600.464"/>
<text text-anchor="middle" x="1108.5" y="-634" font-family="Helvetica,sans-Serif" font-size="10.00">mCacheEntry</text>
</g>
<!-- SetupTransaction -->
<g id="node50" class="node"><title>SetupTransaction</title>
<polygon fill="none" stroke="black" points="1015.5,-613 922.5,-613 922.5,-577 1015.5,-577 1015.5,-613"/>
<text text-anchor="middle" x="969" y="-592.5" font-family="Helvetica,sans-Serif" font-size="10.00">SetupTransaction</text>
</g>
<!-- ContinueConnect&#45;&gt;SetupTransaction -->
<g id="edge66" class="edge"><title>ContinueConnect&#45;&gt;SetupTransaction</title>
<path fill="none" stroke="black" d="M777.171,-661.286C815.841,-648.125 871.183,-629.291 912.495,-615.231"/>
<polygon fill="black" stroke="black" points="922.145,-611.947 914.128,-619.429 917.411,-613.558 912.678,-615.168 912.678,-615.168 912.678,-615.168 917.411,-613.558 911.228,-610.908 922.145,-611.947 922.145,-611.947"/>
</g>
<!-- ContinueConnect&#45;&gt;HandleAsyncFallback -->
<g id="edge99" class="edge"><title>ContinueConnect&#45;&gt;HandleAsyncFallback</title>
<path fill="none" stroke="black" d="M685.245,-659.921C651.488,-647.32 605.385,-630.111 569.518,-616.723"/>
<polygon fill="black" stroke="black" points="559.692,-613.056 570.635,-612.337 564.377,-614.804 569.061,-616.553 569.061,-616.553 569.061,-616.553 564.377,-614.804 567.487,-620.769 559.692,-613.056 559.692,-613.056"/>
<text text-anchor="middle" x="704" y="-634" font-family="Helvetica,sans-Serif" font-size="10.00">LOAD_ONLY_FROM_CACHE</text>
</g>
<!-- OnInputAvailableComplete -->
<g id="node45" class="node"><title>OnInputAvailableComplete</title>
<polygon fill="none" stroke="black" points="845.5,-769 712.5,-769 712.5,-733 845.5,-733 845.5,-769"/>
<text text-anchor="middle" x="779" y="-748.5" font-family="Helvetica,sans-Serif" font-size="10.00">OnInputAvailableComplete</text>
</g>
<!-- OnInputAvailableComplete&#45;&gt;ContinueConnect -->
<g id="edge59" class="edge"><title>OnInputAvailableComplete&#45;&gt;ContinueConnect</title>
<path fill="none" stroke="black" d="M767.381,-732.813C761.603,-724.266 754.506,-713.769 748.12,-704.323"/>
<polygon fill="black" stroke="black" points="742.512,-696.029 751.841,-701.793 745.313,-700.171 748.113,-704.313 748.113,-704.313 748.113,-704.313 745.313,-700.171 744.385,-706.834 742.512,-696.029 742.512,-696.029"/>
</g>
<!-- OnPreflightSucceeded -->
<g id="node46" class="node"><title>OnPreflightSucceeded</title>
<polygon fill="none" stroke="black" points="978,-769 864,-769 864,-733 978,-733 978,-769"/>
<text text-anchor="middle" x="921" y="-748.5" font-family="Helvetica,sans-Serif" font-size="10.00">OnPreflightSucceeded</text>
</g>
<!-- OnPreflightSucceeded&#45;&gt;ContinueConnect -->
<g id="edge60" class="edge"><title>OnPreflightSucceeded&#45;&gt;ContinueConnect</title>
<path fill="none" stroke="black" d="M875.49,-732.994C848.662,-722.968 814.527,-710.213 786.172,-699.617"/>
<polygon fill="black" stroke="black" points="776.797,-696.114 787.739,-695.399 781.481,-697.864 786.164,-699.614 786.164,-699.614 786.164,-699.614 781.481,-697.864 784.589,-703.829 776.797,-696.114 776.797,-696.114"/>
</g>
<!-- OnHSTSPrimingSucceeded&#45;&gt;ContinueConnect -->
<g id="edge63" class="edge"><title>OnHSTSPrimingSucceeded&#45;&gt;ContinueConnect</title>
<path fill="none" stroke="black" d="M519.588,-732.994C567.077,-720.865 630.212,-704.741 675.091,-693.279"/>
<polygon fill="black" stroke="black" points="684.945,-690.762 676.37,-697.597 680.101,-691.999 675.256,-693.237 675.256,-693.237 675.256,-693.237 680.101,-691.999 674.143,-688.877 684.945,-690.762 684.945,-690.762"/>
</g>
<!-- OnHSTSPrimingFailed&#45;&gt;ContinueConnect -->
<g id="edge64" class="edge"><title>OnHSTSPrimingFailed&#45;&gt;ContinueConnect</title>
<path fill="none" stroke="black" d="M629.857,-732.994C647.902,-723.361 670.669,-711.207 690.031,-700.87"/>
<polygon fill="black" stroke="black" points="698.942,-696.114 692.24,-704.793 694.531,-698.468 690.12,-700.823 690.12,-700.823 690.12,-700.823 694.531,-698.468 688.001,-696.853 698.942,-696.114 698.942,-696.114"/>
</g>
<!-- ReadFromCache&#45;&gt;pump mCachePump -->
<g id="edge107" class="edge"><title>ReadFromCache&#45;&gt;pump mCachePump</title>
<path fill="none" stroke="black" d="M1453.7,-584.582C1530.37,-568.78 1685.05,-536.903 1771.99,-518.985"/>
<polygon fill="black" stroke="black" points="1781.99,-516.924 1773.11,-523.35 1777.09,-517.934 1772.2,-518.943 1772.2,-518.943 1772.2,-518.943 1777.09,-517.934 1771.29,-514.536 1781.99,-516.924 1781.99,-516.924"/>
</g>
<!-- HandleAsyncRedirect -->
<g id="node70" class="node"><title>HandleAsyncRedirect</title>
<polygon fill="none" stroke="black" points="1305,-523 1193,-523 1193,-487 1305,-487 1305,-523"/>
<text text-anchor="middle" x="1249" y="-502.5" font-family="Helvetica,sans-Serif" font-size="10.00">HandleAsyncRedirect</text>
</g>
<!-- ReadFromCache&#45;&gt;HandleAsyncRedirect -->
<g id="edge105" class="edge"><title>ReadFromCache&#45;&gt;HandleAsyncRedirect</title>
<path fill="none" stroke="black" d="M1362.44,-590.091C1320.95,-585.483 1264.06,-576.177 1250,-559 1244.22,-551.936 1242.77,-542.389 1243.16,-533.345"/>
<polygon fill="black" stroke="black" points="1244.31,-523.136 1247.66,-533.579 1243.75,-528.104 1243.19,-533.073 1243.19,-533.073 1243.19,-533.073 1243.75,-528.104 1238.72,-532.566 1244.31,-523.136 1244.31,-523.136"/>
<text text-anchor="middle" x="1318" y="-551" font-family="Helvetica,sans-Serif" font-size="10.00">WillRedirect(mResponseHead)</text>
</g>
<!-- HandleAsyncNotModified -->
<g id="node71" class="node"><title>HandleAsyncNotModified</title>
<polygon fill="none" stroke="black" points="1455,-462 1327,-462 1327,-426 1455,-426 1455,-462"/>
<text text-anchor="middle" x="1391" y="-441.5" font-family="Helvetica,sans-Serif" font-size="10.00">HandleAsyncNotModified</text>
</g>
<!-- ReadFromCache&#45;&gt;HandleAsyncNotModified -->
<g id="edge106" class="edge"><title>ReadFromCache&#45;&gt;HandleAsyncNotModified</title>
<path fill="none" stroke="black" d="M1406.05,-576.908C1403.13,-551.334 1397.6,-502.861 1394.12,-472.334"/>
<polygon fill="black" stroke="black" points="1392.98,-462.352 1398.58,-471.777 1393.55,-467.32 1394.11,-472.287 1394.11,-472.287 1394.11,-472.287 1393.55,-467.32 1389.64,-472.798 1392.98,-462.352 1392.98,-462.352"/>
<text text-anchor="middle" x="1468.5" y="-551" font-family="Helvetica,sans-Serif" font-size="10.00">LOAD_ONLY_IF_MODIFIED</text>
</g>
<!-- mTransactionPump::AsyncRead -->
<g id="node51" class="node"><title>mTransactionPump::AsyncRead</title>
<polygon fill="none" stroke="black" points="1016,-523 858,-523 858,-487 1016,-487 1016,-523"/>
<text text-anchor="middle" x="937" y="-502.5" font-family="Helvetica,sans-Serif" font-size="10.00">mTransactionPump::AsyncRead</text>
</g>
<!-- SetupTransaction&#45;&gt;mTransactionPump::AsyncRead -->
<g id="edge67" class="edge"><title>SetupTransaction&#45;&gt;mTransactionPump::AsyncRead</title>
<path fill="none" stroke="black" d="M962.678,-576.614C958.134,-564.119 951.923,-547.037 946.747,-532.804"/>
<polygon fill="black" stroke="black" points="943.2,-523.05 950.847,-530.91 944.909,-527.749 946.618,-532.448 946.618,-532.448 946.618,-532.448 944.909,-527.749 942.389,-533.986 943.2,-523.05 943.2,-523.05"/>
</g>
<!-- srcu_haapi&#45;&gt;ContinueAsyncRedirectChannelToURI -->
<g id="edge69" class="edge"><title>srcu_haapi:o&#45;&gt;ContinueAsyncRedirectChannelToURI</title>
<path fill="none" stroke="black" d="M1270,-1108C1270,-1086.34 1270,-1061.81 1270,-1043.53"/>
<polygon fill="black" stroke="black" points="1270,-1033.3 1274.5,-1043.3 1270,-1038.3 1270,-1043.3 1270,-1043.3 1270,-1043.3 1270,-1038.3 1265.5,-1043.3 1270,-1033.3 1270,-1033.3"/>
</g>
<!-- StartRedirectChannelToURI -->
<g id="node53" class="node"><title>StartRedirectChannelToURI</title>
<polygon fill="none" stroke="black" points="1889,-1169 1749,-1169 1749,-1133 1889,-1133 1889,-1169"/>
<text text-anchor="middle" x="1819" y="-1148.5" font-family="Helvetica,sans-Serif" font-size="10.00">StartRedirectChannelToURI</text>
</g>
<!-- StartRedirectChannelToURI&#45;&gt;ContinueAsyncRedirectChannelToURI -->
<g id="edge72" class="edge"><title>StartRedirectChannelToURI&#45;&gt;ContinueAsyncRedirectChannelToURI</title>
<path fill="none" stroke="black" stroke-dasharray="1,5" d="M1794.92,-1132.93C1779.6,-1121.24 1760.07,-1104.68 1746,-1087 1734.73,-1072.84 1742.25,-1060.73 1727,-1051 1695.53,-1030.92 1441.41,-1036.52 1372.52,-1032.66"/>
<polygon fill="black" stroke="black" points="1362.5,-1031.89 1372.82,-1028.17 1367.49,-1032.28 1372.47,-1032.66 1372.47,-1032.66 1372.47,-1032.66 1367.49,-1032.28 1372.13,-1037.15 1362.5,-1031.89 1362.5,-1031.89"/>
<text text-anchor="middle" x="1773.5" y="-1066.5" font-family="Helvetica,sans-Serif" font-size="10.00">NS_FAILED</text>
</g>
<!-- WaitForRedirectCallback -->
<g id="node54" class="node"><title>WaitForRedirectCallback</title>
<polygon fill="none" stroke="black" points="1507,-1033 1381,-1033 1381,-997 1507,-997 1507,-1033"/>
<text text-anchor="middle" x="1444" y="-1012.5" font-family="Helvetica,sans-Serif" font-size="10.00">WaitForRedirectCallback</text>
</g>
<!-- StartRedirectChannelToURI&#45;&gt;WaitForRedirectCallback -->
<g id="edge71" class="edge"><title>StartRedirectChannelToURI&#45;&gt;WaitForRedirectCallback</title>
<path fill="none" stroke="black" d="M1822.38,-1132.74C1825.65,-1110.32 1827.29,-1071.64 1805,-1051 1781.8,-1029.52 1552.31,-1037.42 1521,-1033 1519.74,-1032.82 1518.47,-1032.64 1517.2,-1032.44"/>
<polygon fill="black" stroke="black" points="1507.31,-1030.79 1517.91,-1028 1512.24,-1031.61 1517.17,-1032.44 1517.17,-1032.44 1517.17,-1032.44 1512.24,-1031.61 1516.43,-1036.87 1507.31,-1030.79 1507.31,-1030.79"/>
</g>
<!-- OpenRedirectChannel&#45;&gt;AsyncOpen -->
<g id="edge75" class="edge"><title>OpenRedirectChannel&#45;&gt;AsyncOpen</title>
<path fill="none" stroke="black" d="M830.073,-950.116C813.648,-965.018 794,-988.229 794,-1014 794,-1975 794,-1975 794,-1975 794,-2017.18 490.518,-2037.57 374.429,-2043.83"/>
<polygon fill="black" stroke="black" points="364.119,-2044.38 373.868,-2039.35 369.112,-2044.11 374.105,-2043.85 374.105,-2043.85 374.105,-2043.85 369.112,-2044.11 374.343,-2048.34 364.119,-2044.38 364.119,-2044.38"/>
</g>
<!-- ContinueDoReplaceWithProxy -->
<g id="node58" class="node"><title>ContinueDoReplaceWithProxy</title>
<polygon fill="none" stroke="black" points="150,-2138 1.42109e-14,-2138 1.42109e-14,-2102 150,-2102 150,-2138"/>
<text text-anchor="middle" x="75" y="-2117.5" font-family="Helvetica,sans-Serif" font-size="10.00">ContinueDoReplaceWithProxy</text>
</g>
<!-- srcu_adrwp&#45;&gt;ContinueDoReplaceWithProxy -->
<g id="edge77" class="edge"><title>srcu_adrwp:o&#45;&gt;ContinueDoReplaceWithProxy</title>
<path fill="none" stroke="black" d="M147,-2209C147,-2182.92 127.821,-2160.32 109.26,-2144.55"/>
<polygon fill="black" stroke="black" points="101.401,-2138.23 112.012,-2140.99 105.296,-2141.36 109.19,-2144.5 109.19,-2144.5 109.19,-2144.5 105.296,-2141.36 106.368,-2148 101.401,-2138.23 101.401,-2138.23"/>
</g>
<!-- ContinueDoReplaceWithProxy&#45;&gt;AsyncOpen -->
<g id="edge78" class="edge"><title>ContinueDoReplaceWithProxy&#45;&gt;AsyncOpen</title>
<path fill="none" stroke="black" d="M136.079,-2101.99C182.223,-2089.15 244.472,-2071.81 285.859,-2060.29"/>
<polygon fill="black" stroke="black" points="295.65,-2057.56 287.223,-2064.58 290.833,-2058.91 286.016,-2060.25 286.016,-2060.25 286.016,-2060.25 290.833,-2058.91 284.809,-2055.91 295.65,-2057.56 295.65,-2057.56"/>
</g>
<!-- AsyncResolve&#45;&gt;OnProxyAvailable -->
<g id="edge80" class="edge"><title>AsyncResolve&#45;&gt;OnProxyAvailable</title>
<path fill="none" stroke="black" stroke-dasharray="5,2" d="M330,-1882.81C330,-1874.79 330,-1865.05 330,-1856.07"/>
<polygon fill="black" stroke="black" points="330,-1846.03 334.5,-1856.03 330,-1851.03 330,-1856.03 330,-1856.03 330,-1856.03 330,-1851.03 325.5,-1856.03 330,-1846.03 330,-1846.03"/>
</g>
<!-- HandleAsyncAbort -->
<g id="node61" class="node"><title>HandleAsyncAbort</title>
<polygon fill="none" stroke="black" points="329,-896 231,-896 231,-860 329,-860 329,-896"/>
<text text-anchor="middle" x="280" y="-875.5" font-family="Helvetica,sans-Serif" font-size="10.00">HandleAsyncAbort</text>
</g>
<!-- AsyncAbort&#45;&gt;HandleAsyncAbort -->
<g id="edge81" class="edge"><title>AsyncAbort&#45;&gt;HandleAsyncAbort</title>
<path fill="none" stroke="black" d="M286.113,-996.902C284.931,-974.103 282.825,-933.479 281.42,-906.386"/>
<polygon fill="black" stroke="black" points="280.901,-896.385 285.913,-906.139 281.16,-901.379 281.419,-906.372 281.419,-906.372 281.419,-906.372 281.16,-901.379 276.925,-906.605 280.901,-896.385 280.901,-896.385"/>
</g>
<!-- HandleAsyncAbort&#45;&gt;DoNotifyListener -->
<g id="edge82" class="edge"><title>HandleAsyncAbort&#45;&gt;DoNotifyListener</title>
<path fill="none" stroke="black" d="M280,-859.938C280,-842.023 280,-813.031 280,-788 280,-788 280,-788 280,-389 280,-363.575 1065.01,-308.867 1282.65,-294.188"/>
<polygon fill="black" stroke="black" points="1292.88,-293.499 1283.2,-298.661 1287.89,-293.835 1282.9,-294.171 1282.9,-294.171 1282.9,-294.171 1287.89,-293.835 1282.6,-289.681 1292.88,-293.499 1292.88,-293.499"/>
</g>
<!-- ContinueProcessFallback&#45;&gt;AsyncOpen -->
<g id="edge88" class="edge"><title>ContinueProcessFallback&#45;&gt;AsyncOpen</title>
<path fill="none" stroke="black" d="M442.55,-2101.99C421.748,-2092.01 395.308,-2079.33 373.282,-2068.76"/>
<polygon fill="black" stroke="black" points="364.141,-2064.38 375.104,-2064.65 368.65,-2066.54 373.158,-2068.7 373.158,-2068.7 373.158,-2068.7 368.65,-2066.54 371.211,-2072.76 364.141,-2064.38 364.141,-2064.38"/>
</g>
<!-- OnCacheEntryAvailable&#45;&gt;CloseCacheEntry_and_AsyncAbort -->
<g id="edge94" class="edge"><title>OnCacheEntryAvailable&#45;&gt;CloseCacheEntry_and_AsyncAbort</title>
<path fill="none" stroke="black" stroke-dasharray="1,5" d="M536.019,-1268.89C490.468,-1246.62 410.202,-1207.36 355.359,-1180.54"/>
<polygon fill="black" stroke="black" points="346.108,-1176.02 357.068,-1176.37 350.6,-1178.21 355.091,-1180.41 355.091,-1180.41 355.091,-1180.41 350.6,-1178.21 353.114,-1184.45 346.108,-1176.02 346.108,-1176.02"/>
<text text-anchor="middle" x="525.5" y="-1230.5" font-family="Helvetica,sans-Serif" font-size="10.00">NS_FAILED</text>
</g>
<!-- OnCacheEntryAvailableInternal -->
<g id="node66" class="node"><title>OnCacheEntryAvailableInternal</title>
<polygon fill="none" stroke="black" points="671.5,-1169 518.5,-1169 518.5,-1133 671.5,-1133 671.5,-1169"/>
<text text-anchor="middle" x="595" y="-1148.5" font-family="Helvetica,sans-Serif" font-size="10.00">OnCacheEntryAvailableInternal</text>
</g>
<!-- OnCacheEntryAvailable&#45;&gt;OnCacheEntryAvailableInternal -->
<g id="edge92" class="edge"><title>OnCacheEntryAvailable&#45;&gt;OnCacheEntryAvailableInternal</title>
<path fill="none" stroke="black" d="M574.088,-1268.76C578.157,-1246.04 585.356,-1205.85 590.153,-1179.06"/>
<polygon fill="black" stroke="black" points="591.923,-1169.18 594.59,-1179.81 591.042,-1174.1 590.16,-1179.02 590.16,-1179.02 590.16,-1179.02 591.042,-1174.1 585.731,-1178.23 591.923,-1169.18 591.923,-1169.18"/>
</g>
<!-- MaybeRaceCacheWithNetwork&#45;&gt;TriggerNetwork -->
<g id="edge91" class="edge"><title>MaybeRaceCacheWithNetwork&#45;&gt;TriggerNetwork</title>
<path fill="none" stroke="black" d="M673.276,-1214.77C676.02,-1209.28 678.607,-1203.06 680,-1197 689.165,-1157.15 688.003,-1145.1 680,-1105 675.579,-1082.85 665.531,-1059.31 657.021,-1042.01"/>
<polygon fill="black" stroke="black" points="652.496,-1033.08 661.032,-1039.97 654.758,-1037.54 657.019,-1042 657.019,-1042 657.019,-1042 654.758,-1037.54 653.005,-1044.04 652.496,-1033.08 652.496,-1033.08"/>
</g>
<!-- OnCacheEntryAvailableInternal&#45;&gt;TriggerNetwork -->
<g id="edge95" class="edge"><title>OnCacheEntryAvailableInternal&#45;&gt;TriggerNetwork</title>
<path fill="none" stroke="black" d="M601.177,-1132.76C609.349,-1109.94 623.839,-1069.49 633.433,-1042.71"/>
<polygon fill="black" stroke="black" points="636.847,-1033.18 637.711,-1044.11 635.161,-1037.88 633.474,-1042.59 633.474,-1042.59 633.474,-1042.59 635.161,-1037.88 629.238,-1041.07 636.847,-1033.18 636.847,-1033.18"/>
</g>
<!-- OnCacheEntryAvailableInternal&#45;&gt;ReadFromCache -->
<g id="edge96" class="edge"><title>OnCacheEntryAvailableInternal&#45;&gt;ReadFromCache</title>
<path fill="none" stroke="black" d="M609.797,-1132.71C629.148,-1110.01 663.999,-1068.84 693,-1033 735.224,-980.819 734.231,-956.728 786,-914 883.069,-833.882 1231.6,-674.644 1360.04,-617.246"/>
<polygon fill="black" stroke="black" points="1369.26,-613.131 1361.96,-621.315 1364.69,-615.168 1360.13,-617.206 1360.13,-617.206 1360.13,-617.206 1364.69,-615.168 1358.29,-613.097 1369.26,-613.131 1369.26,-613.131"/>
</g>
<!-- OnCacheEntryAvailableInternal&#45;&gt;HandleAsyncFallback -->
<g id="edge97" class="edge"><title>OnCacheEntryAvailableInternal&#45;&gt;HandleAsyncFallback</title>
<path fill="none" stroke="black" stroke-dasharray="1,5" d="M595.503,-1132.84C595.69,-1098.56 591.919,-1020.37 557,-968 502.014,-885.537 419.223,-929.676 373,-842 366.303,-829.297 364.519,-757.113 375,-733 396.388,-683.793 444.499,-643.043 478.091,-619.115"/>
<polygon fill="black" stroke="black" points="486.719,-613.109 481.083,-622.515 482.615,-615.966 478.512,-618.822 478.512,-618.822 478.512,-618.822 482.615,-615.966 475.941,-615.129 486.719,-613.109 486.719,-613.109"/>
<text text-anchor="middle" x="479" y="-821.5" font-family="Helvetica,sans-Serif" font-size="10.00">NS_FAILED and LOAD_ONLY_FROM_CACHE</text>
</g>
<!-- haf_pf -->
<g id="node68" class="node"><title>haf_pf</title>
<polygon fill="none" stroke="black" points="591,-505 591,-526 832,-526 832,-505 591,-505"/>
<text text-anchor="start" x="596" y="-513" font-family="Helvetica,sans-Serif" font-size="10.00">ProcessFallback (waitingForRedirectCallback==true)</text>
<polygon fill="none" stroke="black" points="591,-484 591,-505 832,-505 832,-484 591,-484"/>
<text text-anchor="start" x="637.5" y="-492" font-family="Helvetica,sans-Serif" font-size="10.00">cb ContinueHandleAsyncFallback</text>
</g>
<!-- HandleAsyncFallback&#45;&gt;haf_pf -->
<g id="edge101" class="edge"><title>HandleAsyncFallback&#45;&gt;haf_pf:pf</title>
<path fill="none" stroke="black" d="M528.524,-576.689C543.688,-558.916 567.137,-532.331 580.877,-521.197"/>
<polygon fill="black" stroke="black" points="590,-516 583.539,-524.86 585.656,-518.475 581.311,-520.95 581.311,-520.95 581.311,-520.95 585.656,-518.475 579.084,-517.04 590,-516 590,-516"/>
</g>
<!-- ContinueHandleAsyncFallback -->
<g id="node69" class="node"><title>ContinueHandleAsyncFallback</title>
<polygon fill="none" stroke="black" points="787.5,-408 636.5,-408 636.5,-372 787.5,-372 787.5,-408"/>
<text text-anchor="middle" x="712" y="-387.5" font-family="Helvetica,sans-Serif" font-size="10.00">ContinueHandleAsyncFallback</text>
</g>
<!-- HandleAsyncFallback&#45;&gt;ContinueHandleAsyncFallback -->
<g id="edge103" class="edge"><title>HandleAsyncFallback&#45;&gt;ContinueHandleAsyncFallback</title>
<path fill="none" stroke="black" d="M510.402,-576.796C506.405,-552.83 502.908,-509.071 523,-480 547.142,-445.068 588.733,-423.473 626.763,-410.321"/>
<polygon fill="black" stroke="black" points="636.342,-407.157 628.258,-414.566 631.594,-408.725 626.846,-410.294 626.846,-410.294 626.846,-410.294 631.594,-408.725 625.435,-406.021 636.342,-407.157 636.342,-407.157"/>
<text text-anchor="middle" x="548" y="-502.5" font-family="Helvetica,sans-Serif" font-size="10.00">mCanceled</text>
</g>
<!-- haf_pf&#45;&gt;ProcessFallback -->
<g id="edge100" class="edge"><title>haf_pf:pf&#45;&gt;ProcessFallback:entry</title>
<path fill="none" stroke="black" d="M833,-516C847.783,-516 982.51,-718.915 987,-733 991.86,-748.244 994.288,-754.756 987,-769 936.826,-867.062 845.361,-821.211 786,-914 748.422,-972.74 756,-998.269 756,-1068 756,-1324 756,-1324 756,-1324 756,-1402.52 832,-1404.98 832,-1483.5 832,-2121 832,-2121 832,-2121 832,-2155.99 852.986,-2269.51 828.597,-2291.35"/>
<polygon fill="black" stroke="black" points="819,-2295 826.745,-2287.24 823.673,-2293.22 828.346,-2291.44 828.346,-2291.44 828.346,-2291.44 823.673,-2293.22 829.947,-2295.65 819,-2295 819,-2295"/>
</g>
<!-- haf_pf&#45;&gt;ContinueHandleAsyncFallback -->
<g id="edge102" class="edge"><title>haf_pf:o&#45;&gt;ContinueHandleAsyncFallback</title>
<path fill="none" stroke="black" d="M712,-483C712,-461.338 712,-436.808 712,-418.527"/>
<polygon fill="black" stroke="black" points="712,-408.295 716.5,-418.295 712,-413.295 712,-418.295 712,-418.295 712,-418.295 712,-413.295 707.5,-418.295 712,-408.295 712,-408.295"/>
</g>
<!-- ContinueHandleAsyncFallback&#45;&gt;DoNotifyListener -->
<g id="edge104" class="edge"><title>ContinueHandleAsyncFallback&#45;&gt;DoNotifyListener</title>
<path fill="none" stroke="black" d="M741.763,-371.955C760.916,-361.81 786.688,-349.654 811,-343 978.284,-297.219 1185.16,-290.401 1282.47,-289.982"/>
<polygon fill="black" stroke="black" points="1292.66,-289.96 1282.67,-294.482 1287.66,-289.971 1282.66,-289.982 1282.66,-289.982 1282.66,-289.982 1287.66,-289.971 1282.65,-285.482 1292.66,-289.96 1292.66,-289.96"/>
</g>
<!-- HandleAsyncRedirect&#45;&gt;AsyncProcessRedirection -->
<g id="edge116" class="edge"><title>HandleAsyncRedirect&#45;&gt;AsyncProcessRedirection</title>
<path fill="none" stroke="black" d="M1208.99,-486.967C1170.51,-470.748 1110.59,-445.925 1058,-426 1045.06,-421.096 1031.09,-416.052 1017.81,-411.373"/>
<polygon fill="black" stroke="black" points="1008.29,-408.038 1019.21,-407.097 1013,-409.691 1017.72,-411.344 1017.72,-411.344 1017.72,-411.344 1013,-409.691 1016.24,-415.591 1008.29,-408.038 1008.29,-408.038"/>
</g>
<!-- ContinueHandleAsyncRedirect -->
<g id="node76" class="node"><title>ContinueHandleAsyncRedirect</title>
<polygon fill="none" stroke="black" points="1338.5,-408 1187.5,-408 1187.5,-372 1338.5,-372 1338.5,-408"/>
<text text-anchor="middle" x="1263" y="-387.5" font-family="Helvetica,sans-Serif" font-size="10.00">ContinueHandleAsyncRedirect</text>
</g>
<!-- HandleAsyncRedirect&#45;&gt;ContinueHandleAsyncRedirect -->
<g id="edge117" class="edge"><title>HandleAsyncRedirect&#45;&gt;ContinueHandleAsyncRedirect</title>
<path fill="none" stroke="black" stroke-dasharray="1,5" d="M1251.13,-486.838C1253.38,-468.669 1256.96,-439.725 1259.61,-418.394"/>
<polygon fill="black" stroke="black" points="1260.85,-408.324 1264.09,-418.801 1260.24,-413.286 1259.62,-418.248 1259.62,-418.248 1259.62,-418.248 1260.24,-413.286 1255.16,-417.695 1260.85,-408.324 1260.85,-408.324"/>
<text text-anchor="middle" x="1286.5" y="-441.5" font-family="Helvetica,sans-Serif" font-size="10.00">NS_FAILED</text>
</g>
<!-- HandleAsyncNotModified&#45;&gt;DoNotifyListener -->
<g id="edge108" class="edge"><title>HandleAsyncNotModified&#45;&gt;DoNotifyListener</title>
<path fill="none" stroke="black" d="M1385.02,-425.803C1375.88,-399.489 1358.33,-348.998 1347.45,-317.688"/>
<polygon fill="black" stroke="black" points="1344.04,-307.868 1351.57,-315.837 1345.68,-312.591 1347.32,-317.314 1347.32,-317.314 1347.32,-317.314 1345.68,-312.591 1343.07,-318.791 1344.04,-307.868 1344.04,-307.868"/>
</g>
<!-- wfrc_apr&#45;&gt;ProcessFallback -->
<g id="edge110" class="edge"><title>wfrc_apr:pf:w&#45;&gt;ProcessFallback:entry</title>
<path fill="none" stroke="black" d="M460,-310.5C229.476,-310.5 242,-357.736 242,-389 242,-637.5 242,-637.5 242,-637.5 242,-709.777 178,-714.723 178,-787 178,-2121 178,-2121 178,-2121 178,-2173.98 553.569,-2284.04 636.904,-2294.24"/>
<polygon fill="black" stroke="black" points="647,-2295 636.69,-2298.73 642.014,-2294.62 637.028,-2294.25 637.028,-2294.25 637.028,-2294.25 642.014,-2294.62 637.367,-2289.76 647,-2295 647,-2295"/>
</g>
<!-- wfrc_apr&#45;&gt;ContinueProcessRedirectionAfterFallback -->
<g id="edge111" class="edge"><title>wfrc_apr:o&#45;&gt;ContinueProcessRedirectionAfterFallback</title>
<path fill="none" stroke="black" d="M582,-256.5C582,-246.982 582,-236.562 582,-227.292"/>
<polygon fill="black" stroke="black" points="582,-217.06 586.5,-227.06 582,-222.06 582,-227.06 582,-227.06 582,-227.06 582,-222.06 577.5,-227.06 582,-217.06 582,-217.06"/>
</g>
<!-- wfrc_cpraf -->
<g id="node74" class="node"><title>wfrc_cpraf</title>
<polygon fill="none" stroke="black" points="304,-118.5 304,-139.5 453,-139.5 453,-118.5 304,-118.5"/>
<text text-anchor="start" x="323.5" y="-126.5" font-family="Helvetica,sans-Serif" font-size="10.00">WaitForRedirectCallback</text>
<polygon fill="none" stroke="black" points="304,-97.5 304,-118.5 453,-118.5 453,-97.5 304,-97.5"/>
<text text-anchor="start" x="321.5" y="-105.5" font-family="Helvetica,sans-Serif" font-size="10.00">OnRedirectVerifyCallback</text>
<polygon fill="none" stroke="black" points="304,-76.5 304,-97.5 453,-97.5 453,-76.5 304,-76.5"/>
<text text-anchor="start" x="309" y="-84.5" font-family="Helvetica,sans-Serif" font-size="10.00">cb ContinueProcessRedirection</text>
</g>
<!-- ContinueProcessRedirectionAfterFallback&#45;&gt;wfrc_cpraf -->
<g id="edge113" class="edge"><title>ContinueProcessRedirectionAfterFallback&#45;&gt;wfrc_cpraf:w</title>
<path fill="none" stroke="black" d="M563.703,-180.715C542.064,-162.007 503.933,-134.267 464.143,-130.046"/>
<polygon fill="black" stroke="black" points="454,-129.5 464.228,-125.545 458.993,-129.769 463.986,-130.038 463.986,-130.038 463.986,-130.038 458.993,-129.769 463.743,-134.531 454,-129.5 454,-129.5"/>
</g>
<!-- ContinueProcessRedirection -->
<g id="node75" class="node"><title>ContinueProcessRedirection</title>
<polygon fill="none" stroke="black" points="324.5,-36 183.5,-36 183.5,-0 324.5,-0 324.5,-36"/>
<text text-anchor="middle" x="254" y="-15.5" font-family="Helvetica,sans-Serif" font-size="10.00">ContinueProcessRedirection</text>
</g>
<!-- wfrc_cpraf&#45;&gt;ContinueProcessRedirection -->
<g id="edge114" class="edge"><title>wfrc_cpraf:o&#45;&gt;ContinueProcessRedirection</title>
<path fill="none" stroke="black" d="M303,-86.5C281.79,-86.5 268.81,-64.404 261.586,-45.4962"/>
<polygon fill="black" stroke="black" points="258.32,-36.0331 265.836,-44.0176 259.951,-40.7595 261.583,-45.4859 261.583,-45.4859 261.583,-45.4859 259.951,-40.7595 257.329,-46.9541 258.32,-36.0331 258.32,-36.0331"/>
</g>
<!-- ContinueProcessRedirection&#45;&gt;AsyncOpen -->
<g id="edge115" class="edge"><title>ContinueProcessRedirection&#45;&gt;AsyncOpen</title>
<path fill="none" stroke="black" d="M237.351,-36.0388C222.806,-52.785 204,-79.7939 204,-107.5 204,-637.5 204,-637.5 204,-637.5 204,-704.158 216,-720.342 216,-787 216,-1975 216,-1975 216,-1975 216,-2009.44 253.957,-2027.78 286.067,-2037.12"/>
<polygon fill="black" stroke="black" points="295.796,-2039.74 284.97,-2041.49 290.968,-2038.44 286.14,-2037.14 286.14,-2037.14 286.14,-2037.14 290.968,-2038.44 287.311,-2032.8 295.796,-2039.74 295.796,-2039.74"/>
</g>
<!-- ContinueHandleAsyncRedirect&#45;&gt;DoNotifyListener -->
<g id="edge118" class="edge"><title>ContinueHandleAsyncRedirect&#45;&gt;DoNotifyListener</title>
<path fill="none" stroke="black" d="M1276.06,-371.843C1287.82,-356.401 1305.26,-333.503 1318.63,-315.933"/>
<polygon fill="black" stroke="black" points="1324.83,-307.791 1322.36,-318.474 1321.81,-311.769 1318.78,-315.747 1318.78,-315.747 1318.78,-315.747 1321.81,-311.769 1315.2,-313.021 1324.83,-307.791 1324.83,-307.791"/>
</g>
</g>
</svg>
