<?xml version="1.0" encoding="UTF-8" standalone="no"?>
<!DOCTYPE svg PUBLIC "-//W3C//DTD SVG 1.1//EN"
 "http://www.w3.org/Graphics/SVG/1.1/DTD/svg11.dtd">
<!-- Generated by graphviz version 2.38.0 (20140413.2041)
 -->
<!-- Title: G Pages: 1 -->
<svg width="824pt" height="340pt"
 viewBox="0.00 0.00 824.00 340.00" xmlns="http://www.w3.org/2000/svg" xmlns:xlink="http://www.w3.org/1999/xlink">
<g id="graph0" class="graph" transform="scale(1 1) rotate(0) translate(4 336)">
<title>G</title>
<polygon fill="white" stroke="none" points="-4,4 -4,-336 820,-336 820,4 -4,4"/>
<g id="clust1" class="cluster"><title>cluster_parent</title>
<polygon fill="none" stroke="black" points="140.5,-173 140.5,-324 808,-324 808,-173 140.5,-173"/>
<text text-anchor="middle" x="474.25" y="-308.8" font-family="Sans-Serif" font-size="14.00">Parent</text>
</g>
<g id="clust2" class="cluster"><title>cluster_child</title>
<polygon fill="none" stroke="black" points="8,-8 8,-165 485,-165 485,-8 8,-8"/>
<text text-anchor="middle" x="246.5" y="-149.8" font-family="Sans-Serif" font-size="14.00">Content Child</text>
</g>
<!-- hcpl -->
<g id="node1" class="node"><title>hcpl</title>
<polygon fill="none" stroke="black" points="328.5,-248 328.5,-269 469.5,-269 469.5,-248 328.5,-248"/>
<text text-anchor="start" x="333.5" y="-257" font-family="Helvetica,sans-Serif" font-style="italic" font-size="10.00">nsINetworkInterceptController</text>
<polygon fill="none" stroke="black" points="328.5,-227 328.5,-248 469.5,-248 469.5,-227 328.5,-227"/>
<text text-anchor="start" x="359" y="-236" font-family="Helvetica,sans-Serif" font-style="italic" font-size="10.00">nsIStreamListener</text>
<polygon fill="none" stroke="black" points="328.5,-206 328.5,-227 469.5,-227 469.5,-206 328.5,-206"/>
<text text-anchor="start" x="335.5" y="-215" font-family="Helvetica,sans-Serif" font-weight="bold" font-size="10.00">HttpChannelParentListener</text>
<polygon fill="none" stroke="black" points="328.5,-185 328.5,-206 469.5,-206 469.5,-185 328.5,-185"/>
<text text-anchor="start" x="352" y="-193" font-family="Helvetica,sans-Serif" font-size="10.00">mInterceptedChannel</text>
</g>
<!-- icp -->
<g id="node3" class="node"><title>icp</title>
<polygon fill="none" stroke="black" points="521.5,-268 521.5,-289 660.5,-289 660.5,-268 521.5,-268"/>
<text text-anchor="start" x="541.5" y="-277" font-family="Helvetica,sans-Serif" font-style="italic" font-size="10.00">nsIInterceptedChannel</text>
<polygon fill="#fdcdac" stroke="#000000" points="521.5,-247 521.5,-268 660.5,-268 660.5,-247 521.5,-247"/>
<polygon fill="none" stroke="black" points="521.5,-247 521.5,-268 660.5,-268 660.5,-247 521.5,-247"/>
<text text-anchor="start" x="526.5" y="-256" font-family="Helvetica,sans-Serif" font-weight="bold" font-size="10.00">InterceptedChannelChrome</text>
<polygon fill="none" stroke="black" points="521.5,-226 521.5,-247 660.5,-247 660.5,-226 521.5,-226"/>
<text text-anchor="start" x="565.5" y="-234" font-family="Helvetica,sans-Serif" font-size="10.00">mController</text>
<polygon fill="none" stroke="black" points="521.5,-205 521.5,-226 660.5,-226 660.5,-205 521.5,-205"/>
<text text-anchor="start" x="568.5" y="-213" font-family="Helvetica,sans-Serif" font-size="10.00">mChannel</text>
</g>
<!-- hcpl&#45;&gt;icp -->
<g id="edge2" class="edge"><title>hcpl:ichan&#45;&gt;icp:iface</title>
<path fill="none" stroke="black" d="M470.5,-195C510.043,-195 483.034,-264.584 510.619,-277.088"/>
<polygon fill="black" stroke="black" points="520.5,-279 509.827,-281.518 515.591,-278.05 510.682,-277.1 510.682,-277.1 510.682,-277.1 515.591,-278.05 511.537,-272.682 520.5,-279 520.5,-279"/>
</g>
<!-- hcp -->
<g id="node2" class="node"><title>hcp</title>
<polygon fill="none" stroke="black" points="157,-237 157,-258 258,-258 258,-237 157,-237"/>
<text text-anchor="start" x="162" y="-245" font-family="Helvetica,sans-Serif" font-size="10.00">PHttpChannelParent</text>
<polygon fill="#b3e2cd" stroke="#000000" points="157,-216 157,-237 258,-237 258,-216 157,-216"/>
<polygon fill="none" stroke="black" points="157,-216 157,-237 258,-237 258,-216 157,-216"/>
<text text-anchor="start" x="163" y="-225" font-family="Helvetica,sans-Serif" font-weight="bold" font-size="10.00">HttpChannelParent</text>
<polygon fill="none" stroke="black" points="157,-195 157,-216 258,-216 258,-195 157,-195"/>
<text text-anchor="start" x="171.5" y="-203" font-family="Helvetica,sans-Serif" font-size="10.00">mParentListener</text>
</g>
<!-- hcp&#45;&gt;hcpl -->
<g id="edge1" class="edge"><title>hcp:plistener&#45;&gt;hcpl:impl</title>
<path fill="none" stroke="black" d="M259,-205C286.101,-205 294.659,-213.497 317.269,-215.555"/>
<polygon fill="black" stroke="black" points="327.5,-216 317.314,-220.061 322.505,-215.783 317.509,-215.566 317.509,-215.566 317.509,-215.566 322.505,-215.783 317.705,-211.07 327.5,-216 327.5,-216"/>
</g>
<!-- hcc -->
<g id="node5" class="node"><title>hcc</title>
<polygon fill="none" stroke="black" points="351.5,-41 351.5,-62 446.5,-62 446.5,-41 351.5,-41"/>
<text text-anchor="start" x="356.5" y="-49" font-family="Helvetica,sans-Serif" font-size="10.00">PHttpChannelChild</text>
<polygon fill="#b3e2cd" stroke="#000000" points="351.5,-20 351.5,-41 446.5,-41 446.5,-20 351.5,-20"/>
<polygon fill="none" stroke="black" points="351.5,-20 351.5,-41 446.5,-41 446.5,-20 351.5,-20"/>
<text text-anchor="start" x="356.5" y="-29" font-family="Helvetica,sans-Serif" font-weight="bold" font-size="10.00">HttpChannelChild</text>
</g>
<!-- hcp&#45;&gt;hcc -->
<g id="edge9" class="edge"><title>hcp:actor&#45;&gt;hcc:actor</title>
<path fill="none" stroke="black" stroke-dasharray="5,2" d="M259,-248C355.136,-248 254.364,-52 350.5,-52"/>
</g>
<!-- icp&#45;&gt;hcpl -->
<g id="edge4" class="edge"><title>icp:controller&#45;&gt;hcpl:ifaceC</title>
<path fill="none" stroke="black" d="M520.5,-236C499.861,-236 495.869,-252.374 480.432,-257.491"/>
<polygon fill="black" stroke="black" points="470.5,-259 479.71,-253.049 475.443,-258.249 480.387,-257.498 480.387,-257.498 480.387,-257.498 475.443,-258.249 481.063,-261.947 470.5,-259 470.5,-259"/>
</g>
<!-- nshttp -->
<g id="node4" class="node"><title>nshttp</title>
<polygon fill="none" stroke="black" points="712,-206 712,-227 792,-227 792,-206 712,-206"/>
<text text-anchor="start" x="717" y="-215" font-family="Helvetica,sans-Serif" font-weight="bold" font-size="10.00">nsHttpChannel</text>
<polygon fill="none" stroke="black" points="712,-185 712,-206 792,-206 792,-185 712,-185"/>
<text text-anchor="start" x="730.5" y="-193" font-family="Helvetica,sans-Serif" font-size="10.00">mListener</text>
</g>
<!-- icp&#45;&gt;nshttp -->
<g id="edge5" class="edge"><title>icp:channel&#45;&gt;nshttp:impl</title>
<path fill="none" stroke="black" d="M661.5,-215C679.734,-215 686.615,-216.372 700.946,-216.843"/>
<polygon fill="black" stroke="black" points="711,-217 700.931,-221.343 706.001,-216.922 701.001,-216.844 701.001,-216.844 701.001,-216.844 706.001,-216.922 701.071,-212.344 711,-217 711,-217"/>
</g>
<!-- nshttp&#45;&gt;hcpl -->
<g id="edge3" class="edge"><title>nshttp:listener&#45;&gt;hcpl:ifaceL</title>
<path fill="none" stroke="black" d="M711,-195C622.99,-195 593.629,-156.72 513,-192 491.285,-201.502 495.919,-228.178 480.584,-235.888"/>
<polygon fill="black" stroke="black" points="470.5,-238 479.365,-231.546 475.394,-236.975 480.288,-235.95 480.288,-235.95 480.288,-235.95 475.394,-236.975 481.21,-240.355 470.5,-238 470.5,-238"/>
</g>
<!-- docshell -->
<g id="node6" class="node"><title>docshell</title>
<polygon fill="none" stroke="black" points="328.5,-109 328.5,-130 469.5,-130 469.5,-109 328.5,-109"/>
<text text-anchor="start" x="333.5" y="-118" font-family="Helvetica,sans-Serif" font-style="italic" font-size="10.00">nsINetworkInterceptController</text>
<polygon fill="none" stroke="black" points="328.5,-88 328.5,-109 469.5,-109 469.5,-88 328.5,-88"/>
<text text-anchor="start" x="371.5" y="-97" font-family="Helvetica,sans-Serif" font-weight="bold" font-size="10.00">nsDocShell</text>
</g>
<!-- icc -->
<g id="node7" class="node"><title>icc</title>
<polygon fill="none" stroke="black" points="138,-85 138,-106 276,-106 276,-85 138,-85"/>
<text text-anchor="start" x="157.5" y="-94" font-family="Helvetica,sans-Serif" font-style="italic" font-size="10.00">nsIInterceptedChannel</text>
<polygon fill="#fdcdac" stroke="#000000" points="138,-64 138,-85 276,-85 276,-64 138,-64"/>
<polygon fill="none" stroke="black" points="138,-64 138,-85 276,-85 276,-64 138,-64"/>
<text text-anchor="start" x="143" y="-73" font-family="Helvetica,sans-Serif" font-weight="bold" font-size="10.00">InterceptedChannelContent</text>
<polygon fill="none" stroke="black" points="138,-43 138,-64 276,-64 276,-43 138,-43"/>
<text text-anchor="start" x="181.5" y="-51" font-family="Helvetica,sans-Serif" font-size="10.00">mController</text>
<polygon fill="none" stroke="black" points="138,-22 138,-43 276,-43 276,-22 138,-22"/>
<text text-anchor="start" x="184.5" y="-30" font-family="Helvetica,sans-Serif" font-size="10.00">mChannel</text>
</g>
<!-- icc&#45;&gt;hcc -->
<g id="edge7" class="edge"><title>icc:channel&#45;&gt;hcc:impl</title>
<path fill="none" stroke="black" d="M277,-32C305.977,-32 315.662,-30.4275 340.268,-30.0712"/>
<polygon fill="black" stroke="black" points="350.5,-30 340.532,-34.5696 345.5,-30.0348 340.5,-30.0697 340.5,-30.0697 340.5,-30.0697 345.5,-30.0348 340.469,-25.5698 350.5,-30 350.5,-30"/>
</g>
<!-- icc&#45;&gt;docshell -->
<g id="edge6" class="edge"><title>icc:controller&#45;&gt;docshell:iface</title>
<path fill="none" stroke="black" d="M277,-53C310.356,-53 294.607,-106.612 317.605,-117.921"/>
<polygon fill="black" stroke="black" points="327.5,-120 316.788,-122.348 322.607,-118.972 317.714,-117.944 317.714,-117.944 317.714,-117.944 322.607,-118.972 318.639,-113.54 327.5,-120 327.5,-120"/>
</g>
<!-- event -->
<g id="node8" class="node"><title>event</title>
<polygon fill="none" stroke="black" points="24,-107 24,-128 86,-128 86,-107 24,-107"/>
<text text-anchor="start" x="29" y="-116" font-family="Helvetica,sans-Serif" font-weight="bold" font-size="10.00">FetchEvent</text>
<polygon fill="none" stroke="black" points="24,-86 24,-107 86,-107 86,-86 24,-86"/>
<text text-anchor="start" x="32.5" y="-94" font-family="Helvetica,sans-Serif" font-size="10.00">mChannel</text>
</g>
<!-- event&#45;&gt;icc -->
<g id="edge8" class="edge"><title>event:ichan&#45;&gt;icc:iface</title>
<path fill="none" stroke="black" d="M87,-96C105.403,-96 112.376,-96 126.849,-96"/>
<polygon fill="black" stroke="black" points="137,-96 127,-100.5 132,-96 127,-96.0001 127,-96.0001 127,-96.0001 132,-96 127,-91.5001 137,-96 137,-96"/>
</g>
</g>
</svg>
