<?xml version="1.0" encoding="UTF-8" standalone="no"?>
<!DOCTYPE svg PUBLIC "-//W3C//DTD SVG 1.1//EN"
 "http://www.w3.org/Graphics/SVG/1.1/DTD/svg11.dtd">
<!-- Generated by graphviz version 2.38.0 (20140413.2041)
 -->
<!-- Title: G Pages: 1 -->
<svg width="646pt" height="468pt"
 viewBox="0.00 0.00 646.00 468.00" xmlns="http://www.w3.org/2000/svg" xmlns:xlink="http://www.w3.org/1999/xlink">
<g id="graph0" class="graph" transform="scale(1 1) rotate(0) translate(4 464)">
<title>G</title>
<polygon fill="white" stroke="none" points="-4,4 -4,-464 642,-464 642,4 -4,4"/>
<g id="clust1" class="cluster"><title>cluster_parent</title>
<polygon fill="none" stroke="black" points="54,-266 54,-452 569,-452 569,-266 54,-266"/>
<text text-anchor="middle" x="311.5" y="-436.8" font-family="Sans-Serif" font-size="14.00">Parent</text>
</g>
<g id="clust2" class="cluster"><title>cluster_p_background</title>
<polygon fill="none" stroke="black" points="212,-274 212,-421 561,-421 561,-274 212,-274"/>
<text text-anchor="middle" x="386.5" y="-405.8" font-family="Sans-Serif" font-size="14.00">PBackground</text>
</g>
<g id="clust3" class="cluster"><title>cluster_p_mainthread</title>
<polygon fill="none" stroke="black" points="62,-274 62,-421 204,-421 204,-274 62,-274"/>
<text text-anchor="middle" x="133" y="-405.8" font-family="Sans-Serif" font-size="14.00">Main Thread</text>
</g>
<g id="clust4" class="cluster"><title>cluster_child1</title>
<polygon fill="none" stroke="black" points="8,-8 8,-258 315,-258 315,-8 8,-8"/>
<text text-anchor="middle" x="70.5" y="-242.8" font-family="Sans-Serif" font-size="14.00">Content Child 1</text>
</g>
<g id="clust5" class="cluster"><title>cluster_child1_mainthread</title>
<polygon fill="none" stroke="black" points="16,-80 16,-227 307,-227 307,-80 16,-80"/>
<text text-anchor="middle" x="67.5" y="-211.8" font-family="Sans-Serif" font-size="14.00">Main Thread</text>
</g>
<g id="clust6" class="cluster"><title>cluster_child2</title>
<polygon fill="none" stroke="black" points="323,-8 323,-258 630,-258 630,-8 323,-8"/>
<text text-anchor="middle" x="385.5" y="-242.8" font-family="Sans-Serif" font-size="14.00">Content Child 2</text>
</g>
<g id="clust7" class="cluster"><title>cluster_child2_mainthread</title>
<polygon fill="none" stroke="black" points="331,-80 331,-227 622,-227 622,-80 331,-80"/>
<text text-anchor="middle" x="382.5" y="-211.8" font-family="Sans-Serif" font-size="14.00">Main Thread</text>
</g>
<!-- SWMS -->
<g id="node1" class="node"><title>SWMS</title>
<polygon fill="none" stroke="black" points="466.5,-390 305.5,-390 305.5,-354 466.5,-354 466.5,-390"/>
<text text-anchor="middle" x="386" y="-369.5" font-family="Sans-Serif" font-size="10.00">ServiceWorkerManagerService</text>
</g>
<!-- SWM1P -->
<g id="node2" class="node"><title>SWM1P</title>
<polygon fill="none" stroke="black" points="377.5,-318 220.5,-318 220.5,-282 377.5,-282 377.5,-318"/>
<text text-anchor="middle" x="299" y="-297.5" font-family="Sans-Serif" font-size="10.00">ServiceWorkerManagerParent</text>
</g>
<!-- SWMS&#45;&gt;SWM1P -->
<g id="edge1" class="edge"><title>SWMS&#45;&gt;SWM1P</title>
<path fill="none" stroke="black" d="M364.494,-353.697C351.009,-342.846 333.696,-328.917 320.258,-318.104"/>
</g>
<!-- SWM2P -->
<g id="node3" class="node"><title>SWM2P</title>
<polygon fill="none" stroke="black" points="552.5,-318 395.5,-318 395.5,-282 552.5,-282 552.5,-318"/>
<text text-anchor="middle" x="474" y="-297.5" font-family="Sans-Serif" font-size="10.00">ServiceWorkerManagerParent</text>
</g>
<!-- SWMS&#45;&gt;SWM2P -->
<g id="edge2" class="edge"><title>SWMS&#45;&gt;SWM2P</title>
<path fill="none" stroke="black" d="M407.753,-353.697C421.393,-342.846 438.905,-328.917 452.497,-318.104"/>
</g>
<!-- SWR -->
<g id="node5" class="node"><title>SWR</title>
<polygon fill="none" stroke="black" points="196,-390 70,-390 70,-354 196,-354 196,-390"/>
<text text-anchor="middle" x="133" y="-369.5" font-family="Sans-Serif" font-size="10.00">ServiceWorkerRegistrar</text>
</g>
<!-- SWMS&#45;&gt;SWR -->
<g id="edge10" class="edge"><title>SWMS&#45;&gt;SWR</title>
<path fill="none" stroke="black" stroke-dasharray="5,2" d="M305.208,-372C268.889,-372 232.569,-372 196.25,-372"/>
</g>
<!-- SWM1C -->
<g id="node6" class="node"><title>SWM1C</title>
<polygon fill="none" stroke="black" points="299.5,-196 150.5,-196 150.5,-160 299.5,-160 299.5,-196"/>
<text text-anchor="middle" x="225" y="-175.5" font-family="Sans-Serif" font-size="10.00">ServiceWorkerManagerChild</text>
</g>
<!-- SWM1P&#45;&gt;SWM1C -->
<g id="edge12" class="edge"><title>SWM1P&#45;&gt;SWM1C</title>
<path fill="none" stroke="black" stroke-dasharray="5,2" d="M288.398,-281.807C274.33,-258.995 249.64,-218.957 235.583,-196.161"/>
</g>
<!-- SWM2C -->
<g id="node10" class="node"><title>SWM2C</title>
<polygon fill="none" stroke="black" points="614.5,-196 465.5,-196 465.5,-160 614.5,-160 614.5,-196"/>
<text text-anchor="middle" x="540" y="-175.5" font-family="Sans-Serif" font-size="10.00">ServiceWorkerManagerChild</text>
</g>
<!-- SWM2P&#45;&gt;SWM2C -->
<g id="edge11" class="edge"><title>SWM2P&#45;&gt;SWM2C</title>
<path fill="none" stroke="black" stroke-dasharray="5,2" d="M483.456,-281.807C496.003,-258.995 518.024,-218.957 530.561,-196.161"/>
</g>
<!-- SWMPP -->
<g id="node4" class="node"><title>SWMPP</title>
<polygon fill="#b3e2cd" stroke="black" points="196,-318 70,-318 70,-282 196,-282 196,-318"/>
<text text-anchor="middle" x="133" y="-297.5" font-family="Sans-Serif" font-size="10.00">ServiceWorkerManager</text>
</g>
<!-- SWR&#45;&gt;SWMPP -->
<g id="edge3" class="edge"><title>SWR&#45;&gt;SWMPP</title>
<path fill="none" stroke="black" d="M133,-353.697C133,-342.846 133,-328.917 133,-318.104"/>
</g>
<!-- SWM1 -->
<g id="node7" class="node"><title>SWM1</title>
<polygon fill="#b3e2cd" stroke="black" points="221,-124 95,-124 95,-88 221,-88 221,-124"/>
<text text-anchor="middle" x="158" y="-103.5" font-family="Sans-Serif" font-size="10.00">ServiceWorkerManager</text>
</g>
<!-- SWM1C&#45;&gt;SWM1 -->
<g id="edge4" class="edge"><title>SWM1C&#45;&gt;SWM1</title>
<path fill="none" stroke="black" d="M208.438,-159.697C198.053,-148.846 184.72,-134.917 174.371,-124.104"/>
</g>
<!-- ESW1 -->
<g id="node9" class="node"><title>ESW1</title>
<polygon fill="#fdcdac" stroke="black" points="234,-52 82,-52 82,-16 234,-16 234,-52"/>
<text text-anchor="middle" x="158" y="-31.5" font-family="Sans-Serif" font-size="10.00">example.com ServiceWorker</text>
</g>
<!-- SWM1&#45;&gt;ESW1 -->
<g id="edge5" class="edge"><title>SWM1&#45;&gt;ESW1</title>
<path fill="none" stroke="black" d="M158,-87.6966C158,-76.8463 158,-62.9167 158,-52.1043"/>
</g>
<!-- EP1 -->
<g id="node8" class="node"><title>EP1</title>
<polygon fill="#cbd5e8" stroke="black" points="132,-196 24,-196 24,-160 132,-160 132,-196"/>
<text text-anchor="middle" x="78" y="-175.5" font-family="Sans-Serif" font-size="10.00">example.com Page</text>
</g>
<!-- EP1&#45;&gt;SWM1 -->
<g id="edge6" class="edge"><title>EP1&#45;&gt;SWM1</title>
<path fill="none" stroke="black" d="M97.7753,-159.697C110.176,-148.846 126.095,-134.917 138.452,-124.104"/>
</g>
<!-- SWM2 -->
<g id="node11" class="node"><title>SWM2</title>
<polygon fill="#b3e2cd" stroke="black" points="536,-124 410,-124 410,-88 536,-88 536,-124"/>
<text text-anchor="middle" x="473" y="-103.5" font-family="Sans-Serif" font-size="10.00">ServiceWorkerManager</text>
</g>
<!-- SWM2C&#45;&gt;SWM2 -->
<g id="edge7" class="edge"><title>SWM2C&#45;&gt;SWM2</title>
<path fill="none" stroke="black" d="M523.438,-159.697C513.053,-148.846 499.72,-134.917 489.371,-124.104"/>
</g>
<!-- ESW2 -->
<g id="node13" class="node"><title>ESW2</title>
<polygon fill="#fdcdac" stroke="black" points="549,-52 397,-52 397,-16 549,-16 549,-52"/>
<text text-anchor="middle" x="473" y="-31.5" font-family="Sans-Serif" font-size="10.00">example.com ServiceWorker</text>
</g>
<!-- SWM2&#45;&gt;ESW2 -->
<g id="edge8" class="edge"><title>SWM2&#45;&gt;ESW2</title>
<path fill="none" stroke="black" d="M473,-87.6966C473,-76.8463 473,-62.9167 473,-52.1043"/>
</g>
<!-- EP2 -->
<g id="node12" class="node"><title>EP2</title>
<polygon fill="#cbd5e8" stroke="black" points="447,-196 339,-196 339,-160 447,-160 447,-196"/>
<text text-anchor="middle" x="393" y="-175.5" font-family="Sans-Serif" font-size="10.00">example.com Page</text>
</g>
<!-- EP2&#45;&gt;SWM2 -->
<g id="edge9" class="edge"><title>EP2&#45;&gt;SWM2</title>
<path fill="none" stroke="black" d="M412.775,-159.697C425.176,-148.846 441.095,-134.917 453.452,-124.104"/>
</g>
</g>
</svg>
