<?xml version="1.0" encoding="UTF-8" standalone="no"?>
<!DOCTYPE svg PUBLIC "-//W3C//DTD SVG 1.1//EN"
 "http://www.w3.org/Graphics/SVG/1.1/DTD/svg11.dtd">
<!-- Generated by graphviz version 2.38.0 (20140413.2041)
 -->
<!-- Title: G Pages: 1 -->
<svg width="500pt" height="404pt"
 viewBox="0.00 0.00 500.00 404.00" xmlns="http://www.w3.org/2000/svg" xmlns:xlink="http://www.w3.org/1999/xlink">
<g id="graph0" class="graph" transform="scale(1 1) rotate(0) translate(4 400)">
<title>G</title>
<polygon fill="white" stroke="none" points="-4,4 -4,-400 496,-400 496,4 -4,4"/>
<g id="clust1" class="cluster"><title>cluster_parent</title>
<polygon fill="none" stroke="black" points="38,-202 38,-388 416,-388 416,-202 38,-202"/>
<text text-anchor="middle" x="227" y="-372.8" font-family="Sans-Serif" font-size="14.00">Parent</text>
</g>
<g id="clust2" class="cluster"><title>cluster_p_mainthread</title>
<polygon fill="none" stroke="black" points="46,-210 46,-357 408,-357 408,-210 46,-210"/>
<text text-anchor="middle" x="227" y="-341.8" font-family="Sans-Serif" font-size="14.00">Main Thread</text>
</g>
<g id="clust4" class="cluster"><title>cluster_child0</title>
<polygon fill="none" stroke="black" points="8,-16 8,-194 188,-194 188,-16 8,-16"/>
<text text-anchor="middle" x="98" y="-178.8" font-family="Sans-Serif" font-size="14.00">ServiceWorker Process</text>
</g>
<g id="clust5" class="cluster"><title>cluster_child0_mainthread</title>
<polygon fill="none" stroke="black" points="16,-88 16,-163 180,-163 180,-88 16,-88"/>
<text text-anchor="middle" x="98" y="-147.8" font-family="Sans-Serif" font-size="14.00">Main Thread</text>
</g>
<g id="clust6" class="cluster"><title>cluster_child1</title>
<polygon fill="none" stroke="black" points="196,-8 196,-194 336,-194 336,-8 196,-8"/>
<text text-anchor="middle" x="266" y="-178.8" font-family="Sans-Serif" font-size="14.00">Content Child 1</text>
</g>
<g id="clust7" class="cluster"><title>cluster_child1_mainthread</title>
<polygon fill="none" stroke="black" points="204,-16 204,-163 328,-163 328,-16 204,-16"/>
<text text-anchor="middle" x="266" y="-147.8" font-family="Sans-Serif" font-size="14.00">Main Thread</text>
</g>
<g id="clust8" class="cluster"><title>cluster_child2</title>
<polygon fill="none" stroke="black" points="344,-8 344,-194 484,-194 484,-8 344,-8"/>
<text text-anchor="middle" x="414" y="-178.8" font-family="Sans-Serif" font-size="14.00">Content Child 2</text>
</g>
<g id="clust9" class="cluster"><title>cluster_child2_mainthread</title>
<polygon fill="none" stroke="black" points="352,-16 352,-163 476,-163 476,-16 352,-16"/>
<text text-anchor="middle" x="414" y="-147.8" font-family="Sans-Serif" font-size="14.00">Main Thread</text>
</g>
<!-- SWMPP -->
<g id="node1" class="node"><title>SWMPP</title>
<polygon fill="#b3e2cd" stroke="black" points="329,-326 203,-326 203,-290 329,-290 329,-326"/>
<text text-anchor="middle" x="266" y="-305.5" font-family="Sans-Serif" font-size="10.00">ServiceWorkerManager</text>
</g>
<!-- SWIP -->
<g id="node2" class="node"><title>SWIP</title>
<polygon fill="#fff2ae" stroke="black" points="209.5,-254 54.5,-254 54.5,-218 209.5,-218 209.5,-254"/>
<text text-anchor="middle" x="132" y="-233.5" font-family="Sans-Serif" font-size="10.00">ServiceWorkerInstanceParent</text>
</g>
<!-- SWMPP&#45;&gt;SWIP -->
<g id="edge2" class="edge"><title>SWMPP&#45;&gt;SWIP</title>
<path fill="none" stroke="black" d="M233.22,-289.876C212.455,-279.029 185.695,-265.05 164.906,-254.19"/>
</g>
<!-- NP1 -->
<g id="node3" class="node"><title>NP1</title>
<polygon fill="none" stroke="black" points="304.5,-254 227.5,-254 227.5,-218 304.5,-218 304.5,-254"/>
<text text-anchor="middle" x="266" y="-233.5" font-family="Sans-Serif" font-size="10.00">NeckoParent</text>
</g>
<!-- SWMPP&#45;&gt;NP1 -->
<g id="edge3" class="edge"><title>SWMPP&#45;&gt;NP1</title>
<path fill="none" stroke="black" d="M266,-289.697C266,-278.846 266,-264.917 266,-254.104"/>
</g>
<!-- NP2 -->
<g id="node4" class="node"><title>NP2</title>
<polygon fill="none" stroke="black" points="399.5,-254 322.5,-254 322.5,-218 399.5,-218 399.5,-254"/>
<text text-anchor="middle" x="361" y="-233.5" font-family="Sans-Serif" font-size="10.00">NeckoParent</text>
</g>
<!-- SWMPP&#45;&gt;NP2 -->
<g id="edge4" class="edge"><title>SWMPP&#45;&gt;NP2</title>
<path fill="none" stroke="black" d="M289.483,-289.697C304.209,-278.846 323.113,-264.917 337.787,-254.104"/>
</g>
<!-- SWIC -->
<g id="node6" class="node"><title>SWIC</title>
<polygon fill="#fff2ae" stroke="black" points="172,-132 24,-132 24,-96 172,-96 172,-132"/>
<text text-anchor="middle" x="98" y="-111.5" font-family="Sans-Serif" font-size="10.00">ServiceWorkerInstanceChild</text>
</g>
<!-- SWIP&#45;&gt;SWIC -->
<g id="edge10" class="edge"><title>SWIP&#45;&gt;SWIC</title>
<path fill="none" stroke="black" stroke-dasharray="5,2" d="M127.129,-217.807C120.665,-194.995 109.321,-154.957 102.862,-132.161"/>
</g>
<!-- NC1 -->
<g id="node8" class="node"><title>NC1</title>
<polygon fill="none" stroke="black" points="301,-132 231,-132 231,-96 301,-96 301,-132"/>
<text text-anchor="middle" x="266" y="-111.5" font-family="Sans-Serif" font-size="10.00">NeckoChild</text>
</g>
<!-- NP1&#45;&gt;NC1 -->
<g id="edge8" class="edge"><title>NP1&#45;&gt;NC1</title>
<path fill="none" stroke="black" stroke-dasharray="5,2" d="M266,-217.807C266,-194.995 266,-154.957 266,-132.161"/>
</g>
<!-- NC2 -->
<g id="node10" class="node"><title>NC2</title>
<polygon fill="none" stroke="black" points="439,-132 369,-132 369,-96 439,-96 439,-132"/>
<text text-anchor="middle" x="404" y="-111.5" font-family="Sans-Serif" font-size="10.00">NeckoChild</text>
</g>
<!-- NP2&#45;&gt;NC2 -->
<g id="edge9" class="edge"><title>NP2&#45;&gt;NC2</title>
<path fill="none" stroke="black" stroke-dasharray="5,2" d="M367.161,-217.807C375.335,-194.995 389.682,-154.957 397.851,-132.161"/>
</g>
<!-- SWR -->
<g id="node5" class="node"><title>SWR</title>
<polygon fill="none" stroke="black" points="185,-326 59,-326 59,-290 185,-290 185,-326"/>
<text text-anchor="middle" x="122" y="-305.5" font-family="Sans-Serif" font-size="10.00">ServiceWorkerRegistrar</text>
</g>
<!-- SWR&#45;&gt;SWMPP -->
<g id="edge1" class="edge"><title>SWR&#45;&gt;SWMPP</title>
<path fill="none" stroke="black" d="M185.281,-308C191.167,-308 197.053,-308 202.938,-308"/>
</g>
<!-- ESWC -->
<g id="node7" class="node"><title>ESWC</title>
<polygon fill="#fdcdac" stroke="black" points="174,-60 22,-60 22,-24 174,-24 174,-60"/>
<text text-anchor="middle" x="98" y="-39.5" font-family="Sans-Serif" font-size="10.00">example.com ServiceWorker</text>
</g>
<!-- SWIC&#45;&gt;ESWC -->
<g id="edge5" class="edge"><title>SWIC&#45;&gt;ESWC</title>
<path fill="none" stroke="black" d="M98,-95.6966C98,-84.8463 98,-70.9167 98,-60.1043"/>
</g>
<!-- EP1 -->
<g id="node9" class="node"><title>EP1</title>
<polygon fill="#cbd5e8" stroke="black" points="320,-60 212,-60 212,-24 320,-24 320,-60"/>
<text text-anchor="middle" x="266" y="-39.5" font-family="Sans-Serif" font-size="10.00">example.com Page</text>
</g>
<!-- NC1&#45;&gt;EP1 -->
<g id="edge6" class="edge"><title>NC1&#45;&gt;EP1</title>
<path fill="none" stroke="black" d="M266,-95.6966C266,-84.8463 266,-70.9167 266,-60.1043"/>
</g>
<!-- EP2 -->
<g id="node11" class="node"><title>EP2</title>
<polygon fill="#cbd5e8" stroke="black" points="468,-60 360,-60 360,-24 468,-24 468,-60"/>
<text text-anchor="middle" x="414" y="-39.5" font-family="Sans-Serif" font-size="10.00">example.com Page</text>
</g>
<!-- NC2&#45;&gt;EP2 -->
<g id="edge7" class="edge"><title>NC2&#45;&gt;EP2</title>
<path fill="none" stroke="black" d="M406.472,-95.6966C408.022,-84.8463 410.012,-70.9167 411.557,-60.1043"/>
</g>
</g>
</svg>
