<?xml version="1.0" encoding="UTF-8" standalone="no"?>
<!DOCTYPE svg PUBLIC "-//W3C//DTD SVG 1.1//EN"
 "http://www.w3.org/Graphics/SVG/1.1/DTD/svg11.dtd">
<!-- Generated by graphviz version 2.40.1 (20161225.0304)
 -->
<!-- Title: G Pages: 1 -->
<svg width="660pt" height="468pt"
 viewBox="0.00 0.00 660.00 468.00" xmlns="http://www.w3.org/2000/svg" xmlns:xlink="http://www.w3.org/1999/xlink">
<g id="graph0" class="graph" transform="scale(1 1) rotate(0) translate(4 464)">
<title>G</title>
<polygon fill="#ffffff" stroke="transparent" points="-4,4 -4,-464 656,-464 656,4 -4,4"/>
<g id="clust1" class="cluster">
<title>cluster_parent</title>
<polygon fill="none" stroke="#000000" points="55,-266 55,-452 581,-452 581,-266 55,-266"/>
<text text-anchor="middle" x="318" y="-436.8" font-family="Sans-Serif" font-size="14.00" fill="#000000">Parent</text>
</g>
<g id="clust2" class="cluster">
<title>cluster_p_background</title>
<polygon fill="none" stroke="#000000" points="219,-274 219,-421 573,-421 573,-274 219,-274"/>
<text text-anchor="middle" x="396" y="-405.8" font-family="Sans-Serif" font-size="14.00" fill="#000000">PBackground</text>
</g>
<g id="clust3" class="cluster">
<title>cluster_p_mainthread</title>
<polygon fill="none" stroke="#000000" points="63,-274 63,-421 211,-421 211,-274 63,-274"/>
<text text-anchor="middle" x="137" y="-405.8" font-family="Sans-Serif" font-size="14.00" fill="#000000">Main Thread</text>
</g>
<g id="clust4" class="cluster">
<title>cluster_child1</title>
<polygon fill="none" stroke="#000000" points="8,-8 8,-258 322,-258 322,-8 8,-8"/>
<text text-anchor="middle" x="71" y="-242.8" font-family="Sans-Serif" font-size="14.00" fill="#000000">Content Child 1</text>
</g>
<g id="clust5" class="cluster">
<title>cluster_child1_mainthread</title>
<polygon fill="none" stroke="#000000" points="16,-80 16,-227 314,-227 314,-80 16,-80"/>
<text text-anchor="middle" x="69" y="-211.8" font-family="Sans-Serif" font-size="14.00" fill="#000000">Main Thread</text>
</g>
<g id="clust6" class="cluster">
<title>cluster_child2</title>
<polygon fill="none" stroke="#000000" points="330,-8 330,-258 644,-258 644,-8 330,-8"/>
<text text-anchor="middle" x="393" y="-242.8" font-family="Sans-Serif" font-size="14.00" fill="#000000">Content Child 2</text>
</g>
<g id="clust7" class="cluster">
<title>cluster_child2_mainthread</title>
<polygon fill="none" stroke="#000000" points="338,-80 338,-227 636,-227 636,-80 338,-80"/>
<text text-anchor="middle" x="391" y="-211.8" font-family="Sans-Serif" font-size="14.00" fill="#000000">Main Thread</text>
</g>
<!-- SWMS -->
<g id="node1" class="node">
<title>SWMS</title>
<polygon fill="none" stroke="#000000" points="478.5,-390 313.5,-390 313.5,-354 478.5,-354 478.5,-390"/>
<text text-anchor="middle" x="396" y="-369.5" font-family="Sans-Serif" font-size="10.00" fill="#000000">ServiceWorkerManagerService</text>
</g>
<!-- SWM1P -->
<g id="node2" class="node">
<title>SWM1P</title>
<polygon fill="none" stroke="#000000" points="387,-318 227,-318 227,-282 387,-282 387,-318"/>
<text text-anchor="middle" x="307" y="-297.5" font-family="Sans-Serif" font-size="10.00" fill="#000000">ServiceWorkerManagerParent</text>
</g>
<!-- SWMS&#45;&gt;SWM1P -->
<g id="edge1" class="edge">
<title>SWMS&#45;&gt;SWM1P</title>
<path fill="none" stroke="#000000" d="M373.5415,-353.8314C360.0498,-342.9167 342.9417,-329.0764 329.4513,-318.1628"/>
</g>
<!-- SWM2P -->
<g id="node3" class="node">
<title>SWM2P</title>
<polygon fill="none" stroke="#000000" points="565,-318 405,-318 405,-282 565,-282 565,-318"/>
<text text-anchor="middle" x="485" y="-297.5" font-family="Sans-Serif" font-size="10.00" fill="#000000">ServiceWorkerManagerParent</text>
</g>
<!-- SWMS&#45;&gt;SWM2P -->
<g id="edge2" class="edge">
<title>SWMS&#45;&gt;SWM2P</title>
<path fill="none" stroke="#000000" d="M418.4585,-353.8314C431.9502,-342.9167 449.0583,-329.0764 462.5487,-318.1628"/>
</g>
<!-- SWR -->
<g id="node5" class="node">
<title>SWR</title>
<polygon fill="none" stroke="#000000" points="202.5,-390 71.5,-390 71.5,-354 202.5,-354 202.5,-390"/>
<text text-anchor="middle" x="137" y="-369.5" font-family="Sans-Serif" font-size="10.00" fill="#000000">ServiceWorkerRegistrar</text>
</g>
<!-- SWMS&#45;&gt;SWR -->
<g id="edge10" class="edge">
<title>SWMS&#45;&gt;SWR</title>
<path fill="none" stroke="#000000" stroke-dasharray="5,2" d="M313.2372,-372C276.3277,-372 239.4182,-372 202.5088,-372"/>
</g>
<!-- SWM1C -->
<g id="node6" class="node">
<title>SWM1C</title>
<polygon fill="none" stroke="#000000" points="306,-196 152,-196 152,-160 306,-160 306,-196"/>
<text text-anchor="middle" x="229" y="-175.5" font-family="Sans-Serif" font-size="10.00" fill="#000000">ServiceWorkerManagerChild</text>
</g>
<!-- SWM1P&#45;&gt;SWM1C -->
<g id="edge12" class="edge">
<title>SWM1P&#45;&gt;SWM1C</title>
<path fill="none" stroke="#000000" stroke-dasharray="5,2" d="M295.4908,-281.9985C280.7436,-258.9324 255.3263,-219.177 240.5564,-196.0754"/>
</g>
<!-- SWM2C -->
<g id="node10" class="node">
<title>SWM2C</title>
<polygon fill="none" stroke="#000000" points="628,-196 474,-196 474,-160 628,-160 628,-196"/>
<text text-anchor="middle" x="551" y="-175.5" font-family="Sans-Serif" font-size="10.00" fill="#000000">ServiceWorkerManagerChild</text>
</g>
<!-- SWM2P&#45;&gt;SWM2C -->
<g id="edge11" class="edge">
<title>SWM2P&#45;&gt;SWM2C</title>
<path fill="none" stroke="#000000" stroke-dasharray="5,2" d="M494.7385,-281.9985C507.2169,-258.9324 528.7239,-219.177 541.2215,-196.0754"/>
</g>
<!-- SWMPP -->
<g id="node4" class="node">
<title>SWMPP</title>
<polygon fill="#b3e2cd" stroke="#000000" points="201.5,-318 72.5,-318 72.5,-282 201.5,-282 201.5,-318"/>
<text text-anchor="middle" x="137" y="-297.5" font-family="Sans-Serif" font-size="10.00" fill="#000000">ServiceWorkerManager</text>
</g>
<!-- SWR&#45;&gt;SWMPP -->
<g id="edge3" class="edge">
<title>SWR&#45;&gt;SWMPP</title>
<path fill="none" stroke="#000000" d="M137,-353.8314C137,-343 137,-329.2876 137,-318.4133"/>
</g>
<!-- SWM1 -->
<g id="node7" class="node">
<title>SWM1</title>
<polygon fill="#b3e2cd" stroke="#000000" points="226.5,-124 97.5,-124 97.5,-88 226.5,-88 226.5,-124"/>
<text text-anchor="middle" x="162" y="-103.5" font-family="Sans-Serif" font-size="10.00" fill="#000000">ServiceWorkerManager</text>
</g>
<!-- SWM1C&#45;&gt;SWM1 -->
<g id="edge4" class="edge">
<title>SWM1C&#45;&gt;SWM1</title>
<path fill="none" stroke="#000000" d="M212.0931,-159.8314C202.0139,-149 189.2537,-135.2876 179.1346,-124.4133"/>
</g>
<!-- ESW1 -->
<g id="node9" class="node">
<title>ESW1</title>
<polygon fill="#fdcdac" stroke="#000000" points="240.5,-52 83.5,-52 83.5,-16 240.5,-16 240.5,-52"/>
<text text-anchor="middle" x="162" y="-31.5" font-family="Sans-Serif" font-size="10.00" fill="#000000">example.com ServiceWorker</text>
</g>
<!-- SWM1&#45;&gt;ESW1 -->
<g id="edge5" class="edge">
<title>SWM1&#45;&gt;ESW1</title>
<path fill="none" stroke="#000000" d="M162,-87.8314C162,-77 162,-63.2876 162,-52.4133"/>
</g>
<!-- EP1 -->
<g id="node8" class="node">
<title>EP1</title>
<polygon fill="#cbd5e8" stroke="#000000" points="134,-196 24,-196 24,-160 134,-160 134,-196"/>
<text text-anchor="middle" x="79" y="-175.5" font-family="Sans-Serif" font-size="10.00" fill="#000000">example.com Page</text>
</g>
<!-- EP1&#45;&gt;SWM1 -->
<g id="edge6" class="edge">
<title>EP1&#45;&gt;SWM1</title>
<path fill="none" stroke="#000000" d="M99.9444,-159.8314C112.5266,-148.9167 128.4813,-135.0764 141.0623,-124.1628"/>
</g>
<!-- SWM2 -->
<g id="node11" class="node">
<title>SWM2</title>
<polygon fill="#b3e2cd" stroke="#000000" points="548.5,-124 419.5,-124 419.5,-88 548.5,-88 548.5,-124"/>
<text text-anchor="middle" x="484" y="-103.5" font-family="Sans-Serif" font-size="10.00" fill="#000000">ServiceWorkerManager</text>
</g>
<!-- SWM2C&#45;&gt;SWM2 -->
<g id="edge7" class="edge">
<title>SWM2C&#45;&gt;SWM2</title>
<path fill="none" stroke="#000000" d="M534.0931,-159.8314C524.0139,-149 511.2537,-135.2876 501.1346,-124.4133"/>
</g>
<!-- ESW2 -->
<g id="node13" class="node">
<title>ESW2</title>
<polygon fill="#fdcdac" stroke="#000000" points="562.5,-52 405.5,-52 405.5,-16 562.5,-16 562.5,-52"/>
<text text-anchor="middle" x="484" y="-31.5" font-family="Sans-Serif" font-size="10.00" fill="#000000">example.com ServiceWorker</text>
</g>
<!-- SWM2&#45;&gt;ESW2 -->
<g id="edge8" class="edge">
<title>SWM2&#45;&gt;ESW2</title>
<path fill="none" stroke="#000000" d="M484,-87.8314C484,-77 484,-63.2876 484,-52.4133"/>
</g>
<!-- EP2 -->
<g id="node12" class="node">
<title>EP2</title>
<polygon fill="#cbd5e8" stroke="#000000" points="456,-196 346,-196 346,-160 456,-160 456,-196"/>
<text text-anchor="middle" x="401" y="-175.5" font-family="Sans-Serif" font-size="10.00" fill="#000000">example.com Page</text>
</g>
<!-- EP2&#45;&gt;SWM2 -->
<g id="edge9" class="edge">
<title>EP2&#45;&gt;SWM2</title>
<path fill="none" stroke="#000000" d="M421.9444,-159.8314C434.5266,-148.9167 450.4813,-135.0764 463.0623,-124.1628"/>
</g>
</g>
</svg>
